{
.appVersion = "1357";
DisplayStrings = (
"l/periodcentered.loclCAT l",
"L/periodcentered.loclCAT.case",
"­",
"/ringcomb.case",
"A/Aringacute",
"/Acircumflexhookabove",
"/brevecomb.case/Abreve",
"/two.lf",
"/nine.lf",
"AÁ/Abreve/Abreveacute/Abrevedotbelow/Abrevegrave/Abrevehookabove/Abrevetilde/Acaron Â/Acircumflexacute/Acircumflexdotbelow/Acircumflexgrave/Acircumflexhookabove/Acircumflextilde/Adblgrave Ä/Adotbelow À/Ahookabove/Ainvertedbreve/Amacron/Aogonek Å/Aringacute ÃÆ",
"OÓ/Obreve/Ocaron Ô/Ocircumflexacute/Ocircumflexdotbelow/Ocircumflexgrave/Ocircumflexhookabove/Ocircumflextilde/Odblgrave Ö/Odieresismacron/Odotaccentmacron/Odotbelow Ò/Ohookabove/Ohorn/Ohornacute/Ohorndotbelow/Ohorngrave/Ohornhookabove/Ohorntilde/Ohungarumlaut/Oinvertedbreve/Omacron/Oogonek Ø/Oslashacute Õ/Otildemacron",
"UÚ/Ubreve/Ucaron Û/Udblgrave Ü/Udieresiscaron/Udieresisgrave/Udieresismacron/Udotbelow Ù/Uhookabove/Uhorn/Uhornacute/Uhorndotbelow/Uhorngrave/Uhornhookabove/Uhorntilde/Uhungarumlaut/Uinvertedbreve/Umacron/Uogonek/Uring/Utilde",
"aá/abreve/abreveacute/abrevedotbelow/abrevegrave/abrevehookabove/abrevetilde/acaron â/acircumflexacute/acircumflexdotbelow/acircumflexgrave/acircumflexhookabove/acircumflextilde/adblgrave ä/adotbelow à/ahookabove/ainvertedbreve/amacron/aogonek å/ringcomb/aringacute ãæ/aeacute",
"aá/abreve/abreveacute/abrevedotbelow/abrevegrave/abrevehookabove/abrevetilde/acaron â/acircumflexacute/acircumflexdotbelow/acircumflexgrave/acircumflexhookabove/acircumflextilde/adblgrave ä/adotbelow à/ahookabove/ainvertedbreve/amacron/aogonek å/aringacute ãæ/aeacute",
"oó/obreve ô/ocircumflexacute/ocircumflexdotbelow/ocircumflexgrave/ocircumflexhookabove/ocircumflextilde/odblgrave ö/odieresismacron/odotaccentmacron/odotbelow ò/ohookabove/ohorn/ohornacute/ohorndotbelow/ohorngrave/ohornhookabove/ohorntilde/ohungarumlaut/oinvertedbreve/omacron/oogonek ø/oslashacute õ/otildemacron",
"\"horna\"Poca",
"\"",
"'single'",
"/quotedblleft single\"",

glyphs = (
{
glyphname = .notdef;
lastChange = "2021-10-29 07:10:18 +0000";
layers = (
{
layerId = "171CD109-D0B0-4A7B-9E5C-4BA88B29FB0C";
paths = (
{
closed = 1;
nodes = (
"443 -5 LINE",
"454 7 LINE",
"454 575 LINE",
"443 587 LINE",
"52 587 LINE",
"40 575 LINE",
"40 7 LINE",
"52 -5 LINE"
);
},
{
closed = 1;
nodes = (
"147 139 LINE",
"230 292 LINE",
"147 443 LINE",
"158 465 LINE",
"241 314 LINE",
"326 466 LINE",
"339 443 LINE",
"253 290 LINE",
"339 139 LINE",
"326 117 LINE",
"241 267 LINE",
"158 117 LINE"
);
},
{
closed = 1;
nodes = (
"66 561 LINE",
"430 561 LINE",
"430 21 LINE",
"66 21 LINE"
);
},
{
closed = 1;
nodes = (
"407 40 LINE",
"407 538 LINE",
"87 538 LINE",
"87 40 LINE"
);
}
);
width = 494;
}
);
note = .notdef;
},
{
glyphname = A;
lastChange = "2021-10-29 07:10:48 +0000";
layers = (
{
anchors = (
{
name = bottom;
position = "{587, 0}";
},
{
name = ogonek;
position = "{837, -22}";
},
{
name = top;
position = "{1062, 533}";
}
);
layerId = "171CD109-D0B0-4A7B-9E5C-4BA88B29FB0C";
paths = (
{
closed = 1;
nodes = (
"344 -109 OFFCURVE",
"435 -72 OFFCURVE",
"521 4 CURVE SMOOTH",
"576 51 OFFCURVE",
"641 129 OFFCURVE",
"716 236 CURVE",
"867 236 LINE",
"862 227 OFFCURVE",
"858 220 OFFCURVE",
"855 216 CURVE SMOOTH",
"822 162 OFFCURVE",
"793 121 OFFCURVE",
"770 95 CURVE SMOOTH",
"737 58 OFFCURVE",
"701 25 OFFCURVE",
"661 -4 CURVE",
"662 -7 LINE",
"688 -7 OFFCURVE",
"714 -8 OFFCURVE",
"738 -18 CURVE SMOOTH",
"783 -36 LINE SMOOTH",
"802 -44 OFFCURVE",
"817 -46 OFFCURVE",
"831 -46 CURVE SMOOTH",
"865 -46 OFFCURVE",
"882 -33 OFFCURVE",
"882 -8 CURVE SMOOTH",
"882 2 OFFCURVE",
"879 10 OFFCURVE",
"873 16 CURVE SMOOTH",
"872 17 OFFCURVE",
"872 17 OFFCURVE",
"871 17 CURVE",
"871 17 OFFCURVE",
"870 16 OFFCURVE",
"870 15 CURVE SMOOTH",
"870 13 OFFCURVE",
"870 10 OFFCURVE",
"871 5 CURVE",
"873 1 OFFCURVE",
"873 -2 OFFCURVE",
"873 -5 CURVE SMOOTH",
"873 -15 OFFCURVE",
"867 -20 OFFCURVE",
"855 -20 CURVE SMOOTH",
"848 -20 OFFCURVE",
"825 -15 OFFCURVE",
"786 -5 CURVE SMOOTH",
"766 -1 OFFCURVE",
"743 2 OFFCURVE",
"715 2 CURVE SMOOTH",
"700 2 LINE SMOOTH",
"692 2 OFFCURVE",
"687 1 OFFCURVE",
"685 1 CURVE",
"755 28 OFFCURVE",
"817 71 OFFCURVE",
"871 130 CURVE SMOOTH",
"897 159 OFFCURVE",
"921 199 OFFCURVE",
"942 252 CURVE SMOOTH",
"969 318 OFFCURVE",
"988 361 OFFCURVE",
"999 380 CURVE SMOOTH",
"1015 406 OFFCURVE",
"1030 429 OFFCURVE",
"1043 449 CURVE",
"1052 444 OFFCURVE",
"1082 435 OFFCURVE",
"1102 435 CURVE SMOOTH",
"1135 435 OFFCURVE",
"1152 450 OFFCURVE",
"1152 481 CURVE SMOOTH",
"1152 499 OFFCURVE",
"1143 513 OFFCURVE",
"1124 523 CURVE SMOOTH",
"1110 531 OFFCURVE",
"1092 534 OFFCURVE",
"1073 534 CURVE SMOOTH",
"1028 534 OFFCURVE",
"990 522 OFFCURVE",
"959 498 CURVE",
"935 512 OFFCURVE",
"917 522 OFFCURVE",
"904 528 CURVE SMOOTH",
"809 575 OFFCURVE",
"722 602 OFFCURVE",
"643 609 CURVE SMOOTH",
"636 610 OFFCURVE",
"629 610 OFFCURVE",
"621 610 CURVE SMOOTH",
"562 610 OFFCURVE",
"511 594 OFFCURVE",
"468 561 CURVE SMOOTH",
"420 525 OFFCURVE",
"397 478 OFFCURVE",
"397 421 CURVE SMOOTH",
"397 374 OFFCURVE",
"414 335 OFFCURVE",
"447 304 CURVE SMOOTH",
"479 275 OFFCURVE",
"519 260 OFFCURVE",
"566 260 CURVE SMOOTH",
"586 260 OFFCURVE",
"605 262 OFFCURVE",
"624 267 CURVE SMOOTH",
"653 274 OFFCURVE",
"679 289 OFFCURVE",
"700 310 CURVE SMOOTH",
"723 334 OFFCURVE",
"735 360 OFFCURVE",
"735 388 CURVE SMOOTH",
"735 414 OFFCURVE",
"724 432 OFFCURVE",
"703 443 CURVE",
"700 443 LINE SMOOTH",
"699 443 OFFCURVE",
"698 444 OFFCURVE",
"697 444 CURVE SMOOTH",
"695 444 OFFCURVE",
"695 443 OFFCURVE",
"695 442 CURVE SMOOTH",
"695 441 OFFCURVE",
"695 440 OFFCURVE",
"696 439 CURVE",
"713 429 OFFCURVE",
"721 414 OFFCURVE",
"721 394 CURVE SMOOTH",
"721 367 OFFCURVE",
"708 341 OFFCURVE",
"682 316 CURVE SMOOTH",
"658 293 OFFCURVE",
"631 280 OFFCURVE",
"603 276 CURVE SMOOTH",
"594 275 OFFCURVE",
"584 275 OFFCURVE",
"574 275 CURVE SMOOTH",
"511 275 OFFCURVE",
"467 298 OFFCURVE",
"444 346 CURVE SMOOTH",
"433 368 OFFCURVE",
"428 390 OFFCURVE",
"428 412 CURVE SMOOTH",
"428 462 OFFCURVE",
"452 502 OFFCURVE",
"501 534 CURVE SMOOTH",
"544 561 OFFCURVE",
"591 575 OFFCURVE",
"644 575 CURVE SMOOTH",
"674 575 OFFCURVE",
"704 571 OFFCURVE",
"734 561 CURVE SMOOTH",
"944 490 LINE",
"879 453 OFFCURVE",
"791 359 OFFCURVE",
"679 209 CURVE SMOOTH",
"533 12 OFFCURVE",
"394 -86 OFFCURVE",
"262 -86 CURVE SMOOTH",
"201 -86 OFFCURVE",
"152 -70 OFFCURVE",
"114 -36 CURVE SMOOTH",
"75 -1 OFFCURVE",
"56 46 OFFCURVE",
"56 106 CURVE SMOOTH",
"56 161 OFFCURVE",
"73 206 OFFCURVE",
"108 241 CURVE SMOOTH",
"143 276 OFFCURVE",
"187 294 OFFCURVE",
"243 294 CURVE SMOOTH",
"279 294 OFFCURVE",
"309 283 OFFCURVE",
"333 262 CURVE SMOOTH",
"358 240 OFFCURVE",
"370 211 OFFCURVE",
"370 175 CURVE SMOOTH",
"370 139 OFFCURVE",
"360 110 OFFCURVE",
"338 89 CURVE SMOOTH",
"316 67 OFFCURVE",
"287 57 OFFCURVE",
"251 57 CURVE SMOOTH",
"232 57 OFFCURVE",
"218 58 OFFCURVE",
"211 62 CURVE",
"210 63 OFFCURVE",
"209 63 OFFCURVE",
"209 63 CURVE",
"206 63 OFFCURVE",
"205 62 OFFCURVE",
"203 59 CURVE",
"204 57 LINE",
"212 51 OFFCURVE",
"229 48 OFFCURVE",
"255 48 CURVE SMOOTH",
"294 48 OFFCURVE",
"326 59 OFFCURVE",
"351 80 CURVE SMOOTH",
"377 103 OFFCURVE",
"390 134 OFFCURVE",
"390 173 CURVE SMOOTH",
"390 213 OFFCURVE",
"374 245 OFFCURVE",
"340 270 CURVE SMOOTH",
"310 293 OFFCURVE",
"274 305 OFFCURVE",
"233 305 CURVE SMOOTH",
"175 305 OFFCURVE",
"126 284 OFFCURVE",
"85 244 CURVE SMOOTH",
"45 204 OFFCURVE",
"24 155 OFFCURVE",
"24 97 CURVE SMOOTH",
"24 34 OFFCURVE",
"46 -16 OFFCURVE",
"90 -55 CURVE SMOOTH",
"132 -91 OFFCURVE",
"185 -109 OFFCURVE",
"248 -109 CURVE SMOOTH"
);
},
{
closed = 1;
nodes = (
"753 288 OFFCURVE",
"788 331 OFFCURVE",
"830 377 CURVE SMOOTH",
"878 429 OFFCURVE",
"920 465 OFFCURVE",
"954 486 CURVE",
"1024 457 LINE",
"966 386 OFFCURVE",
"916 316 OFFCURVE",
"874 247 CURVE",
"724 247 LINE"
);
},
{
closed = 1;
nodes = (
"1072 443 OFFCURVE",
"1059 447 OFFCURVE",
"1047 454 CURVE",
"1066 483 OFFCURVE",
"1076 500 OFFCURVE",
"1076 504 CURVE SMOOTH",
"1076 505 OFFCURVE",
"1075 506 OFFCURVE",
"1074 506 CURVE",
"1031 462 LINE",
"1009 473 OFFCURVE",
"988 484 OFFCURVE",
"967 494 CURVE",
"1000 515 OFFCURVE",
"1037 526 OFFCURVE",
"1079 526 CURVE SMOOTH",
"1094 526 OFFCURVE",
"1107 522 OFFCURVE",
"1118 514 CURVE SMOOTH",
"1130 506 OFFCURVE",
"1136 495 OFFCURVE",
"1136 480 CURVE SMOOTH",
"1136 456 OFFCURVE",
"1119 443 OFFCURVE",
"1085 443 CURVE SMOOTH"
);
}
);
width = 930;
}
);
note = A;
unicode = 0041;
},
{
glyphname = AE;
lastChange = "2021-10-29 07:10:18 +0000";
layers = (
{
anchors = (
{
name = bottom;
position = "{683, 0}";
},
{
name = top;
position = "{1224, 596}";
}
);
layerId = "171CD109-D0B0-4A7B-9E5C-4BA88B29FB0C";
paths = (
{
closed = 1;
nodes = (
"344 -109 OFFCURVE",
"435 -72 OFFCURVE",
"521 4 CURVE SMOOTH",
"576 51 OFFCURVE",
"641 129 OFFCURVE",
"716 236 CURVE",
"867 236 LINE",
"842 192 OFFCURVE",
"830 152 OFFCURVE",
"830 114 CURVE SMOOTH",
"830 55 OFFCURVE",
"852 8 OFFCURVE",
"896 -27 CURVE SMOOTH",
"936 -59 OFFCURVE",
"987 -75 OFFCURVE",
"1048 -75 CURVE SMOOTH",
"1122 -75 OFFCURVE",
"1190 -55 OFFCURVE",
"1252 -17 CURVE SMOOTH",
"1324 28 OFFCURVE",
"1360 85 OFFCURVE",
"1360 154 CURVE SMOOTH",
"1360 185 OFFCURVE",
"1351 210 OFFCURVE",
"1334 229 CURVE SMOOTH",
"1317 248 OFFCURVE",
"1293 257 OFFCURVE",
"1262 257 CURVE SMOOTH",
"1216 257 OFFCURVE",
"1187 240 OFFCURVE",
"1175 205 CURVE SMOOTH",
"1172 197 OFFCURVE",
"1171 191 OFFCURVE",
"1171 187 CURVE SMOOTH",
"1171 176 OFFCURVE",
"1174 170 OFFCURVE",
"1179 170 CURVE SMOOTH",
"1181 170 OFFCURVE",
"1182 176 OFFCURVE",
"1182 187 CURVE SMOOTH",
"1182 204 OFFCURVE",
"1189 219 OFFCURVE",
"1204 230 CURVE SMOOTH",
"1218 240 OFFCURVE",
"1233 245 OFFCURVE",
"1252 245 CURVE SMOOTH",
"1299 245 OFFCURVE",
"1322 217 OFFCURVE",
"1322 162 CURVE SMOOTH",
"1322 99 OFFCURVE",
"1295 46 OFFCURVE",
"1239 2 CURVE SMOOTH",
"1187 -40 OFFCURVE",
"1128 -60 OFFCURVE",
"1064 -60 CURVE SMOOTH",
"1012 -60 OFFCURVE",
"970 -45 OFFCURVE",
"938 -14 CURVE SMOOTH",
"905 18 OFFCURVE",
"888 59 OFFCURVE",
"888 111 CURVE SMOOTH",
"888 143 OFFCURVE",
"895 175 OFFCURVE",
"910 208 CURVE SMOOTH",
"947 292 OFFCURVE",
"1021 345 OFFCURVE",
"1131 364 CURVE",
"1161 342 OFFCURVE",
"1195 331 OFFCURVE",
"1232 331 CURVE SMOOTH",
"1257 331 OFFCURVE",
"1269 338 OFFCURVE",
"1269 352 CURVE SMOOTH",
"1269 372 OFFCURVE",
"1232 382 OFFCURVE",
"1158 382 CURVE SMOOTH",
"1149 382 OFFCURVE",
"1141 382 OFFCURVE",
"1133 381 CURVE",
"1123 395 OFFCURVE",
"1118 409 OFFCURVE",
"1118 425 CURVE",
"1137 425 OFFCURVE",
"1154 429 OFFCURVE",
"1169 438 CURVE SMOOTH",
"1187 449 OFFCURVE",
"1196 463 OFFCURVE",
"1196 482 CURVE SMOOTH",
"1196 504 OFFCURVE",
"1182 521 OFFCURVE",
"1155 534 CURVE",
"1184 568 OFFCURVE",
"1224 586 OFFCURVE",
"1277 586 CURVE SMOOTH",
"1301 586 OFFCURVE",
"1321 580 OFFCURVE",
"1337 570 CURVE SMOOTH",
"1356 557 OFFCURVE",
"1365 539 OFFCURVE",
"1365 517 CURVE SMOOTH",
"1365 497 OFFCURVE",
"1356 481 OFFCURVE",
"1339 468 CURVE SMOOTH",
"1323 455 OFFCURVE",
"1305 449 OFFCURVE",
"1285 449 CURVE SMOOTH",
"1272 449 OFFCURVE",
"1265 456 OFFCURVE",
"1265 468 CURVE SMOOTH",
"1265 470 OFFCURVE",
"1266 472 OFFCURVE",
"1267 475 CURVE SMOOTH",
"1268 477 OFFCURVE",
"1269 479 OFFCURVE",
"1269 480 CURVE SMOOTH",
"1269 483 OFFCURVE",
"1268 484 OFFCURVE",
"1265 484 CURVE SMOOTH",
"1262 484 OFFCURVE",
"1261 482 OFFCURVE",
"1261 478 CURVE",
"1260 475 OFFCURVE",
"1259 472 OFFCURVE",
"1259 469 CURVE SMOOTH",
"1259 459 OFFCURVE",
"1265 451 OFFCURVE",
"1276 445 CURVE SMOOTH",
"1285 440 OFFCURVE",
"1295 438 OFFCURVE",
"1306 438 CURVE SMOOTH",
"1327 438 OFFCURVE",
"1345 446 OFFCURVE",
"1361 462 CURVE SMOOTH",
"1377 478 OFFCURVE",
"1386 497 OFFCURVE",
"1386 518 CURVE SMOOTH",
"1386 571 OFFCURVE",
"1347 597 OFFCURVE",
"1270 597 CURVE SMOOTH",
"1202 597 OFFCURVE",
"1152 578 OFFCURVE",
"1120 541 CURVE",
"1104 541 LINE SMOOTH",
"1045 541 OFFCURVE",
"996 527 OFFCURVE",
"959 498 CURVE",
"935 512 OFFCURVE",
"917 522 OFFCURVE",
"904 528 CURVE SMOOTH",
"809 575 OFFCURVE",
"722 602 OFFCURVE",
"643 609 CURVE SMOOTH",
"636 610 OFFCURVE",
"629 610 OFFCURVE",
"621 610 CURVE SMOOTH",
"562 610 OFFCURVE",
"511 594 OFFCURVE",
"468 561 CURVE SMOOTH",
"420 525 OFFCURVE",
"397 478 OFFCURVE",
"397 421 CURVE SMOOTH",
"397 374 OFFCURVE",
"414 335 OFFCURVE",
"447 304 CURVE SMOOTH",
"479 275 OFFCURVE",
"519 260 OFFCURVE",
"566 260 CURVE SMOOTH",
"586 260 OFFCURVE",
"605 262 OFFCURVE",
"624 267 CURVE SMOOTH",
"654 275 OFFCURVE",
"679 289 OFFCURVE",
"700 310 CURVE SMOOTH",
"723 334 OFFCURVE",
"735 360 OFFCURVE",
"735 388 CURVE SMOOTH",
"735 414 OFFCURVE",
"724 432 OFFCURVE",
"703 443 CURVE",
"700 443 LINE SMOOTH",
"699 443 OFFCURVE",
"698 444 OFFCURVE",
"697 444 CURVE SMOOTH",
"695 444 OFFCURVE",
"695 443 OFFCURVE",
"695 442 CURVE SMOOTH",
"695 441 OFFCURVE",
"695 440 OFFCURVE",
"696 439 CURVE",
"713 429 OFFCURVE",
"721 414 OFFCURVE",
"721 394 CURVE SMOOTH",
"721 367 OFFCURVE",
"708 341 OFFCURVE",
"682 316 CURVE SMOOTH",
"658 293 OFFCURVE",
"631 280 OFFCURVE",
"603 276 CURVE SMOOTH",
"594 275 OFFCURVE",
"584 275 OFFCURVE",
"574 275 CURVE SMOOTH",
"510 275 OFFCURVE",
"467 298 OFFCURVE",
"444 346 CURVE SMOOTH",
"433 369 OFFCURVE",
"428 391 OFFCURVE",
"428 413 CURVE SMOOTH",
"428 464 OFFCURVE",
"452 504 OFFCURVE",
"502 534 CURVE SMOOTH",
"544 560 OFFCURVE",
"592 573 OFFCURVE",
"645 573 CURVE SMOOTH",
"674 573 OFFCURVE",
"704 569 OFFCURVE",
"734 561 CURVE SMOOTH",
"818 537 OFFCURVE",
"888 514 OFFCURVE",
"944 490 CURVE",
"879 453 OFFCURVE",
"791 359 OFFCURVE",
"679 209 CURVE SMOOTH",
"533 12 OFFCURVE",
"394 -86 OFFCURVE",
"262 -86 CURVE SMOOTH",
"201 -86 OFFCURVE",
"152 -70 OFFCURVE",
"114 -36 CURVE SMOOTH",
"75 -1 OFFCURVE",
"56 46 OFFCURVE",
"56 106 CURVE SMOOTH",
"56 161 OFFCURVE",
"73 206 OFFCURVE",
"108 241 CURVE SMOOTH",
"143 276 OFFCURVE",
"188 294 OFFCURVE",
"243 294 CURVE SMOOTH",
"279 294 OFFCURVE",
"309 283 OFFCURVE",
"333 262 CURVE SMOOTH",
"358 240 OFFCURVE",
"370 211 OFFCURVE",
"370 175 CURVE SMOOTH",
"370 139 OFFCURVE",
"360 110 OFFCURVE",
"338 89 CURVE SMOOTH",
"316 67 OFFCURVE",
"287 57 OFFCURVE",
"251 57 CURVE SMOOTH",
"232 57 OFFCURVE",
"218 58 OFFCURVE",
"211 62 CURVE",
"210 63 OFFCURVE",
"209 63 OFFCURVE",
"209 63 CURVE",
"206 63 OFFCURVE",
"205 62 OFFCURVE",
"203 59 CURVE",
"204 57 LINE",
"212 51 OFFCURVE",
"229 48 OFFCURVE",
"255 48 CURVE SMOOTH",
"294 48 OFFCURVE",
"326 59 OFFCURVE",
"351 80 CURVE SMOOTH",
"377 103 OFFCURVE",
"390 134 OFFCURVE",
"390 173 CURVE SMOOTH",
"390 213 OFFCURVE",
"374 245 OFFCURVE",
"340 270 CURVE SMOOTH",
"310 293 OFFCURVE",
"274 305 OFFCURVE",
"233 305 CURVE SMOOTH",
"175 305 OFFCURVE",
"126 284 OFFCURVE",
"85 244 CURVE SMOOTH",
"45 204 OFFCURVE",
"24 155 OFFCURVE",
"24 97 CURVE SMOOTH",
"24 34 OFFCURVE",
"46 -16 OFFCURVE",
"90 -55 CURVE SMOOTH",
"132 -91 OFFCURVE",
"185 -109 OFFCURVE",
"248 -109 CURVE SMOOTH"
);
},
{
closed = 1;
nodes = (
"753 288 OFFCURVE",
"788 331 OFFCURVE",
"830 377 CURVE SMOOTH",
"878 429 OFFCURVE",
"920 465 OFFCURVE",
"954 486 CURVE",
"1002 465 OFFCURVE",
"1031 452 OFFCURVE",
"1043 448 CURVE",
"974 387 OFFCURVE",
"920 320 OFFCURVE",
"875 248 CURVE",
"874 247 LINE",
"724 247 LINE"
);
},
{
closed = 1;
nodes = (
"993 376 OFFCURVE",
"1020 413 OFFCURVE",
"1050 443 CURVE",
"1060 439 OFFCURVE",
"1072 436 OFFCURVE",
"1086 432 CURVE",
"1088 415 OFFCURVE",
"1097 397 OFFCURVE",
"1114 380 CURVE",
"1059 374 OFFCURVE",
"1011 359 OFFCURVE",
"968 335 CURVE"
);
},
{
closed = 1;
nodes = (
"1190 341 OFFCURVE",
"1167 350 OFFCURVE",
"1146 367 CURVE",
"1165 370 OFFCURVE",
"1184 371 OFFCURVE",
"1203 371 CURVE SMOOTH",
"1233 371 OFFCURVE",
"1248 366 OFFCURVE",
"1248 354 CURVE SMOOTH",
"1248 346 OFFCURVE",
"1238 341 OFFCURVE",
"1217 341 CURVE SMOOTH"
);
},
{
closed = 1;
nodes = (
"1094 445 OFFCURVE",
"1041 461 OFFCURVE",
"967 494 CURVE",
"981 503 OFFCURVE",
"1002 511 OFFCURVE",
"1031 518 CURVE SMOOTH",
"1059 526 OFFCURVE",
"1082 530 OFFCURVE",
"1099 530 CURVE SMOOTH",
"1116 530 OFFCURVE",
"1132 526 OFFCURVE",
"1146 519 CURVE SMOOTH",
"1165 510 OFFCURVE",
"1175 499 OFFCURVE",
"1175 484 CURVE SMOOTH",
"1175 458 OFFCURVE",
"1158 445 OFFCURVE",
"1126 445 CURVE SMOOTH"
);
}
);
width = 1366;
}
);
note = AE;
unicode = 00C6;
},
{
glyphname = B;
lastChange = "2021-10-29 07:10:18 +0000";
layers = (
{
layerId = "171CD109-D0B0-4A7B-9E5C-4BA88B29FB0C";
paths = (
{
closed = 1;
nodes = (
"198 -28 OFFCURVE",
"244 -13 OFFCURVE",
"297 16 CURVE",
"357 -4 OFFCURVE",
"415 -13 OFFCURVE",
"470 -13 CURVE SMOOTH",
"515 -13 OFFCURVE",
"558 -7 OFFCURVE",
"597 6 CURVE SMOOTH",
"644 21 OFFCURVE",
"684 44 OFFCURVE",
"715 75 CURVE SMOOTH",
"751 111 OFFCURVE",
"768 152 OFFCURVE",
"768 197 CURVE SMOOTH",
"768 278 OFFCURVE",
"709 318 OFFCURVE",
"591 318 CURVE SMOOTH",
"560 318 LINE",
"610 322 OFFCURVE",
"655 331 OFFCURVE",
"695 345 CURVE SMOOTH",
"750 366 OFFCURVE",
"783 393 OFFCURVE",
"791 428 CURVE SMOOTH",
"794 439 OFFCURVE",
"796 450 OFFCURVE",
"796 462 CURVE SMOOTH",
"796 515 OFFCURVE",
"761 554 OFFCURVE",
"691 577 CURVE",
"718 596 OFFCURVE",
"747 608 OFFCURVE",
"777 611 CURVE SMOOTH",
"788 612 OFFCURVE",
"796 613 OFFCURVE",
"802 613 CURVE SMOOTH",
"804 613 OFFCURVE",
"805 614 OFFCURVE",
"805 616 CURVE SMOOTH",
"805 617 OFFCURVE",
"803 618 OFFCURVE",
"797 618 CURVE SMOOTH",
"760 618 OFFCURVE",
"721 605 OFFCURVE",
"679 581 CURVE",
"632 594 OFFCURVE",
"576 601 OFFCURVE",
"512 601 CURVE SMOOTH",
"432 601 OFFCURVE",
"360 589 OFFCURVE",
"296 564 CURVE SMOOTH",
"218 534 OFFCURVE",
"164 488 OFFCURVE",
"134 428 CURVE SMOOTH",
"120 401 OFFCURVE",
"113 374 OFFCURVE",
"113 346 CURVE SMOOTH",
"113 306 OFFCURVE",
"128 273 OFFCURVE",
"156 247 CURVE SMOOTH",
"183 222 OFFCURVE",
"217 210 OFFCURVE",
"259 210 CURVE SMOOTH",
"303 210 OFFCURVE",
"342 224 OFFCURVE",
"375 252 CURVE SMOOTH",
"410 282 OFFCURVE",
"427 319 OFFCURVE",
"427 363 CURVE SMOOTH",
"427 391 OFFCURVE",
"418 415 OFFCURVE",
"399 434 CURVE SMOOTH",
"381 453 OFFCURVE",
"357 462 OFFCURVE",
"329 462 CURVE SMOOTH",
"307 462 OFFCURVE",
"287 454 OFFCURVE",
"269 439 CURVE SMOOTH",
"250 423 OFFCURVE",
"240 404 OFFCURVE",
"240 383 CURVE SMOOTH",
"240 361 OFFCURVE",
"251 351 OFFCURVE",
"274 351 CURVE SMOOTH",
"281 351 OFFCURVE",
"285 354 OFFCURVE",
"285 361 CURVE SMOOTH",
"285 362 OFFCURVE",
"285 363 OFFCURVE",
"283 364 CURVE",
"281 364 OFFCURVE",
"279 362 OFFCURVE",
"278 361 CURVE SMOOTH",
"277 359 OFFCURVE",
"276 358 OFFCURVE",
"275 358 CURVE SMOOTH",
"257 358 OFFCURVE",
"249 366 OFFCURVE",
"249 382 CURVE SMOOTH",
"249 402 OFFCURVE",
"257 419 OFFCURVE",
"272 432 CURVE SMOOTH",
"287 444 OFFCURVE",
"304 450 OFFCURVE",
"324 450 CURVE SMOOTH",
"350 450 OFFCURVE",
"370 442 OFFCURVE",
"385 424 CURVE SMOOTH",
"399 407 OFFCURVE",
"406 386 OFFCURVE",
"406 360 CURVE SMOOTH",
"406 322 OFFCURVE",
"391 290 OFFCURVE",
"362 262 CURVE SMOOTH",
"333 235 OFFCURVE",
"299 221 OFFCURVE",
"261 221 CURVE SMOOTH",
"227 221 OFFCURVE",
"199 233 OFFCURVE",
"178 256 CURVE SMOOTH",
"157 278 OFFCURVE",
"146 306 OFFCURVE",
"146 341 CURVE SMOOTH",
"146 373 OFFCURVE",
"156 406 OFFCURVE",
"175 438 CURVE SMOOTH",
"206 490 OFFCURVE",
"254 529 OFFCURVE",
"319 555 CURVE SMOOTH",
"374 577 OFFCURVE",
"435 589 OFFCURVE",
"504 589 CURVE SMOOTH",
"567 589 OFFCURVE",
"620 582 OFFCURVE",
"661 570 CURVE",
"588 520 OFFCURVE",
"523 437 OFFCURVE",
"466 320 CURVE SMOOTH",
"441 268 OFFCURVE",
"417 215 OFFCURVE",
"391 164 CURVE SMOOTH",
"359 103 OFFCURVE",
"323 58 OFFCURVE",
"287 28 CURVE",
"213 51 OFFCURVE",
"165 63 OFFCURVE",
"144 63 CURVE SMOOTH",
"101 63 OFFCURVE",
"80 47 OFFCURVE",
"80 15 CURVE SMOOTH",
"80 -13 OFFCURVE",
"106 -28 OFFCURVE",
"157 -28 CURVE SMOOTH"
);
},
{
closed = 1;
nodes = (
"115 -20 OFFCURVE",
"90 -8 OFFCURVE",
"90 14 CURVE SMOOTH",
"90 38 OFFCURVE",
"111 50 OFFCURVE",
"151 50 CURVE SMOOTH",
"178 50 OFFCURVE",
"221 41 OFFCURVE",
"279 21 CURVE",
"243 -6 OFFCURVE",
"205 -20 OFFCURVE",
"164 -20 CURVE SMOOTH"
);
},
{
closed = 1;
nodes = (
"396 1 OFFCURVE",
"353 8 OFFCURVE",
"307 22 CURVE",
"358 53 OFFCURVE",
"401 95 OFFCURVE",
"435 149 CURVE SMOOTH",
"454 180 OFFCURVE",
"480 234 OFFCURVE",
"513 312 CURVE",
"524 313 OFFCURVE",
"536 314 OFFCURVE",
"549 314 CURVE SMOOTH",
"659 314 OFFCURVE",
"714 276 OFFCURVE",
"714 201 CURVE SMOOTH",
"714 138 OFFCURVE",
"682 88 OFFCURVE",
"617 50 CURVE SMOOTH",
"563 17 OFFCURVE",
"502 1 OFFCURVE",
"434 1 CURVE SMOOTH"
);
},
{
closed = 1;
nodes = (
"565 435 OFFCURVE",
"618 516 OFFCURVE",
"676 565 CURVE",
"726 546 OFFCURVE",
"751 513 OFFCURVE",
"751 467 CURVE SMOOTH",
"751 455 OFFCURVE",
"750 443 OFFCURVE",
"747 429 CURVE SMOOTH",
"734 370 OFFCURVE",
"657 334 OFFCURVE",
"516 321 CURVE"
);
}
);
width = 787;
}
);
note = B;
unicode = 0042;
},
{
glyphname = C;
lastChange = "2021-10-29 07:10:48 +0000";
layers = (
{
anchors = (
{
name = bottom;
position = "{233, -41}";
},
{
name = top;
position = "{512, 596}";
}
);
layerId = "171CD109-D0B0-4A7B-9E5C-4BA88B29FB0C";
paths = (
{
closed = 1;
nodes = (
"312 -48 OFFCURVE",
"363 -35 OFFCURVE",
"413 -8 CURVE SMOOTH",
"464 19 OFFCURVE",
"503 54 OFFCURVE",
"530 97 CURVE SMOOTH",
"550 127 OFFCURVE",
"559 158 OFFCURVE",
"559 189 CURVE SMOOTH",
"559 217 OFFCURVE",
"550 240 OFFCURVE",
"532 258 CURVE SMOOTH",
"513 275 OFFCURVE",
"489 284 OFFCURVE",
"460 284 CURVE SMOOTH",
"434 284 OFFCURVE",
"409 277 OFFCURVE",
"387 263 CURVE SMOOTH",
"364 249 OFFCURVE",
"348 230 OFFCURVE",
"339 205 CURVE",
"339 203 OFFCURVE",
"338 201 OFFCURVE",
"338 200 CURVE SMOOTH",
"338 197 OFFCURVE",
"340 195 OFFCURVE",
"342 195 CURVE SMOOTH",
"345 195 OFFCURVE",
"347 198 OFFCURVE",
"349 203 CURVE SMOOTH",
"358 225 OFFCURVE",
"372 242 OFFCURVE",
"392 255 CURVE SMOOTH",
"411 268 OFFCURVE",
"432 275 OFFCURVE",
"455 275 CURVE SMOOTH",
"478 275 OFFCURVE",
"498 267 OFFCURVE",
"513 252 CURVE SMOOTH",
"529 237 OFFCURVE",
"537 218 OFFCURVE",
"537 195 CURVE SMOOTH",
"537 167 OFFCURVE",
"526 138 OFFCURVE",
"505 106 CURVE SMOOTH",
"442 11 OFFCURVE",
"360 -37 OFFCURVE",
"261 -37 CURVE SMOOTH",
"209 -37 OFFCURVE",
"169 -16 OFFCURVE",
"141 27 CURVE SMOOTH",
"116 64 OFFCURVE",
"104 109 OFFCURVE",
"104 163 CURVE SMOOTH",
"104 263 OFFCURVE",
"142 354 OFFCURVE",
"217 438 CURVE",
"282 400 OFFCURVE",
"360 381 OFFCURVE",
"452 381 CURVE SMOOTH",
"486 381 OFFCURVE",
"519 384 OFFCURVE",
"549 390 CURVE SMOOTH",
"583 397 OFFCURVE",
"614 408 OFFCURVE",
"640 424 CURVE SMOOTH",
"677 445 OFFCURVE",
"695 469 OFFCURVE",
"695 497 CURVE SMOOTH",
"695 533 OFFCURVE",
"672 560 OFFCURVE",
"626 577 CURVE SMOOTH",
"593 590 OFFCURVE",
"555 596 OFFCURVE",
"512 596 CURVE SMOOTH",
"381 596 OFFCURVE",
"272 556 OFFCURVE",
"185 475 CURVE",
"157 501 OFFCURVE",
"143 528 OFFCURVE",
"143 556 CURVE SMOOTH",
"143 585 OFFCURVE",
"154 607 OFFCURVE",
"176 622 CURVE SMOOTH",
"195 636 OFFCURVE",
"220 643 OFFCURVE",
"249 643 CURVE SMOOTH",
"279 643 OFFCURVE",
"310 634 OFFCURVE",
"340 616 CURVE SMOOTH",
"343 614 OFFCURVE",
"345 613 OFFCURVE",
"346 613 CURVE SMOOTH",
"347 613 OFFCURVE",
"348 614 OFFCURVE",
"348 616 CURVE SMOOTH",
"348 618 OFFCURVE",
"349 620 OFFCURVE",
"347 622 CURVE SMOOTH",
"346 623 LINE",
"311 645 OFFCURVE",
"275 657 OFFCURVE",
"236 657 CURVE SMOOTH",
"162 657 OFFCURVE",
"124 625 OFFCURVE",
"124 563 CURVE SMOOTH",
"124 528 OFFCURVE",
"141 496 OFFCURVE",
"175 467 CURVE",
"86 380 OFFCURVE",
"41 282 OFFCURVE",
"41 175 CURVE SMOOTH",
"41 106 OFFCURVE",
"61 52 OFFCURVE",
"100 12 CURVE SMOOTH",
"139 -28 OFFCURVE",
"192 -48 OFFCURVE",
"261 -48 CURVE SMOOTH"
);
},
{
closed = 1;
nodes = (
"352 394 OFFCURVE",
"284 412 OFFCURVE",
"225 446 CURVE",
"313 538 OFFCURVE",
"411 584 OFFCURVE",
"520 584 CURVE SMOOTH",
"622 584 OFFCURVE",
"673 557 OFFCURVE",
"673 504 CURVE SMOOTH",
"673 466 OFFCURVE",
"639 437 OFFCURVE",
"573 416 CURVE SMOOTH",
"525 402 OFFCURVE",
"477 394 OFFCURVE",
"428 394 CURVE SMOOTH"
);
}
);
width = 557;
}
);
note = C;
unicode = 0043;
},
{
glyphname = D;
lastChange = "2021-10-29 07:10:48 +0000";
layers = (
{
anchors = (
{
name = bottom;
position = "{389, 0}";
},
{
name = center;
position = "{461, 310}";
},
{
name = top;
position = "{687, 620}";
}
);
layerId = "171CD109-D0B0-4A7B-9E5C-4BA88B29FB0C";
paths = (
{
closed = 1;
nodes = (
"151 -32 OFFCURVE",
"197 -21 OFFCURVE",
"240 2 CURVE",
"284 -15 OFFCURVE",
"338 -23 OFFCURVE",
"400 -23 CURVE SMOOTH",
"503 -23 OFFCURVE",
"589 -2 OFFCURVE",
"658 39 CURVE SMOOTH",
"736 86 OFFCURVE",
"787 156 OFFCURVE",
"809 250 CURVE SMOOTH",
"814 271 OFFCURVE",
"817 292 OFFCURVE",
"817 313 CURVE SMOOTH",
"817 425 OFFCURVE",
"751 508 OFFCURVE",
"618 564 CURVE",
"637 579 OFFCURVE",
"658 589 OFFCURVE",
"679 595 CURVE SMOOTH",
"686 597 OFFCURVE",
"708 601 OFFCURVE",
"745 608 CURVE SMOOTH",
"749 609 OFFCURVE",
"751 609 OFFCURVE",
"752 610 CURVE",
"751 613 OFFCURVE",
"747 614 OFFCURVE",
"741 614 CURVE SMOOTH",
"699 614 OFFCURVE",
"654 599 OFFCURVE",
"608 568 CURVE",
"538 595 OFFCURVE",
"464 609 OFFCURVE",
"384 609 CURVE SMOOTH",
"302 609 OFFCURVE",
"232 596 OFFCURVE",
"173 570 CURVE SMOOTH",
"101 538 OFFCURVE",
"53 488 OFFCURVE",
"28 420 CURVE SMOOTH",
"20 396 OFFCURVE",
"15 372 OFFCURVE",
"15 349 CURVE SMOOTH",
"15 305 OFFCURVE",
"31 268 OFFCURVE",
"64 239 CURVE SMOOTH",
"96 211 OFFCURVE",
"134 198 OFFCURVE",
"179 198 CURVE SMOOTH",
"225 198 OFFCURVE",
"266 211 OFFCURVE",
"302 239 CURVE SMOOTH",
"341 269 OFFCURVE",
"361 307 OFFCURVE",
"361 352 CURVE SMOOTH",
"361 382 OFFCURVE",
"351 407 OFFCURVE",
"331 428 CURVE SMOOTH",
"311 450 OFFCURVE",
"286 461 OFFCURVE",
"255 461 CURVE SMOOTH",
"231 461 OFFCURVE",
"209 453 OFFCURVE",
"190 437 CURVE SMOOTH",
"170 421 OFFCURVE",
"161 400 OFFCURVE",
"161 376 CURVE SMOOTH",
"161 354 OFFCURVE",
"173 343 OFFCURVE",
"197 343 CURVE SMOOTH",
"204 343 OFFCURVE",
"207 345 OFFCURVE",
"207 348 CURVE SMOOTH",
"207 350 OFFCURVE",
"204 351 OFFCURVE",
"198 351 CURVE SMOOTH",
"180 351 OFFCURVE",
"172 359 OFFCURVE",
"172 376 CURVE SMOOTH",
"172 397 OFFCURVE",
"181 415 OFFCURVE",
"198 430 CURVE SMOOTH",
"215 444 OFFCURVE",
"235 451 OFFCURVE",
"256 451 CURVE SMOOTH",
"280 451 OFFCURVE",
"300 443 OFFCURVE",
"319 425 CURVE SMOOTH",
"337 407 OFFCURVE",
"346 387 OFFCURVE",
"346 364 CURVE SMOOTH",
"346 321 OFFCURVE",
"327 284 OFFCURVE",
"289 254 CURVE SMOOTH",
"254 225 OFFCURVE",
"215 210 OFFCURVE",
"171 210 CURVE SMOOTH",
"135 210 OFFCURVE",
"107 222 OFFCURVE",
"86 246 CURVE SMOOTH",
"66 269 OFFCURVE",
"56 299 OFFCURVE",
"56 334 CURVE SMOOTH",
"56 369 OFFCURVE",
"65 404 OFFCURVE",
"84 438 CURVE SMOOTH",
"115 493 OFFCURVE",
"163 534 OFFCURVE",
"227 561 CURVE SMOOTH",
"281 584 OFFCURVE",
"344 595 OFFCURVE",
"414 595 CURVE SMOOTH",
"475 595 OFFCURVE",
"534 582 OFFCURVE",
"591 557 CURVE",
"522 506 OFFCURVE",
"461 425 OFFCURVE",
"408 316 CURVE SMOOTH",
"382 263 OFFCURVE",
"358 209 OFFCURVE",
"331 157 CURVE SMOOTH",
"299 95 OFFCURVE",
"262 50 OFFCURVE",
"224 20 CURVE",
"155 48 OFFCURVE",
"109 62 OFFCURVE",
"85 62 CURVE SMOOTH",
"68 62 OFFCURVE",
"53 59 OFFCURVE",
"39 52 CURVE SMOOTH",
"22 44 OFFCURVE",
"14 33 OFFCURVE",
"14 17 CURVE SMOOTH",
"14 -16 OFFCURVE",
"43 -32 OFFCURVE",
"102 -32 CURVE SMOOTH"
);
},
{
closed = 1;
nodes = (
"56 -24 OFFCURVE",
"32 -13 OFFCURVE",
"32 9 CURVE SMOOTH",
"32 33 OFFCURVE",
"50 45 OFFCURVE",
"87 45 CURVE SMOOTH",
"114 45 OFFCURVE",
"156 34 OFFCURVE",
"213 12 CURVE",
"179 -12 OFFCURVE",
"143 -24 OFFCURVE",
"105 -24 CURVE SMOOTH"
);
},
{
closed = 1;
nodes = (
"339 -15 OFFCURVE",
"295 -7 OFFCURVE",
"252 9 CURVE",
"344 63 OFFCURVE",
"419 169 OFFCURVE",
"476 326 CURVE SMOOTH",
"515 433 OFFCURVE",
"557 508 OFFCURVE",
"603 551 CURVE",
"709 499 OFFCURVE",
"763 418 OFFCURVE",
"763 309 CURVE",
"762 309 LINE",
"762 209 OFFCURVE",
"724 128 OFFCURVE",
"646 68 CURVE SMOOTH",
"574 12 OFFCURVE",
"487 -15 OFFCURVE",
"384 -15 CURVE SMOOTH"
);
}
);
width = 778;
}
);
note = D;
unicode = 0044;
},
{
glyphname = Eth;
lastChange = "2021-10-29 07:10:18 +0000";
layers = (
{
layerId = "171CD109-D0B0-4A7B-9E5C-4BA88B29FB0C";
paths = (
{
closed = 1;
nodes = (
"151 -32 OFFCURVE",
"197 -21 OFFCURVE",
"240 2 CURVE",
"284 -15 OFFCURVE",
"338 -23 OFFCURVE",
"400 -23 CURVE SMOOTH",
"503 -23 OFFCURVE",
"589 -2 OFFCURVE",
"658 39 CURVE SMOOTH",
"736 86 OFFCURVE",
"787 156 OFFCURVE",
"809 250 CURVE SMOOTH",
"814 271 OFFCURVE",
"817 292 OFFCURVE",
"817 313 CURVE SMOOTH",
"817 425 OFFCURVE",
"751 508 OFFCURVE",
"618 564 CURVE",
"637 579 OFFCURVE",
"658 589 OFFCURVE",
"679 595 CURVE SMOOTH",
"686 597 OFFCURVE",
"708 601 OFFCURVE",
"745 608 CURVE SMOOTH",
"749 609 OFFCURVE",
"751 609 OFFCURVE",
"752 610 CURVE",
"751 613 OFFCURVE",
"747 614 OFFCURVE",
"741 614 CURVE SMOOTH",
"699 614 OFFCURVE",
"654 599 OFFCURVE",
"608 568 CURVE",
"538 595 OFFCURVE",
"464 609 OFFCURVE",
"384 609 CURVE SMOOTH",
"302 609 OFFCURVE",
"232 596 OFFCURVE",
"173 570 CURVE SMOOTH",
"101 538 OFFCURVE",
"53 488 OFFCURVE",
"28 420 CURVE SMOOTH",
"20 396 OFFCURVE",
"15 372 OFFCURVE",
"15 349 CURVE SMOOTH",
"15 312 OFFCURVE",
"27 281 OFFCURVE",
"49 254 CURVE SMOOTH",
"71 229 OFFCURVE",
"100 212 OFFCURVE",
"137 203 CURVE",
"142 201 OFFCURVE",
"148 200 OFFCURVE",
"152 200 CURVE SMOOTH",
"161 200 OFFCURVE",
"166 202 OFFCURVE",
"166 206 CURVE SMOOTH",
"166 208 OFFCURVE",
"162 210 OFFCURVE",
"156 211 CURVE SMOOTH",
"89 223 OFFCURVE",
"56 264 OFFCURVE",
"56 334 CURVE SMOOTH",
"56 369 OFFCURVE",
"65 404 OFFCURVE",
"84 438 CURVE SMOOTH",
"115 493 OFFCURVE",
"163 534 OFFCURVE",
"227 561 CURVE SMOOTH",
"281 584 OFFCURVE",
"344 595 OFFCURVE",
"414 595 CURVE SMOOTH",
"475 595 OFFCURVE",
"534 582 OFFCURVE",
"591 557 CURVE",
"522 505 OFFCURVE",
"456 415 OFFCURVE",
"395 287 CURVE",
"341 271 OFFCURVE",
"302 256 OFFCURVE",
"277 244 CURVE SMOOTH",
"270 240 OFFCURVE",
"266 235 OFFCURVE",
"266 229 CURVE SMOOTH",
"266 222 OFFCURVE",
"269 218 OFFCURVE",
"277 218 CURVE SMOOTH",
"275 218 OFFCURVE",
"310 232 OFFCURVE",
"382 260 CURVE",
"354 200 OFFCURVE",
"332 156 OFFCURVE",
"316 130 CURVE SMOOTH",
"288 83 OFFCURVE",
"257 46 OFFCURVE",
"224 20 CURVE",
"155 48 OFFCURVE",
"109 62 OFFCURVE",
"85 62 CURVE SMOOTH",
"68 62 OFFCURVE",
"53 59 OFFCURVE",
"39 52 CURVE SMOOTH",
"22 44 OFFCURVE",
"14 33 OFFCURVE",
"14 17 CURVE SMOOTH",
"14 -16 OFFCURVE",
"43 -32 OFFCURVE",
"102 -32 CURVE SMOOTH"
);
},
{
closed = 1;
nodes = (
"56 -24 OFFCURVE",
"32 -13 OFFCURVE",
"32 9 CURVE SMOOTH",
"32 33 OFFCURVE",
"50 45 OFFCURVE",
"87 45 CURVE SMOOTH",
"114 45 OFFCURVE",
"156 34 OFFCURVE",
"213 12 CURVE",
"179 -12 OFFCURVE",
"143 -24 OFFCURVE",
"105 -24 CURVE SMOOTH"
);
},
{
closed = 1;
nodes = (
"339 -15 OFFCURVE",
"295 -7 OFFCURVE",
"252 9 CURVE",
"337 59 OFFCURVE",
"407 152 OFFCURVE",
"461 286 CURVE",
"509 294 OFFCURVE",
"545 299 OFFCURVE",
"568 301 CURVE SMOOTH",
"575 301 OFFCURVE",
"579 304 OFFCURVE",
"579 308 CURVE SMOOTH",
"579 313 OFFCURVE",
"575 315 OFFCURVE",
"567 315 CURVE SMOOTH",
"537 315 OFFCURVE",
"504 312 OFFCURVE",
"468 305 CURVE",
"492 367 OFFCURVE",
"509 411 OFFCURVE",
"522 436 CURVE SMOOTH",
"546 485 OFFCURVE",
"573 523 OFFCURVE",
"603 551 CURVE",
"709 499 OFFCURVE",
"763 418 OFFCURVE",
"763 309 CURVE",
"762 309 LINE",
"762 209 OFFCURVE",
"724 128 OFFCURVE",
"646 68 CURVE SMOOTH",
"574 12 OFFCURVE",
"487 -15 OFFCURVE",
"384 -15 CURVE SMOOTH"
);
}
);
width = 778;
}
);
note = Eth;
unicode = 00D0;
},
{
glyphname = E;
lastChange = "2021-10-29 07:10:48 +0000";
layers = (
{
anchors = (
{
name = bottom;
position = "{257, -67}";
},
{
name = ogonek;
position = "{537, -12}";
},
{
name = top;
position = "{496, 597}";
},
{
name = topleft;
position = "{20, 620}";
}
);
layerId = "171CD109-D0B0-4A7B-9E5C-4BA88B29FB0C";
paths = (
{
closed = 1;
nodes = (
"362 -75 OFFCURVE",
"430 -55 OFFCURVE",
"492 -17 CURVE SMOOTH",
"563 28 OFFCURVE",
"599 85 OFFCURVE",
"599 154 CURVE SMOOTH",
"599 185 OFFCURVE",
"591 210 OFFCURVE",
"574 229 CURVE SMOOTH",
"556 248 OFFCURVE",
"532 257 OFFCURVE",
"502 257 CURVE SMOOTH",
"457 257 OFFCURVE",
"429 241 OFFCURVE",
"416 209 CURVE SMOOTH",
"412 200 OFFCURVE",
"411 192 OFFCURVE",
"411 187 CURVE SMOOTH",
"411 176 OFFCURVE",
"413 170 OFFCURVE",
"419 170 CURVE SMOOTH",
"421 170 OFFCURVE",
"422 176 OFFCURVE",
"422 187 CURVE SMOOTH",
"422 204 OFFCURVE",
"429 219 OFFCURVE",
"444 230 CURVE SMOOTH",
"457 240 OFFCURVE",
"473 245 OFFCURVE",
"491 245 CURVE SMOOTH",
"538 245 OFFCURVE",
"562 217 OFFCURVE",
"562 162 CURVE SMOOTH",
"562 99 OFFCURVE",
"534 46 OFFCURVE",
"479 2 CURVE SMOOTH",
"426 -40 OFFCURVE",
"368 -60 OFFCURVE",
"304 -60 CURVE SMOOTH",
"252 -60 OFFCURVE",
"210 -45 OFFCURVE",
"177 -13 CURVE SMOOTH",
"144 18 OFFCURVE",
"128 60 OFFCURVE",
"128 111 CURVE SMOOTH",
"128 130 OFFCURVE",
"130 148 OFFCURVE",
"135 165 CURVE SMOOTH",
"164 275 OFFCURVE",
"243 341 OFFCURVE",
"371 364 CURVE",
"400 342 OFFCURVE",
"434 331 OFFCURVE",
"472 331 CURVE SMOOTH",
"496 331 OFFCURVE",
"508 338 OFFCURVE",
"508 352 CURVE SMOOTH",
"508 372 OFFCURVE",
"471 382 OFFCURVE",
"397 382 CURVE SMOOTH",
"389 382 OFFCURVE",
"381 382 OFFCURVE",
"372 381 CURVE",
"362 396 OFFCURVE",
"357 414 OFFCURVE",
"357 436 CURVE SMOOTH",
"357 480 OFFCURVE",
"373 517 OFFCURVE",
"406 545 CURVE SMOOTH",
"437 572 OFFCURVE",
"475 586 OFFCURVE",
"520 586 CURVE SMOOTH",
"543 586 OFFCURVE",
"562 580 OFFCURVE",
"578 569 CURVE SMOOTH",
"596 556 OFFCURVE",
"605 539 OFFCURVE",
"605 517 CURVE SMOOTH",
"605 497 OFFCURVE",
"596 481 OFFCURVE",
"579 468 CURVE SMOOTH",
"563 455 OFFCURVE",
"545 449 OFFCURVE",
"524 449 CURVE SMOOTH",
"511 449 OFFCURVE",
"505 456 OFFCURVE",
"505 468 CURVE SMOOTH",
"505 470 OFFCURVE",
"506 472 OFFCURVE",
"507 475 CURVE SMOOTH",
"508 477 OFFCURVE",
"508 479 OFFCURVE",
"508 480 CURVE SMOOTH",
"508 483 OFFCURVE",
"507 484 OFFCURVE",
"505 484 CURVE SMOOTH",
"502 484 OFFCURVE",
"501 482 OFFCURVE",
"501 478 CURVE",
"499 475 OFFCURVE",
"499 472 OFFCURVE",
"499 469 CURVE SMOOTH",
"499 459 OFFCURVE",
"504 451 OFFCURVE",
"515 445 CURVE SMOOTH",
"525 440 OFFCURVE",
"535 438 OFFCURVE",
"545 438 CURVE SMOOTH",
"566 438 OFFCURVE",
"585 446 OFFCURVE",
"601 462 CURVE SMOOTH",
"617 478 OFFCURVE",
"625 497 OFFCURVE",
"625 518 CURVE SMOOTH",
"625 571 OFFCURVE",
"586 597 OFFCURVE",
"509 597 CURVE SMOOTH",
"462 597 OFFCURVE",
"421 585 OFFCURVE",
"385 561 CURVE SMOOTH",
"344 534 OFFCURVE",
"323 498 OFFCURVE",
"323 454 CURVE SMOOTH",
"323 426 OFFCURVE",
"333 401 OFFCURVE",
"354 380 CURVE",
"287 373 OFFCURVE",
"229 352 OFFCURVE",
"180 316 CURVE SMOOTH",
"128 278 OFFCURVE",
"94 228 OFFCURVE",
"76 166 CURVE SMOOTH",
"72 150 OFFCURVE",
"70 133 OFFCURVE",
"70 115 CURVE SMOOTH",
"70 55 OFFCURVE",
"92 8 OFFCURVE",
"136 -27 CURVE SMOOTH",
"176 -59 OFFCURVE",
"227 -75 OFFCURVE",
"288 -75 CURVE SMOOTH"
);
},
{
closed = 1;
nodes = (
"430 341 OFFCURVE",
"406 350 OFFCURVE",
"386 367 CURVE",
"405 370 OFFCURVE",
"424 371 OFFCURVE",
"443 371 CURVE SMOOTH",
"473 371 OFFCURVE",
"488 366 OFFCURVE",
"488 354 CURVE SMOOTH",
"488 346 OFFCURVE",
"477 341 OFFCURVE",
"457 341 CURVE SMOOTH"
);
}
);
width = 553;
}
);
note = E;
unicode = 0045;
},
{
glyphname = F;
lastChange = "2021-10-29 07:10:18 +0000";
layers = (
{
layerId = "171CD109-D0B0-4A7B-9E5C-4BA88B29FB0C";
paths = (
{
closed = 1;
nodes = (
"178 -35 OFFCURVE",
"182 -34 OFFCURVE",
"186 -34 CURVE SMOOTH",
"243 -30 OFFCURVE",
"291 -20 OFFCURVE",
"332 -3 CURVE SMOOTH",
"373 14 OFFCURVE",
"414 42 OFFCURVE",
"456 79 CURVE",
"456 78 LINE",
"513 128 OFFCURVE",
"561 200 OFFCURVE",
"601 294 CURVE",
"657 294 LINE",
"659 295 LINE",
"659 301 LINE",
"657 303 LINE",
"604 303 LINE",
"640 394 OFFCURVE",
"678 460 OFFCURVE",
"717 501 CURVE",
"748 490 OFFCURVE",
"775 484 OFFCURVE",
"796 484 CURVE SMOOTH",
"836 484 OFFCURVE",
"856 496 OFFCURVE",
"856 518 CURVE SMOOTH",
"856 540 OFFCURVE",
"841 552 OFFCURVE",
"811 552 CURVE SMOOTH",
"780 552 OFFCURVE",
"746 539 OFFCURVE",
"710 514 CURVE",
"630 543 OFFCURVE",
"581 560 OFFCURVE",
"564 564 CURVE SMOOTH",
"508 581 OFFCURVE",
"458 589 OFFCURVE",
"413 589 CURVE SMOOTH",
"349 589 OFFCURVE",
"293 573 OFFCURVE",
"243 540 CURVE SMOOTH",
"217 523 OFFCURVE",
"197 498 OFFCURVE",
"181 463 CURVE SMOOTH",
"166 431 OFFCURVE",
"158 398 OFFCURVE",
"158 366 CURVE SMOOTH",
"158 354 OFFCURVE",
"159 343 OFFCURVE",
"162 332 CURVE",
"113 322 OFFCURVE",
"73 299 OFFCURVE",
"40 263 CURVE SMOOTH",
"7 225 OFFCURVE",
"-10 182 OFFCURVE",
"-10 133 CURVE SMOOTH",
"-10 85 OFFCURVE",
"9 45 OFFCURVE",
"47 12 CURVE SMOOTH",
"83 -19 OFFCURVE",
"126 -35 OFFCURVE",
"174 -35 CURVE SMOOTH"
);
},
{
closed = 1;
nodes = (
"254 246 OFFCURVE",
"235 254 OFFCURVE",
"219 271 CURVE SMOOTH",
"205 287 OFFCURVE",
"195 305 OFFCURVE",
"191 327 CURVE",
"197 328 OFFCURVE",
"203 328 OFFCURVE",
"209 328 CURVE SMOOTH",
"233 328 OFFCURVE",
"255 321 OFFCURVE",
"274 308 CURVE SMOOTH",
"294 294 OFFCURVE",
"306 276 OFFCURVE",
"312 253 CURVE",
"299 248 OFFCURVE",
"286 246 OFFCURVE",
"274 246 CURVE SMOOTH"
);
},
{
closed = 1;
nodes = (
"139 -20 OFFCURVE",
"101 -9 OFFCURVE",
"72 13 CURVE SMOOTH",
"39 37 OFFCURVE",
"23 72 OFFCURVE",
"23 118 CURVE SMOOTH",
"23 162 OFFCURVE",
"36 203 OFFCURVE",
"63 241 CURVE SMOOTH",
"89 278 OFFCURVE",
"123 304 OFFCURVE",
"165 320 CURVE",
"172 295 OFFCURVE",
"185 275 OFFCURVE",
"204 260 CURVE SMOOTH",
"223 244 OFFCURVE",
"246 237 OFFCURVE",
"271 237 CURVE SMOOTH",
"285 237 OFFCURVE",
"299 239 OFFCURVE",
"314 244 CURVE",
"314 238 OFFCURVE",
"315 232 OFFCURVE",
"315 227 CURVE SMOOTH",
"315 217 OFFCURVE",
"314 206 OFFCURVE",
"311 195 CURVE SMOOTH",
"300 146 OFFCURVE",
"269 114 OFFCURVE",
"218 102 CURVE SMOOTH",
"204 98 OFFCURVE",
"193 97 OFFCURVE",
"186 96 CURVE SMOOTH",
"179 95 OFFCURVE",
"176 92 OFFCURVE",
"176 88 CURVE SMOOTH",
"176 85 OFFCURVE",
"178 83 OFFCURVE",
"182 83 CURVE SMOOTH",
"221 83 OFFCURVE",
"254 97 OFFCURVE",
"282 123 CURVE SMOOTH",
"311 151 OFFCURVE",
"326 183 OFFCURVE",
"326 221 CURVE SMOOTH",
"326 230 OFFCURVE",
"325 239 OFFCURVE",
"323 247 CURVE",
"383 271 OFFCURVE",
"421 316 OFFCURVE",
"436 382 CURVE",
"436 385 OFFCURVE",
"437 388 OFFCURVE",
"437 389 CURVE SMOOTH",
"437 392 OFFCURVE",
"435 393 OFFCURVE",
"433 393 CURVE SMOOTH",
"430 393 OFFCURVE",
"429 391 OFFCURVE",
"429 387 CURVE SMOOTH",
"429 362 OFFCURVE",
"417 336 OFFCURVE",
"392 309 CURVE SMOOTH",
"371 285 OFFCURVE",
"347 267 OFFCURVE",
"321 256 CURVE",
"307 310 OFFCURVE",
"268 337 OFFCURVE",
"205 337 CURVE SMOOTH",
"200 337 OFFCURVE",
"195 336 OFFCURVE",
"189 336 CURVE",
"188 343 OFFCURVE",
"188 350 OFFCURVE",
"188 357 CURVE SMOOTH",
"188 416 OFFCURVE",
"209 466 OFFCURVE",
"251 507 CURVE SMOOTH",
"288 542 OFFCURVE",
"344 560 OFFCURVE",
"419 560 CURVE SMOOTH",
"493 560 OFFCURVE",
"586 542 OFFCURVE",
"699 506 CURVE",
"656 474 OFFCURVE",
"603 406 OFFCURVE",
"539 303 CURVE",
"445 303 LINE",
"444 301 LINE",
"444 295 LINE",
"445 294 LINE",
"534 294 LINE",
"505 245 OFFCURVE",
"483 209 OFFCURVE",
"468 184 CURVE SMOOTH",
"434 128 OFFCURVE",
"395 82 OFFCURVE",
"351 46 CURVE SMOOTH",
"297 2 OFFCURVE",
"242 -20 OFFCURVE",
"187 -20 CURVE SMOOTH"
);
},
{
closed = 1;
nodes = (
"780 492 OFFCURVE",
"756 498 OFFCURVE",
"725 509 CURVE",
"751 534 OFFCURVE",
"779 546 OFFCURVE",
"808 546 CURVE SMOOTH",
"834 546 OFFCURVE",
"847 537 OFFCURVE",
"847 518 CURVE SMOOTH",
"847 501 OFFCURVE",
"830 492 OFFCURVE",
"797 492 CURVE SMOOTH"
);
}
);
width = 597;
}
);
note = F;
unicode = 0046;
},
{
glyphname = G;
lastChange = "2021-10-29 07:10:48 +0000";
layers = (
{
anchors = (
{
name = bottom;
position = "{253, -300}";
},
{
name = top;
position = "{650, 656}";
}
);
layerId = "171CD109-D0B0-4A7B-9E5C-4BA88B29FB0C";
paths = (
{
closed = 1;
nodes = (
"341 -307 OFFCURVE",
"421 -264 OFFCURVE",
"484 -178 CURVE SMOOTH",
"509 -144 OFFCURVE",
"533 -91 OFFCURVE",
"558 -17 CURVE",
"583 -20 OFFCURVE",
"604 -28 OFFCURVE",
"620 -41 CURVE SMOOTH",
"627 -46 OFFCURVE",
"631 -48 OFFCURVE",
"634 -48 CURVE SMOOTH",
"637 -48 OFFCURVE",
"639 -46 OFFCURVE",
"639 -41 CURVE SMOOTH",
"639 -20 OFFCURVE",
"613 -7 OFFCURVE",
"563 -2 CURVE",
"587 72 LINE",
"641 103 OFFCURVE",
"681 138 OFFCURVE",
"709 176 CURVE SMOOTH",
"757 240 OFFCURVE",
"780 289 OFFCURVE",
"780 324 CURVE SMOOTH",
"780 350 OFFCURVE",
"768 363 OFFCURVE",
"745 363 CURVE SMOOTH",
"716 363 OFFCURVE",
"675 319 OFFCURVE",
"623 232 CURVE SMOOTH",
"604 202 OFFCURVE",
"574 144 OFFCURVE",
"531 59 CURVE",
"483 40 OFFCURVE",
"432 30 OFFCURVE",
"377 30 CURVE SMOOTH",
"260 30 OFFCURVE",
"201 81 OFFCURVE",
"201 184 CURVE SMOOTH",
"201 232 OFFCURVE",
"214 284 OFFCURVE",
"239 341 CURVE SMOOTH",
"261 393 OFFCURVE",
"290 439 OFFCURVE",
"324 478 CURVE",
"381 448 OFFCURVE",
"449 433 OFFCURVE",
"528 433 CURVE SMOOTH",
"633 433 OFFCURVE",
"712 456 OFFCURVE",
"766 501 CURVE SMOOTH",
"785 516 OFFCURVE",
"796 531 OFFCURVE",
"801 547 CURVE SMOOTH",
"804 558 OFFCURVE",
"805 568 OFFCURVE",
"805 577 CURVE SMOOTH",
"805 630 OFFCURVE",
"749 657 OFFCURVE",
"636 657 CURVE SMOOTH",
"501 657 OFFCURVE",
"386 610 OFFCURVE",
"289 517 CURVE",
"262 541 OFFCURVE",
"249 567 OFFCURVE",
"249 595 CURVE SMOOTH",
"249 615 OFFCURVE",
"255 634 OFFCURVE",
"267 652 CURVE SMOOTH",
"281 673 OFFCURVE",
"315 684 OFFCURVE",
"369 684 CURVE SMOOTH",
"396 684 OFFCURVE",
"421 680 OFFCURVE",
"441 672 CURVE SMOOTH",
"450 669 OFFCURVE",
"456 668 OFFCURVE",
"460 668 CURVE SMOOTH",
"465 668 OFFCURVE",
"468 669 OFFCURVE",
"468 673 CURVE SMOOTH",
"468 676 OFFCURVE",
"466 678 OFFCURVE",
"462 678 CURVE",
"439 691 OFFCURVE",
"410 697 OFFCURVE",
"373 697 CURVE SMOOTH",
"314 697 OFFCURVE",
"274 685 OFFCURVE",
"254 663 CURVE SMOOTH",
"235 643 OFFCURVE",
"226 621 OFFCURVE",
"226 599 CURVE SMOOTH",
"226 567 OFFCURVE",
"244 536 OFFCURVE",
"280 507 CURVE",
"196 423 OFFCURVE",
"154 329 OFFCURVE",
"154 226 CURVE SMOOTH",
"154 158 OFFCURVE",
"174 106 OFFCURVE",
"215 67 CURVE SMOOTH",
"255 30 OFFCURVE",
"309 11 OFFCURVE",
"377 11 CURVE SMOOTH",
"424 11 OFFCURVE",
"471 21 OFFCURVE",
"521 40 CURVE",
"499 -3 LINE",
"410 -11 OFFCURVE",
"330 -42 OFFCURVE",
"257 -93 CURVE SMOOTH",
"190 -141 OFFCURVE",
"156 -192 OFFCURVE",
"156 -245 CURVE SMOOTH",
"156 -287 OFFCURVE",
"186 -307 OFFCURVE",
"245 -307 CURVE SMOOTH"
);
},
{
closed = 1;
nodes = (
"221 -292 OFFCURVE",
"206 -287 OFFCURVE",
"194 -277 CURVE SMOOTH",
"182 -267 OFFCURVE",
"176 -252 OFFCURVE",
"176 -235 CURVE SMOOTH",
"176 -193 OFFCURVE",
"206 -150 OFFCURVE",
"268 -105 CURVE SMOOTH",
"332 -58 OFFCURVE",
"406 -30 OFFCURVE",
"491 -19 CURVE",
"460 -79 OFFCURVE",
"437 -121 OFFCURVE",
"422 -144 CURVE SMOOTH",
"356 -243 OFFCURVE",
"295 -292 OFFCURVE",
"239 -292 CURVE SMOOTH"
);
},
{
closed = 1;
nodes = (
"635 225 OFFCURVE",
"679 307 OFFCURVE",
"724 338 CURVE SMOOTH",
"731 342 OFFCURVE",
"736 345 OFFCURVE",
"741 345 CURVE SMOOTH",
"752 345 OFFCURVE",
"758 335 OFFCURVE",
"758 316 CURVE SMOOTH",
"758 277 OFFCURVE",
"739 235 OFFCURVE",
"700 188 CURVE SMOOTH",
"669 149 OFFCURVE",
"633 117 OFFCURVE",
"593 91 CURVE"
);
},
{
closed = 1;
nodes = (
"451 442 OFFCURVE",
"385 457 OFFCURVE",
"332 486 CURVE",
"376 536 OFFCURVE",
"429 575 OFFCURVE",
"490 602 CURVE SMOOTH",
"551 630 OFFCURVE",
"615 644 OFFCURVE",
"681 644 CURVE SMOOTH",
"749 644 OFFCURVE",
"784 618 OFFCURVE",
"784 567 CURVE SMOOTH",
"784 563 OFFCURVE",
"784 559 OFFCURVE",
"783 555 CURVE SMOOTH",
"780 529 OFFCURVE",
"759 506 OFFCURVE",
"720 485 CURVE SMOOTH",
"692 470 OFFCURVE",
"661 459 OFFCURVE",
"626 452 CURVE SMOOTH",
"596 445 OFFCURVE",
"563 442 OFFCURVE",
"529 442 CURVE SMOOTH"
);
}
);
width = 713;
}
);
note = G;
unicode = 0047;
},
{
glyphname = H;
lastChange = "2021-10-29 07:10:48 +0000";
layers = (
{
anchors = (
{
name = bottom;
position = "{637, 0}";
},
{
name = center;
position = "{513, 310}";
},
{
name = top;
position = "{1109, 620}";
},
{
name = topleft;
position = "{20, 620}";
}
);
layerId = "171CD109-D0B0-4A7B-9E5C-4BA88B29FB0C";
paths = (
{
closed = 1;
nodes = (
"266 -32 LINE SMOOTH",
"385 -32 OFFCURVE",
"483 12 OFFCURVE",
"560 74 CURVE SMOOTH",
"623 126 OFFCURVE",
"674 203 OFFCURVE",
"715 308 CURVE",
"955 308 LINE",
"896 209 OFFCURVE",
"866 125 OFFCURVE",
"866 56 CURVE SMOOTH",
"866 7 OFFCURVE",
"881 -17 OFFCURVE",
"910 -17 CURVE SMOOTH",
"919 -17 OFFCURVE",
"930 -15 OFFCURVE",
"942 -9 CURVE SMOOTH",
"965 1 OFFCURVE",
"987 16 OFFCURVE",
"1007 38 CURVE SMOOTH",
"1019 49 OFFCURVE",
"1035 70 OFFCURVE",
"1058 101 CURVE SMOOTH",
"1060 103 OFFCURVE",
"1060 105 OFFCURVE",
"1060 107 CURVE SMOOTH",
"1060 109 OFFCURVE",
"1060 110 OFFCURVE",
"1058 111 CURVE",
"1053 110 OFFCURVE",
"1049 98 OFFCURVE",
"1049 103 CURVE SMOOTH",
"1049 104 LINE",
"1014 52 OFFCURVE",
"977 17 OFFCURVE",
"937 1 CURVE SMOOTH",
"933 -1 OFFCURVE",
"928 -3 OFFCURVE",
"924 -3 CURVE SMOOTH",
"913 -3 OFFCURVE",
"907 7 OFFCURVE",
"907 26 CURVE SMOOTH",
"907 66 OFFCURVE",
"929 134 OFFCURVE",
"974 230 CURVE SMOOTH",
"1020 327 OFFCURVE",
"1070 411 OFFCURVE",
"1124 483 CURVE SMOOTH",
"1186 566 OFFCURVE",
"1237 607 OFFCURVE",
"1277 607 CURVE SMOOTH",
"1304 607 OFFCURVE",
"1317 592 OFFCURVE",
"1317 562 CURVE SMOOTH",
"1317 544 OFFCURVE",
"1310 525 OFFCURVE",
"1297 503 CURVE",
"1293 500 OFFCURVE",
"1292 498 OFFCURVE",
"1292 495 CURVE SMOOTH",
"1292 494 OFFCURVE",
"1292 493 OFFCURVE",
"1293 493 CURVE SMOOTH",
"1300 493 OFFCURVE",
"1304 505 OFFCURVE",
"1304 500 CURVE SMOOTH",
"1304 499 LINE",
"1318 521 OFFCURVE",
"1325 541 OFFCURVE",
"1325 561 CURVE SMOOTH",
"1325 576 OFFCURVE",
"1320 589 OFFCURVE",
"1312 599 CURVE SMOOTH",
"1303 610 OFFCURVE",
"1291 615 OFFCURVE",
"1276 615 CURVE SMOOTH",
"1272 615 LINE SMOOTH",
"1215 615 OFFCURVE",
"1139 554 OFFCURVE",
"1045 437 CURVE SMOOTH",
"1016 401 OFFCURVE",
"988 361 OFFCURVE",
"962 319 CURVE",
"719 319 LINE",
"765 440 OFFCURVE",
"823 526 OFFCURVE",
"893 577 CURVE",
"946 561 OFFCURVE",
"987 553 OFFCURVE",
"1017 553 CURVE SMOOTH",
"1035 553 OFFCURVE",
"1052 556 OFFCURVE",
"1067 561 CURVE SMOOTH",
"1088 568 OFFCURVE",
"1099 579 OFFCURVE",
"1099 593 CURVE SMOOTH",
"1099 621 OFFCURVE",
"1073 634 OFFCURVE",
"1020 634 CURVE SMOOTH",
"976 634 OFFCURVE",
"931 620 OFFCURVE",
"886 592 CURVE",
"804 618 OFFCURVE",
"751 634 OFFCURVE",
"725 641 CURVE SMOOTH",
"663 657 OFFCURVE",
"608 665 OFFCURVE",
"559 665 CURVE SMOOTH",
"494 665 OFFCURVE",
"438 651 OFFCURVE",
"389 624 CURVE SMOOTH",
"362 608 OFFCURVE",
"340 586 OFFCURVE",
"323 557 CURVE SMOOTH",
"306 528 OFFCURVE",
"298 498 OFFCURVE",
"298 467 CURVE SMOOTH",
"298 421 OFFCURVE",
"315 383 OFFCURVE",
"350 352 CURVE SMOOTH",
"383 323 OFFCURVE",
"423 308 OFFCURVE",
"469 308 CURVE SMOOTH",
"517 308 OFFCURVE",
"559 323 OFFCURVE",
"595 353 CURVE SMOOTH",
"632 385 OFFCURVE",
"651 424 OFFCURVE",
"651 472 CURVE SMOOTH",
"651 481 OFFCURVE",
"649 486 OFFCURVE",
"645 486 CURVE SMOOTH",
"642 486 OFFCURVE",
"640 481 OFFCURVE",
"639 473 CURVE SMOOTH",
"637 429 OFFCURVE",
"620 392 OFFCURVE",
"588 363 CURVE SMOOTH",
"556 333 OFFCURVE",
"517 319 OFFCURVE",
"473 319 CURVE SMOOTH",
"433 319 OFFCURVE",
"400 332 OFFCURVE",
"374 357 CURVE SMOOTH",
"349 383 OFFCURVE",
"336 416 OFFCURVE",
"336 457 CURVE SMOOTH",
"336 518 OFFCURVE",
"361 567 OFFCURVE",
"411 607 CURVE SMOOTH",
"451 638 OFFCURVE",
"502 654 OFFCURVE",
"563 654 CURVE SMOOTH",
"606 654 OFFCURVE",
"658 646 OFFCURVE",
"719 629 CURVE",
"720 629 OFFCURVE",
"771 614 OFFCURVE",
"872 583 CURVE",
"802 535 OFFCURVE",
"737 460 OFFCURVE",
"676 357 CURVE SMOOTH",
"604 233 OFFCURVE",
"546 149 OFFCURVE",
"505 104 CURVE SMOOTH",
"426 21 OFFCURVE",
"337 -20 OFFCURVE",
"238 -20 CURVE SMOOTH",
"180 -20 OFFCURVE",
"133 -3 OFFCURVE",
"95 31 CURVE SMOOTH",
"56 67 OFFCURVE",
"37 113 OFFCURVE",
"37 171 CURVE SMOOTH",
"37 221 OFFCURVE",
"52 263 OFFCURVE",
"82 296 CURVE SMOOTH",
"113 330 OFFCURVE",
"153 347 OFFCURVE",
"203 347 CURVE SMOOTH",
"241 347 OFFCURVE",
"273 338 OFFCURVE",
"298 320 CURVE SMOOTH",
"327 299 OFFCURVE",
"342 271 OFFCURVE",
"342 234 CURVE SMOOTH",
"342 207 OFFCURVE",
"332 182 OFFCURVE",
"313 161 CURVE SMOOTH",
"294 138 OFFCURVE",
"270 127 OFFCURVE",
"243 127 CURVE SMOOTH",
"236 127 OFFCURVE",
"227 129 OFFCURVE",
"216 132 CURVE SMOOTH",
"205 136 OFFCURVE",
"200 137 OFFCURVE",
"200 137 CURVE",
"198 137 OFFCURVE",
"196 136 OFFCURVE",
"195 135 CURVE SMOOTH",
"194 133 OFFCURVE",
"194 133 OFFCURVE",
"194 132 CURVE SMOOTH",
"194 124 OFFCURVE",
"210 120 OFFCURVE",
"241 120 CURVE SMOOTH",
"273 120 OFFCURVE",
"300 131 OFFCURVE",
"321 153 CURVE SMOOTH",
"343 175 OFFCURVE",
"354 201 OFFCURVE",
"354 233 CURVE SMOOTH",
"354 268 OFFCURVE",
"340 298 OFFCURVE",
"313 321 CURVE SMOOTH",
"287 344 OFFCURVE",
"256 355 OFFCURVE",
"220 355 CURVE SMOOTH",
"159 355 OFFCURVE",
"112 339 OFFCURVE",
"77 306 CURVE SMOOTH",
"41 273 OFFCURVE",
"24 227 OFFCURVE",
"24 167 CURVE SMOOTH",
"24 105 OFFCURVE",
"47 56 OFFCURVE",
"93 19 CURVE SMOOTH",
"135 -15 OFFCURVE",
"188 -32 OFFCURVE",
"251 -32 CURVE SMOOTH"
);
},
{
closed = 1;
nodes = (
"995 562 OFFCURVE",
"957 570 OFFCURVE",
"906 586 CURVE",
"945 611 OFFCURVE",
"986 623 OFFCURVE",
"1030 623 CURVE SMOOTH",
"1069 623 OFFCURVE",
"1088 613 OFFCURVE",
"1088 593 CURVE SMOOTH",
"1088 583 OFFCURVE",
"1079 575 OFFCURVE",
"1059 569 CURVE SMOOTH",
"1045 564 OFFCURVE",
"1031 562 OFFCURVE",
"1018 562 CURVE SMOOTH"
);
}
);
width = 1026;
}
);
note = H;
unicode = 0048;
},
{
glyphname = I;
lastChange = "2021-10-29 07:10:48 +0000";
layers = (
{
anchors = (
{
name = bottom;
position = "{152, -39}";
},
{
name = ogonek;
position = "{280, -38}";
},
{
name = top;
position = "{826, 620}";
},
{
name = topleft;
position = "{20, 620}";
}
);
layerId = "171CD109-D0B0-4A7B-9E5C-4BA88B29FB0C";
paths = (
{
closed = 1;
nodes = (
"226 -47 OFFCURVE",
"237 -46 OFFCURVE",
"249 -44 CURVE SMOOTH",
"434 -12 OFFCURVE",
"553 99 OFFCURVE",
"606 288 CURVE",
"636 298 OFFCURVE",
"661 315 OFFCURVE",
"683 339 CURVE SMOOTH",
"707 365 OFFCURVE",
"719 393 OFFCURVE",
"719 422 CURVE SMOOTH",
"719 445 OFFCURVE",
"710 464 OFFCURVE",
"692 479 CURVE",
"723 526 OFFCURVE",
"762 563 OFFCURVE",
"807 592 CURVE SMOOTH",
"818 599 OFFCURVE",
"825 604 OFFCURVE",
"828 605 CURVE SMOOTH",
"837 609 OFFCURVE",
"847 611 OFFCURVE",
"858 611 CURVE SMOOTH",
"862 611 LINE",
"863 613 LINE",
"838 621 OFFCURVE",
"803 624 OFFCURVE",
"756 624 CURVE SMOOTH",
"663 624 OFFCURVE",
"582 611 OFFCURVE",
"512 584 CURVE SMOOTH",
"415 547 OFFCURVE",
"366 490 OFFCURVE",
"366 413 CURVE SMOOTH",
"366 370 OFFCURVE",
"382 336 OFFCURVE",
"413 311 CURVE SMOOTH",
"441 287 OFFCURVE",
"477 275 OFFCURVE",
"521 275 CURVE SMOOTH",
"528 275 OFFCURVE",
"535 275 OFFCURVE",
"543 276 CURVE",
"513 193 OFFCURVE",
"478 129 OFFCURVE",
"438 83 CURVE SMOOTH",
"389 27 OFFCURVE",
"327 -10 OFFCURVE",
"252 -30 CURVE SMOOTH",
"241 -33 OFFCURVE",
"227 -34 OFFCURVE",
"211 -34 CURVE SMOOTH",
"166 -34 OFFCURVE",
"130 -23 OFFCURVE",
"103 -2 CURVE SMOOTH",
"73 22 OFFCURVE",
"59 55 OFFCURVE",
"59 99 CURVE SMOOTH",
"59 163 OFFCURVE",
"79 218 OFFCURVE",
"121 263 CURVE SMOOTH",
"163 309 OFFCURVE",
"216 332 OFFCURVE",
"280 332 CURVE SMOOTH",
"308 332 OFFCURVE",
"331 324 OFFCURVE",
"348 308 CURVE SMOOTH",
"365 293 OFFCURVE",
"374 270 OFFCURVE",
"374 242 CURVE SMOOTH",
"374 206 OFFCURVE",
"361 177 OFFCURVE",
"335 153 CURVE SMOOTH",
"309 129 OFFCURVE",
"279 118 OFFCURVE",
"243 118 CURVE SMOOTH",
"225 118 OFFCURVE",
"210 123 OFFCURVE",
"197 133 CURVE SMOOTH",
"184 144 OFFCURVE",
"178 158 OFFCURVE",
"178 176 CURVE SMOOTH",
"178 184 OFFCURVE",
"180 192 OFFCURVE",
"183 201 CURVE SMOOTH",
"187 211 OFFCURVE",
"189 217 OFFCURVE",
"189 220 CURVE SMOOTH",
"189 222 OFFCURVE",
"188 222 OFFCURVE",
"186 223 CURVE",
"181 223 OFFCURVE",
"178 205 OFFCURVE",
"178 212 CURVE SMOOTH",
"178 213 LINE",
"172 199 OFFCURVE",
"169 186 OFFCURVE",
"169 174 CURVE SMOOTH",
"169 155 OFFCURVE",
"176 139 OFFCURVE",
"189 127 CURVE SMOOTH",
"202 116 OFFCURVE",
"219 110 OFFCURVE",
"238 110 CURVE SMOOTH",
"278 110 OFFCURVE",
"313 122 OFFCURVE",
"343 144 CURVE SMOOTH",
"376 168 OFFCURVE",
"393 200 OFFCURVE",
"393 238 CURVE SMOOTH",
"393 271 OFFCURVE",
"380 297 OFFCURVE",
"356 316 CURVE SMOOTH",
"334 333 OFFCURVE",
"306 342 OFFCURVE",
"272 342 CURVE SMOOTH",
"208 342 OFFCURVE",
"152 321 OFFCURVE",
"104 280 CURVE SMOOTH",
"54 237 OFFCURVE",
"29 184 OFFCURVE",
"29 120 CURVE SMOOTH",
"29 71 OFFCURVE",
"48 31 OFFCURVE",
"86 -2 CURVE SMOOTH",
"122 -32 OFFCURVE",
"165 -47 OFFCURVE",
"215 -47 CURVE SMOOTH"
);
},
{
closed = 1;
nodes = (
"630 367 OFFCURVE",
"656 424 OFFCURVE",
"687 471 CURVE",
"702 459 OFFCURVE",
"709 443 OFFCURVE",
"709 423 CURVE SMOOTH",
"709 397 OFFCURVE",
"699 372 OFFCURVE",
"677 348 CURVE SMOOTH",
"659 328 OFFCURVE",
"637 312 OFFCURVE",
"610 300 CURVE"
);
},
{
closed = 1;
nodes = (
"504 285 OFFCURVE",
"473 293 OFFCURVE",
"447 312 CURVE SMOOTH",
"419 333 OFFCURVE",
"405 361 OFFCURVE",
"405 396 CURVE SMOOTH",
"405 418 OFFCURVE",
"410 440 OFFCURVE",
"420 463 CURVE SMOOTH",
"443 515 OFFCURVE",
"490 555 OFFCURVE",
"563 582 CURVE SMOOTH",
"621 604 OFFCURVE",
"684 614 OFFCURVE",
"752 614 CURVE SMOOTH",
"760 614 OFFCURVE",
"771 614 OFFCURVE",
"786 612 CURVE SMOOTH",
"801 611 OFFCURVE",
"812 611 OFFCURVE",
"820 611 CURVE SMOOTH",
"822 611 LINE",
"769 594 OFFCURVE",
"717 555 OFFCURVE",
"665 494 CURVE",
"653 498 OFFCURVE",
"642 500 OFFCURVE",
"629 500 CURVE SMOOTH",
"608 500 OFFCURVE",
"587 493 OFFCURVE",
"569 480 CURVE SMOOTH",
"548 465 OFFCURVE",
"538 447 OFFCURVE",
"538 426 CURVE SMOOTH",
"538 415 OFFCURVE",
"543 406 OFFCURVE",
"553 401 CURVE",
"555 401 OFFCURVE",
"556 402 OFFCURVE",
"556 403 CURVE SMOOTH",
"556 405 OFFCURVE",
"555 408 OFFCURVE",
"552 412 CURVE SMOOTH",
"549 416 OFFCURVE",
"548 421 OFFCURVE",
"548 427 CURVE SMOOTH",
"548 445 OFFCURVE",
"557 460 OFFCURVE",
"577 473 CURVE SMOOTH",
"594 483 OFFCURVE",
"613 489 OFFCURVE",
"632 489 CURVE SMOOTH",
"641 489 OFFCURVE",
"649 488 OFFCURVE",
"658 486 CURVE",
"611 429 OFFCURVE",
"573 362 OFFCURVE",
"546 285 CURVE",
"539 285 LINE SMOOTH"
);
}
);
width = 589;
}
);
note = I;
unicode = 0049;
},
{
glyphname = J;
lastChange = "2021-10-29 07:10:48 +0000";
layers = (
{
anchors = (
{
name = bottom;
position = "{307, 0}";
},
{
name = top;
position = "{759, 620}";
}
);
layerId = "171CD109-D0B0-4A7B-9E5C-4BA88B29FB0C";
paths = (
{
closed = 1;
nodes = (
"210 -230 OFFCURVE",
"223 -228 OFFCURVE",
"236 -226 CURVE SMOOTH",
"339 -203 OFFCURVE",
"427 -130 OFFCURVE",
"501 -7 CURVE SMOOTH",
"549 73 OFFCURVE",
"594 184 OFFCURVE",
"636 324 CURVE SMOOTH",
"669 436 OFFCURVE",
"721 520 OFFCURVE",
"792 576 CURVE SMOOTH",
"809 590 OFFCURVE",
"820 596 OFFCURVE",
"826 597 CURVE",
"824 599 OFFCURVE",
"807 600 OFFCURVE",
"775 600 CURVE SMOOTH",
"693 600 OFFCURVE",
"623 589 OFFCURVE",
"564 568 CURVE SMOOTH",
"483 538 OFFCURVE",
"436 490 OFFCURVE",
"423 425 CURVE SMOOTH",
"422 419 OFFCURVE",
"421 412 OFFCURVE",
"421 404 CURVE SMOOTH",
"421 382 OFFCURVE",
"427 365 OFFCURVE",
"440 351 CURVE SMOOTH",
"453 336 OFFCURVE",
"470 329 OFFCURVE",
"492 329 CURVE SMOOTH",
"516 329 OFFCURVE",
"536 338 OFFCURVE",
"552 357 CURVE SMOOTH",
"567 375 OFFCURVE",
"574 396 OFFCURVE",
"574 421 CURVE SMOOTH",
"574 430 OFFCURVE",
"573 434 OFFCURVE",
"570 434 CURVE SMOOTH",
"569 434 OFFCURVE",
"568 434 OFFCURVE",
"567 432 CURVE",
"567 431 OFFCURVE",
"567 429 OFFCURVE",
"568 426 CURVE",
"568 418 LINE SMOOTH",
"568 415 OFFCURVE",
"567 409 OFFCURVE",
"564 401 CURVE SMOOTH",
"551 359 OFFCURVE",
"528 338 OFFCURVE",
"496 338 CURVE SMOOTH",
"479 338 OFFCURVE",
"466 344 OFFCURVE",
"456 355 CURVE SMOOTH",
"446 366 OFFCURVE",
"441 380 OFFCURVE",
"441 396 CURVE SMOOTH",
"441 405 OFFCURVE",
"442 414 OFFCURVE",
"445 424 CURVE SMOOTH",
"466 490 OFFCURVE",
"514 536 OFFCURVE",
"588 561 CURVE SMOOTH",
"639 579 OFFCURVE",
"708 588 OFFCURVE",
"795 588 CURVE",
"747 566 OFFCURVE",
"701 526 OFFCURVE",
"657 466 CURVE SMOOTH",
"619 414 OFFCURVE",
"590 359 OFFCURVE",
"569 300 CURVE SMOOTH",
"522 167 OFFCURVE",
"487 76 OFFCURVE",
"464 27 CURVE SMOOTH",
"410 -84 OFFCURVE",
"352 -158 OFFCURVE",
"287 -192 CURVE SMOOTH",
"268 -202 OFFCURVE",
"245 -210 OFFCURVE",
"218 -214 CURVE",
"207 -214 LINE SMOOTH",
"185 -214 OFFCURVE",
"162 -209 OFFCURVE",
"137 -198 CURVE SMOOTH",
"66 -165 OFFCURVE",
"30 -109 OFFCURVE",
"30 -29 CURVE SMOOTH",
"30 23 OFFCURVE",
"45 68 OFFCURVE",
"76 103 CURVE SMOOTH",
"109 141 OFFCURVE",
"151 159 OFFCURVE",
"203 159 CURVE SMOOTH",
"237 159 OFFCURVE",
"264 149 OFFCURVE",
"284 127 CURVE SMOOTH",
"304 106 OFFCURVE",
"313 78 OFFCURVE",
"313 44 CURVE SMOOTH",
"313 10 OFFCURVE",
"303 -20 OFFCURVE",
"282 -46 CURVE SMOOTH",
"260 -74 OFFCURVE",
"233 -88 OFFCURVE",
"199 -88 CURVE SMOOTH",
"178 -88 OFFCURVE",
"161 -81 OFFCURVE",
"146 -68 CURVE SMOOTH",
"130 -54 OFFCURVE",
"123 -37 OFFCURVE",
"123 -17 CURVE SMOOTH",
"123 -7 OFFCURVE",
"125 2 OFFCURVE",
"129 11 CURVE SMOOTH",
"131 15 OFFCURVE",
"135 20 OFFCURVE",
"141 26 CURVE SMOOTH",
"147 31 OFFCURVE",
"150 34 OFFCURVE",
"150 35 CURVE SMOOTH",
"150 37 OFFCURVE",
"149 38 OFFCURVE",
"146 38 CURVE SMOOTH",
"135 38 OFFCURVE",
"126 31 OFFCURVE",
"119 17 CURVE SMOOTH",
"112 5 OFFCURVE",
"109 -7 OFFCURVE",
"109 -18 CURVE SMOOTH",
"109 -43 OFFCURVE",
"120 -63 OFFCURVE",
"143 -77 CURVE SMOOTH",
"162 -89 OFFCURVE",
"185 -95 OFFCURVE",
"211 -95 CURVE SMOOTH",
"242 -95 OFFCURVE",
"272 -82 OFFCURVE",
"299 -57 CURVE SMOOTH",
"327 -31 OFFCURVE",
"341 -2 OFFCURVE",
"341 29 CURVE SMOOTH",
"341 71 OFFCURVE",
"329 105 OFFCURVE",
"305 130 CURVE SMOOTH",
"280 155 OFFCURVE",
"247 168 OFFCURVE",
"205 168 CURVE SMOOTH",
"150 168 OFFCURVE",
"102 147 OFFCURVE",
"60 106 CURVE SMOOTH",
"19 66 OFFCURVE",
"-2 18 OFFCURVE",
"-2 -37 CURVE SMOOTH",
"-2 -90 OFFCURVE",
"18 -136 OFFCURVE",
"57 -174 CURVE SMOOTH",
"96 -211 OFFCURVE",
"142 -230 OFFCURVE",
"195 -230 CURVE SMOOTH"
);
}
);
width = 613;
}
);
note = J;
unicode = 004A;
},
{
glyphname = K;
lastChange = "2021-10-29 07:10:18 +0000";
layers = (
{
anchors = (
{
name = bottom;
position = "{549, 0}";
},
{
name = top;
position = "{909, 620}";
}
);
layerId = "171CD109-D0B0-4A7B-9E5C-4BA88B29FB0C";
paths = (
{
closed = 1;
nodes = (
"227 -55 OFFCURVE",
"248 -53 OFFCURVE",
"268 -48 CURVE SMOOTH",
"356 -27 OFFCURVE",
"424 25 OFFCURVE",
"473 107 CURVE SMOOTH",
"497 147 OFFCURVE",
"529 229 OFFCURVE",
"570 353 CURVE SMOOTH",
"599 441 OFFCURVE",
"645 513 OFFCURVE",
"710 568 CURVE SMOOTH",
"728 584 OFFCURVE",
"744 595 OFFCURVE",
"757 602 CURVE",
"756 602 LINE",
"756 603 LINE",
"739 603 LINE SMOOTH",
"661 603 OFFCURVE",
"584 594 OFFCURVE",
"510 570 CURVE SMOOTH",
"410 537 OFFCURVE",
"360 490 OFFCURVE",
"360 428 CURVE SMOOTH",
"360 408 OFFCURVE",
"367 392 OFFCURVE",
"380 380 CURVE SMOOTH",
"393 368 OFFCURVE",
"410 362 OFFCURVE",
"430 362 CURVE SMOOTH",
"453 362 OFFCURVE",
"473 371 OFFCURVE",
"489 387 CURVE SMOOTH",
"506 403 OFFCURVE",
"514 423 OFFCURVE",
"514 446 CURVE SMOOTH",
"514 454 OFFCURVE",
"512 459 OFFCURVE",
"509 459 CURVE",
"508 458 OFFCURVE",
"507 458 OFFCURVE",
"507 457 CURVE SMOOTH",
"507 451 LINE",
"508 448 OFFCURVE",
"508 446 OFFCURVE",
"508 444 CURVE SMOOTH",
"508 441 OFFCURVE",
"507 436 OFFCURVE",
"504 428 CURVE SMOOTH",
"491 390 OFFCURVE",
"468 371 OFFCURVE",
"436 371 CURVE SMOOTH",
"420 371 OFFCURVE",
"407 376 OFFCURVE",
"396 386 CURVE SMOOTH",
"386 396 OFFCURVE",
"381 409 OFFCURVE",
"381 425 CURVE SMOOTH",
"381 433 OFFCURVE",
"382 441 OFFCURVE",
"385 449 CURVE SMOOTH",
"402 500 OFFCURVE",
"451 539 OFFCURVE",
"533 565 CURVE SMOOTH",
"593 585 OFFCURVE",
"659 594 OFFCURVE",
"730 595 CURVE",
"682 575 OFFCURVE",
"638 539 OFFCURVE",
"596 487 CURVE SMOOTH",
"560 443 OFFCURVE",
"530 393 OFFCURVE",
"509 336 CURVE SMOOTH",
"489 284 OFFCURVE",
"472 231 OFFCURVE",
"454 179 CURVE SMOOTH",
"430 114 OFFCURVE",
"404 66 OFFCURVE",
"376 32 CURVE SMOOTH",
"339 -12 OFFCURVE",
"292 -39 OFFCURVE",
"234 -47 CURVE",
"220 -47 LINE SMOOTH",
"172 -47 OFFCURVE",
"131 -35 OFFCURVE",
"97 -9 CURVE SMOOTH",
"59 19 OFFCURVE",
"40 56 OFFCURVE",
"40 102 CURVE SMOOTH",
"40 155 OFFCURVE",
"56 200 OFFCURVE",
"89 238 CURVE SMOOTH",
"124 278 OFFCURVE",
"167 298 OFFCURVE",
"218 298 CURVE SMOOTH",
"251 298 OFFCURVE",
"278 288 OFFCURVE",
"298 270 CURVE SMOOTH",
"319 251 OFFCURVE",
"329 225 OFFCURVE",
"329 193 CURVE SMOOTH",
"329 160 OFFCURVE",
"318 132 OFFCURVE",
"296 109 CURVE SMOOTH",
"274 85 OFFCURVE",
"246 73 OFFCURVE",
"214 73 CURVE SMOOTH",
"194 73 OFFCURVE",
"177 79 OFFCURVE",
"162 90 CURVE SMOOTH",
"146 102 OFFCURVE",
"138 118 OFFCURVE",
"138 137 CURVE SMOOTH",
"138 146 OFFCURVE",
"141 155 OFFCURVE",
"145 163 CURVE SMOOTH",
"146 166 OFFCURVE",
"151 170 OFFCURVE",
"157 176 CURVE SMOOTH",
"163 181 OFFCURVE",
"166 184 OFFCURVE",
"166 185 CURVE SMOOTH",
"166 187 OFFCURVE",
"165 188 OFFCURVE",
"162 188 CURVE SMOOTH",
"152 188 OFFCURVE",
"142 182 OFFCURVE",
"135 169 CURVE SMOOTH",
"128 158 OFFCURVE",
"124 146 OFFCURVE",
"124 136 CURVE SMOOTH",
"124 113 OFFCURVE",
"136 94 OFFCURVE",
"160 82 CURVE SMOOTH",
"179 71 OFFCURVE",
"201 66 OFFCURVE",
"226 66 CURVE SMOOTH",
"258 66 OFFCURVE",
"287 77 OFFCURVE",
"314 99 CURVE SMOOTH",
"342 122 OFFCURVE",
"357 149 OFFCURVE",
"357 179 CURVE SMOOTH",
"357 219 OFFCURVE",
"344 251 OFFCURVE",
"318 273 CURVE SMOOTH",
"293 295 OFFCURVE",
"260 305 OFFCURVE",
"220 305 CURVE SMOOTH",
"165 305 OFFCURVE",
"118 288 OFFCURVE",
"77 252 CURVE SMOOTH",
"35 215 OFFCURVE",
"13 170 OFFCURVE",
"13 116 CURVE SMOOTH",
"13 65 OFFCURVE",
"33 23 OFFCURVE",
"72 -9 CURVE SMOOTH",
"109 -40 OFFCURVE",
"154 -55 OFFCURVE",
"206 -55 CURVE SMOOTH"
);
},
{
closed = 1;
nodes = (
"583 240 OFFCURVE",
"575 241 OFFCURVE",
"573 241 CURVE",
"565 243 OFFCURVE",
"561 249 OFFCURVE",
"561 258 CURVE SMOOTH",
"561 271 OFFCURVE",
"567 277 OFFCURVE",
"580 277 CURVE SMOOTH",
"593 277 OFFCURVE",
"605 265 OFFCURVE",
"617 241 CURVE",
"611 240 OFFCURVE",
"607 240 OFFCURVE",
"603 240 CURVE SMOOTH",
"599 240 LINE SMOOTH"
);
},
{
closed = 1;
nodes = (
"971 -119 OFFCURVE",
"1005 -99 OFFCURVE",
"1022 -60 CURVE SMOOTH",
"1026 -49 OFFCURVE",
"1029 -39 OFFCURVE",
"1029 -30 CURVE SMOOTH",
"1029 -24 OFFCURVE",
"1025 -21 OFFCURVE",
"1018 -21 CURVE SMOOTH",
"1016 -21 OFFCURVE",
"1014 -23 OFFCURVE",
"1014 -25 CURVE SMOOTH",
"1007 -72 OFFCURVE",
"983 -96 OFFCURVE",
"943 -96 CURVE SMOOTH",
"932 -96 OFFCURVE",
"919 -93 OFFCURVE",
"907 -89 CURVE SMOOTH",
"869 -75 OFFCURVE",
"820 -27 OFFCURVE",
"765 57 CURVE SMOOTH",
"725 117 OFFCURVE",
"687 179 OFFCURVE",
"649 240 CURVE",
"687 255 OFFCURVE",
"733 286 OFFCURVE",
"785 335 CURVE SMOOTH",
"827 373 OFFCURVE",
"867 413 OFFCURVE",
"909 451 CURVE SMOOTH",
"941 481 OFFCURVE",
"977 506 OFFCURVE",
"1014 530 CURVE SMOOTH",
"1064 562 OFFCURVE",
"1103 578 OFFCURVE",
"1131 578 CURVE SMOOTH",
"1143 578 OFFCURVE",
"1151 575 OFFCURVE",
"1157 568 CURVE SMOOTH",
"1158 567 OFFCURVE",
"1160 566 OFFCURVE",
"1162 566 CURVE SMOOTH",
"1167 566 OFFCURVE",
"1169 568 OFFCURVE",
"1169 572 CURVE SMOOTH",
"1169 580 OFFCURVE",
"1163 587 OFFCURVE",
"1151 592 CURVE SMOOTH",
"1141 596 OFFCURVE",
"1132 598 OFFCURVE",
"1123 598 CURVE SMOOTH",
"1072 598 OFFCURVE",
"999 559 OFFCURVE",
"905 480 CURVE SMOOTH",
"882 460 OFFCURVE",
"848 429 OFFCURVE",
"804 386 CURVE SMOOTH",
"725 311 OFFCURVE",
"671 265 OFFCURVE",
"641 250 CURVE",
"620 279 OFFCURVE",
"599 294 OFFCURVE",
"578 294 CURVE SMOOTH",
"569 294 OFFCURVE",
"561 290 OFFCURVE",
"555 283 CURVE SMOOTH",
"549 275 OFFCURVE",
"546 267 OFFCURVE",
"546 257 CURVE SMOOTH",
"546 248 OFFCURVE",
"551 240 OFFCURVE",
"562 235 CURVE SMOOTH",
"570 230 OFFCURVE",
"580 228 OFFCURVE",
"590 228 CURVE SMOOTH",
"600 228 OFFCURVE",
"610 229 OFFCURVE",
"621 232 CURVE",
"643 182 OFFCURVE",
"664 133 OFFCURVE",
"687 84 CURVE SMOOTH",
"716 22 OFFCURVE",
"747 -24 OFFCURVE",
"779 -56 CURVE SMOOTH",
"820 -98 OFFCURVE",
"867 -119 OFFCURVE",
"919 -119 CURVE SMOOTH"
);
}
);
width = 836;
}
);
note = K;
unicode = 004B;
},
{
glyphname = L;
lastChange = "2021-10-29 07:10:48 +0000";
layers = (
{
anchors = (
{
name = bottom;
position = "{349, -55}";
},
{
name = center;
position = "{287, 310}";
},
{
name = top;
position = "{708, 588}";
},
{
name = topright;
position = "{866, 582}";
}
);
layerId = "171CD109-D0B0-4A7B-9E5C-4BA88B29FB0C";
paths = (
{
closed = 1;
nodes = (
"536 -65 OFFCURVE",
"588 -35 OFFCURVE",
"588 24 CURVE SMOOTH",
"588 27 LINE SMOOTH",
"588 31 OFFCURVE",
"587 34 OFFCURVE",
"584 34 CURVE SMOOTH",
"581 34 OFFCURVE",
"580 32 OFFCURVE",
"580 28 CURVE SMOOTH",
"580 0 OFFCURVE",
"566 -22 OFFCURVE",
"538 -37 CURVE SMOOTH",
"515 -49 OFFCURVE",
"489 -55 OFFCURVE",
"458 -55 CURVE SMOOTH",
"400 -55 OFFCURVE",
"341 -33 OFFCURVE",
"279 11 CURVE",
"332 41 OFFCURVE",
"377 80 OFFCURVE",
"413 126 CURVE SMOOTH",
"444 165 OFFCURVE",
"473 216 OFFCURVE",
"501 280 CURVE",
"542 285 OFFCURVE",
"578 295 OFFCURVE",
"610 310 CURVE SMOOTH",
"639 324 OFFCURVE",
"666 340 OFFCURVE",
"692 360 CURVE SMOOTH",
"722 383 OFFCURVE",
"749 408 OFFCURVE",
"772 436 CURVE SMOOTH",
"802 473 OFFCURVE",
"818 505 OFFCURVE",
"818 532 CURVE SMOOTH",
"818 550 OFFCURVE",
"810 564 OFFCURVE",
"795 574 CURVE SMOOTH",
"781 583 OFFCURVE",
"765 587 OFFCURVE",
"746 587 CURVE SMOOTH",
"691 587 OFFCURVE",
"629 550 OFFCURVE",
"561 475 CURVE SMOOTH",
"515 424 OFFCURVE",
"470 362 OFFCURVE",
"428 288 CURVE",
"375 291 OFFCURVE",
"326 304 OFFCURVE",
"283 328 CURVE SMOOTH",
"230 357 OFFCURVE",
"203 396 OFFCURVE",
"203 444 CURVE SMOOTH",
"203 478 OFFCURVE",
"215 508 OFFCURVE",
"239 536 CURVE SMOOTH",
"264 565 OFFCURVE",
"293 579 OFFCURVE",
"326 579 CURVE SMOOTH",
"367 579 OFFCURVE",
"393 562 OFFCURVE",
"405 528 CURVE SMOOTH",
"407 520 OFFCURVE",
"409 515 OFFCURVE",
"409 512 CURVE SMOOTH",
"409 501 OFFCURVE",
"410 496 OFFCURVE",
"413 496 CURVE SMOOTH",
"419 496 OFFCURVE",
"422 501 OFFCURVE",
"422 510 CURVE SMOOTH",
"422 535 OFFCURVE",
"411 554 OFFCURVE",
"391 569 CURVE SMOOTH",
"372 582 OFFCURVE",
"350 588 OFFCURVE",
"325 588 CURVE SMOOTH",
"285 588 OFFCURVE",
"251 574 OFFCURVE",
"223 546 CURVE SMOOTH",
"195 518 OFFCURVE",
"181 484 OFFCURVE",
"181 444 CURVE SMOOTH",
"181 392 OFFCURVE",
"210 351 OFFCURVE",
"267 320 CURVE SMOOTH",
"312 295 OFFCURVE",
"363 281 OFFCURVE",
"422 277 CURVE",
"398 233 OFFCURVE",
"374 189 OFFCURVE",
"349 145 CURVE SMOOTH",
"318 93 OFFCURVE",
"286 54 OFFCURVE",
"255 29 CURVE",
"242 39 OFFCURVE",
"223 55 OFFCURVE",
"199 78 CURVE SMOOTH",
"150 122 OFFCURVE",
"98 143 OFFCURVE",
"43 143 CURVE SMOOTH",
"20 143 OFFCURVE",
"0 137 OFFCURVE",
"-17 124 CURVE SMOOTH",
"-35 110 OFFCURVE",
"-44 92 OFFCURVE",
"-44 69 CURVE SMOOTH",
"-44 36 OFFCURVE",
"-23 10 OFFCURVE",
"20 -11 CURVE SMOOTH",
"55 -27 OFFCURVE",
"91 -35 OFFCURVE",
"128 -35 CURVE SMOOTH",
"167 -35 OFFCURVE",
"207 -25 OFFCURVE",
"248 -6 CURVE",
"316 -45 OFFCURVE",
"384 -65 OFFCURVE",
"452 -65 CURVE SMOOTH"
);
},
{
closed = 1;
nodes = (
"110 -22 OFFCURVE",
"101 -22 OFFCURVE",
"92 -21 CURVE SMOOTH",
"64 -18 OFFCURVE",
"37 -8 OFFCURVE",
"12 9 CURVE SMOOTH",
"-17 29 OFFCURVE",
"-32 53 OFFCURVE",
"-32 79 CURVE SMOOTH",
"-32 106 OFFCURVE",
"-17 120 OFFCURVE",
"13 120 CURVE SMOOTH",
"36 120 OFFCURVE",
"72 105 OFFCURVE",
"122 74 CURVE SMOOTH",
"157 53 OFFCURVE",
"191 30 OFFCURVE",
"226 7 CURVE",
"193 -13 OFFCURVE",
"157 -22 OFFCURVE",
"118 -22 CURVE SMOOTH"
);
},
{
closed = 1;
nodes = (
"518 318 LINE SMOOTH",
"566 427 OFFCURVE",
"628 504 OFFCURVE",
"707 545 CURVE SMOOTH",
"732 558 OFFCURVE",
"753 564 OFFCURVE",
"771 564 CURVE SMOOTH",
"793 564 OFFCURVE",
"804 553 OFFCURVE",
"804 532 CURVE SMOOTH",
"804 507 OFFCURVE",
"789 475 OFFCURVE",
"758 438 CURVE SMOOTH",
"734 408 OFFCURVE",
"708 383 OFFCURVE",
"680 362 CURVE SMOOTH",
"655 343 OFFCURVE",
"629 329 OFFCURVE",
"603 318 CURVE SMOOTH",
"572 306 OFFCURVE",
"540 298 OFFCURVE",
"507 293 CURVE"
);
}
);
width = 573;
}
);
note = L;
unicode = 004C;
},
{
glyphname = M;
lastChange = "2021-10-29 07:10:18 +0000";
layers = (
{
layerId = "171CD109-D0B0-4A7B-9E5C-4BA88B29FB0C";
paths = (
{
closed = 1;
nodes = (
"407 -57 OFFCURVE",
"555 46 OFFCURVE",
"704 252 CURVE SMOOTH",
"785 364 OFFCURVE",
"864 444 OFFCURVE",
"940 490 CURVE",
"967 478 LINE",
"945 451 OFFCURVE",
"919 412 OFFCURVE",
"891 361 CURVE SMOOTH",
"868 319 OFFCURVE",
"846 277 OFFCURVE",
"824 234 CURVE SMOOTH",
"806 198 OFFCURVE",
"789 162 OFFCURVE",
"771 125 CURVE SMOOTH",
"744 71 OFFCURVE",
"724 39 OFFCURVE",
"712 30 CURVE SMOOTH",
"702 23 OFFCURVE",
"692 17 OFFCURVE",
"683 12 CURVE SMOOTH",
"661 2 OFFCURVE",
"650 -4 OFFCURVE",
"650 -5 CURVE",
"651 -6 LINE",
"660 -8 OFFCURVE",
"669 -9 OFFCURVE",
"678 -9 CURVE SMOOTH",
"732 -9 OFFCURVE",
"795 23 OFFCURVE",
"866 86 CURVE SMOOTH",
"894 111 OFFCURVE",
"945 164 OFFCURVE",
"1019 245 CURVE SMOOTH",
"1163 405 OFFCURVE",
"1288 510 OFFCURVE",
"1395 562 CURVE SMOOTH",
"1443 585 OFFCURVE",
"1487 597 OFFCURVE",
"1527 597 CURVE SMOOTH",
"1560 597 OFFCURVE",
"1577 585 OFFCURVE",
"1577 561 CURVE SMOOTH",
"1577 548 OFFCURVE",
"1572 537 OFFCURVE",
"1564 528 CURVE SMOOTH",
"1556 518 OFFCURVE",
"1551 513 OFFCURVE",
"1551 513 CURVE",
"1551 511 OFFCURVE",
"1553 510 OFFCURVE",
"1556 510 CURVE SMOOTH",
"1565 510 OFFCURVE",
"1573 518 OFFCURVE",
"1582 533 CURVE SMOOTH",
"1589 547 OFFCURVE",
"1593 560 OFFCURVE",
"1593 570 CURVE SMOOTH",
"1593 607 OFFCURVE",
"1561 625 OFFCURVE",
"1498 625 CURVE SMOOTH",
"1378 625 OFFCURVE",
"1218 507 OFFCURVE",
"1020 272 CURVE SMOOTH",
"916 149 OFFCURVE",
"827 66 OFFCURVE",
"752 24 CURVE",
"795 57 OFFCURVE",
"836 122 OFFCURVE",
"871 220 CURVE SMOOTH",
"882 253 OFFCURVE",
"889 277 OFFCURVE",
"894 294 CURVE SMOOTH",
"917 371 OFFCURVE",
"945 430 OFFCURVE",
"979 473 CURVE",
"1027 453 OFFCURVE",
"1060 443 OFFCURVE",
"1077 443 CURVE SMOOTH",
"1104 443 OFFCURVE",
"1117 455 OFFCURVE",
"1117 479 CURVE SMOOTH",
"1117 515 OFFCURVE",
"1090 533 OFFCURVE",
"1034 533 CURVE SMOOTH",
"1003 533 OFFCURVE",
"970 522 OFFCURVE",
"935 500 CURVE",
"866 534 OFFCURVE",
"798 569 OFFCURVE",
"729 601 CURVE SMOOTH",
"648 639 OFFCURVE",
"574 656 OFFCURVE",
"509 656 CURVE SMOOTH",
"457 656 OFFCURVE",
"403 647 OFFCURVE",
"349 628 CURVE SMOOTH",
"296 611 OFFCURVE",
"254 578 OFFCURVE",
"220 529 CURVE SMOOTH",
"187 482 OFFCURVE",
"171 430 OFFCURVE",
"171 375 CURVE SMOOTH",
"171 355 OFFCURVE",
"173 336 OFFCURVE",
"178 318 CURVE",
"140 303 OFFCURVE",
"109 278 OFFCURVE",
"86 242 CURVE SMOOTH",
"63 206 OFFCURVE",
"52 168 OFFCURVE",
"52 126 CURVE SMOOTH",
"52 69 OFFCURVE",
"73 24 OFFCURVE",
"115 -10 CURVE SMOOTH",
"153 -41 OFFCURVE",
"202 -57 OFFCURVE",
"261 -57 CURVE SMOOTH"
);
},
{
closed = 1;
nodes = (
"328 197 OFFCURVE",
"294 208 OFFCURVE",
"265 228 CURVE SMOOTH",
"234 249 OFFCURVE",
"213 277 OFFCURVE",
"202 311 CURVE",
"216 315 OFFCURVE",
"231 317 OFFCURVE",
"247 317 CURVE SMOOTH",
"262 317 OFFCURVE",
"278 315 OFFCURVE",
"293 312 CURVE SMOOTH",
"315 307 OFFCURVE",
"334 294 OFFCURVE",
"348 273 CURVE SMOOTH",
"360 253 OFFCURVE",
"367 231 OFFCURVE",
"367 207 CURVE SMOOTH",
"367 202 OFFCURVE",
"367 198 OFFCURVE",
"366 194 CURVE"
);
},
{
closed = 1;
nodes = (
"221 -46 OFFCURVE",
"183 -36 OFFCURVE",
"148 -17 CURVE SMOOTH",
"110 5 OFFCURVE",
"86 35 OFFCURVE",
"76 72 CURVE SMOOTH",
"70 92 OFFCURVE",
"68 111 OFFCURVE",
"68 131 CURVE SMOOTH",
"68 171 OFFCURVE",
"78 206 OFFCURVE",
"97 237 CURVE SMOOTH",
"118 269 OFFCURVE",
"146 292 OFFCURVE",
"182 305 CURVE",
"207 232 OFFCURVE",
"268 191 OFFCURVE",
"364 183 CURVE",
"350 124 OFFCURVE",
"316 88 OFFCURVE",
"261 76 CURVE SMOOTH",
"247 73 OFFCURVE",
"236 72 OFFCURVE",
"228 72 CURVE SMOOTH",
"214 72 OFFCURVE",
"207 70 OFFCURVE",
"207 68 CURVE SMOOTH",
"207 64 OFFCURVE",
"215 62 OFFCURVE",
"230 62 CURVE SMOOTH",
"267 62 OFFCURVE",
"300 74 OFFCURVE",
"330 95 CURVE SMOOTH",
"362 119 OFFCURVE",
"381 147 OFFCURVE",
"386 182 CURVE",
"447 181 OFFCURVE",
"500 198 OFFCURVE",
"546 233 CURVE SMOOTH",
"597 270 OFFCURVE",
"623 318 OFFCURVE",
"623 377 CURVE SMOOTH",
"623 418 OFFCURVE",
"607 453 OFFCURVE",
"577 482 CURVE SMOOTH",
"547 511 OFFCURVE",
"511 525 OFFCURVE",
"469 525 CURVE SMOOTH",
"435 525 OFFCURVE",
"404 515 OFFCURVE",
"378 493 CURVE SMOOTH",
"349 470 OFFCURVE",
"335 442 OFFCURVE",
"335 409 CURVE SMOOTH",
"335 379 OFFCURVE",
"348 357 OFFCURVE",
"374 340 CURVE SMOOTH",
"379 337 OFFCURVE",
"383 335 OFFCURVE",
"385 335 CURVE SMOOTH",
"386 335 OFFCURVE",
"387 336 OFFCURVE",
"387 336 CURVE",
"387 342 OFFCURVE",
"385 345 OFFCURVE",
"380 346 CURVE",
"380 347 LINE",
"357 359 OFFCURVE",
"345 379 OFFCURVE",
"345 405 CURVE SMOOTH",
"345 435 OFFCURVE",
"358 460 OFFCURVE",
"384 482 CURVE SMOOTH",
"409 501 OFFCURVE",
"437 511 OFFCURVE",
"467 511 CURVE SMOOTH",
"506 511 OFFCURVE",
"539 498 OFFCURVE",
"565 470 CURVE SMOOTH",
"592 443 OFFCURVE",
"606 410 OFFCURVE",
"606 371 CURVE SMOOTH",
"606 319 OFFCURVE",
"582 276 OFFCURVE",
"534 241 CURVE SMOOTH",
"490 210 OFFCURVE",
"442 194 OFFCURVE",
"387 193 CURVE",
"389 224 OFFCURVE",
"380 253 OFFCURVE",
"361 279 CURVE SMOOTH",
"342 305 OFFCURVE",
"317 321 OFFCURVE",
"286 327 CURVE SMOOTH",
"273 329 OFFCURVE",
"260 331 OFFCURVE",
"246 331 CURVE SMOOTH",
"230 331 OFFCURVE",
"214 329 OFFCURVE",
"198 325 CURVE",
"195 338 OFFCURVE",
"193 352 OFFCURVE",
"193 367 CURVE SMOOTH",
"193 417 OFFCURVE",
"209 463 OFFCURVE",
"242 506 CURVE SMOOTH",
"273 546 OFFCURVE",
"312 576 OFFCURVE",
"360 595 CURVE SMOOTH",
"406 614 OFFCURVE",
"456 623 OFFCURVE",
"509 623 CURVE SMOOTH",
"574 623 OFFCURVE",
"645 609 OFFCURVE",
"724 582 CURVE SMOOTH",
"761 569 OFFCURVE",
"829 540 OFFCURVE",
"928 496 CURVE",
"892 472 OFFCURVE",
"851 438 OFFCURVE",
"809 392 CURVE SMOOTH",
"773 353 OFFCURVE",
"738 313 OFFCURVE",
"703 273 CURVE SMOOTH",
"655 220 OFFCURVE",
"620 179 OFFCURVE",
"596 153 CURVE SMOOTH",
"540 90 OFFCURVE",
"491 45 OFFCURVE",
"449 16 CURVE SMOOTH",
"389 -25 OFFCURVE",
"326 -46 OFFCURVE",
"262 -46 CURVE SMOOTH"
);
},
{
closed = 1;
nodes = (
"1113 -47 OFFCURVE",
"1146 -28 OFFCURVE",
"1182 9 CURVE SMOOTH",
"1183 10 OFFCURVE",
"1184 11 OFFCURVE",
"1184 12 CURVE SMOOTH",
"1184 13 OFFCURVE",
"1183 14 OFFCURVE",
"1182 15 CURVE",
"1179 15 OFFCURVE",
"1176 14 OFFCURVE",
"1174 11 CURVE SMOOTH",
"1169 5 OFFCURVE",
"1158 -4 OFFCURVE",
"1140 -16 CURVE SMOOTH",
"1122 -27 OFFCURVE",
"1109 -33 OFFCURVE",
"1103 -33 CURVE SMOOTH",
"1092 -33 OFFCURVE",
"1086 -24 OFFCURVE",
"1086 -5 CURVE SMOOTH",
"1086 39 OFFCURVE",
"1108 106 OFFCURVE",
"1150 198 CURVE SMOOTH",
"1185 271 OFFCURVE",
"1219 334 OFFCURVE",
"1255 388 CURVE SMOOTH",
"1282 429 OFFCURVE",
"1310 465 OFFCURVE",
"1339 496 CURVE SMOOTH",
"1349 507 OFFCURVE",
"1355 513 OFFCURVE",
"1357 516 CURVE SMOOTH",
"1360 520 OFFCURVE",
"1361 522 OFFCURVE",
"1360 522 CURVE SMOOTH",
"1355 522 OFFCURVE",
"1330 499 OFFCURVE",
"1285 454 CURVE SMOOTH",
"1250 418 OFFCURVE",
"1225 392 OFFCURVE",
"1210 375 CURVE SMOOTH",
"1183 346 OFFCURVE",
"1161 320 OFFCURVE",
"1141 295 CURVE SMOOTH",
"1116 262 OFFCURVE",
"1097 233 OFFCURVE",
"1085 209 CURVE SMOOTH",
"1055 147 OFFCURVE",
"1040 87 OFFCURVE",
"1040 27 CURVE SMOOTH",
"1040 -23 OFFCURVE",
"1054 -47 OFFCURVE",
"1083 -47 CURVE SMOOTH"
);
},
{
closed = 1;
nodes = (
"1058 455 OFFCURVE",
"1030 464 OFFCURVE",
"985 480 CURVE",
"995 490 OFFCURVE",
"1003 499 OFFCURVE",
"1010 507 CURVE",
"1010 508 OFFCURVE",
"1010 508 OFFCURVE",
"1008 508 CURVE SMOOTH",
"999 508 OFFCURVE",
"988 501 OFFCURVE",
"973 485 CURVE",
"965 488 OFFCURVE",
"957 491 OFFCURVE",
"948 495 CURVE",
"980 513 OFFCURVE",
"1009 522 OFFCURVE",
"1034 522 CURVE SMOOTH",
"1049 522 OFFCURVE",
"1062 519 OFFCURVE",
"1074 513 CURVE SMOOTH",
"1087 505 OFFCURVE",
"1094 494 OFFCURVE",
"1094 480 CURVE SMOOTH",
"1094 464 OFFCURVE",
"1086 455 OFFCURVE",
"1069 455 CURVE SMOOTH"
);
}
);
width = 1186;
}
);
note = M;
unicode = 004D;
},
{
glyphname = N;
lastChange = "2021-10-29 07:10:48 +0000";
layers = (
{
anchors = (
{
name = bottom;
position = "{648, 0}";
},
{
name = top;
position = "{1159, 620}";
}
);
layerId = "171CD109-D0B0-4A7B-9E5C-4BA88B29FB0C";
paths = (
{
closed = 1;
nodes = (
"304 -97 OFFCURVE",
"311 -97 OFFCURVE",
"316 -96 CURVE SMOOTH",
"436 -81 OFFCURVE",
"543 15 OFFCURVE",
"634 194 CURVE SMOOTH",
"656 237 OFFCURVE",
"670 270 OFFCURVE",
"681 291 CURVE SMOOTH",
"701 332 OFFCURVE",
"731 374 OFFCURVE",
"767 417 CURVE SMOOTH",
"804 460 OFFCURVE",
"841 495 OFFCURVE",
"877 521 CURVE",
"898 511 OFFCURVE",
"917 502 OFFCURVE",
"932 496 CURVE",
"902 468 OFFCURVE",
"879 424 OFFCURVE",
"863 364 CURVE SMOOTH",
"850 315 OFFCURVE",
"843 265 OFFCURVE",
"843 215 CURVE SMOOTH",
"843 198 OFFCURVE",
"844 174 OFFCURVE",
"847 140 CURVE SMOOTH",
"849 107 OFFCURVE",
"851 82 OFFCURVE",
"851 66 CURVE SMOOTH",
"851 41 OFFCURVE",
"848 25 OFFCURVE",
"843 18 CURVE SMOOTH",
"832 2 OFFCURVE",
"818 -9 OFFCURVE",
"800 -15 CURVE SMOOTH",
"789 -19 OFFCURVE",
"784 -21 OFFCURVE",
"784 -23 CURVE",
"786 -24 LINE SMOOTH",
"790 -26 OFFCURVE",
"794 -26 OFFCURVE",
"799 -26 CURVE SMOOTH",
"813 -26 OFFCURVE",
"832 -21 OFFCURVE",
"854 -13 CURVE SMOOTH",
"904 7 OFFCURVE",
"949 47 OFFCURVE",
"990 108 CURVE SMOOTH",
"1014 144 OFFCURVE",
"1042 200 OFFCURVE",
"1075 274 CURVE SMOOTH",
"1111 355 OFFCURVE",
"1141 417 OFFCURVE",
"1168 460 CURVE SMOOTH",
"1208 526 OFFCURVE",
"1252 579 OFFCURVE",
"1301 617 CURVE SMOOTH",
"1338 646 OFFCURVE",
"1376 661 OFFCURVE",
"1414 661 CURVE SMOOTH",
"1432 661 OFFCURVE",
"1448 656 OFFCURVE",
"1462 646 CURVE SMOOTH",
"1477 635 OFFCURVE",
"1485 621 OFFCURVE",
"1485 604 CURVE SMOOTH",
"1485 593 OFFCURVE",
"1481 582 OFFCURVE",
"1475 570 CURVE",
"1476 570 LINE",
"1476 566 OFFCURVE",
"1477 564 OFFCURVE",
"1479 564 CURVE SMOOTH",
"1484 564 OFFCURVE",
"1489 571 OFFCURVE",
"1493 584 CURVE SMOOTH",
"1497 595 OFFCURVE",
"1500 604 OFFCURVE",
"1500 610 CURVE SMOOTH",
"1500 636 OFFCURVE",
"1489 656 OFFCURVE",
"1467 669 CURVE SMOOTH",
"1449 680 OFFCURVE",
"1426 685 OFFCURVE",
"1398 685 CURVE SMOOTH",
"1276 685 OFFCURVE",
"1165 557 OFFCURVE",
"1064 300 CURVE SMOOTH",
"1008 156 OFFCURVE",
"949 62 OFFCURVE",
"888 19 CURVE SMOOTH",
"871 7 OFFCURVE",
"856 1 OFFCURVE",
"846 0 CURVE",
"877 37 OFFCURVE",
"896 117 OFFCURVE",
"902 239 CURVE SMOOTH",
"905 300 OFFCURVE",
"908 343 OFFCURVE",
"912 369 CURVE SMOOTH",
"919 422 OFFCURVE",
"933 462 OFFCURVE",
"951 490 CURVE",
"967 485 OFFCURVE",
"982 482 OFFCURVE",
"994 482 CURVE SMOOTH",
"1010 482 OFFCURVE",
"1025 486 OFFCURVE",
"1039 494 CURVE SMOOTH",
"1056 503 OFFCURVE",
"1064 515 OFFCURVE",
"1064 530 CURVE SMOOTH",
"1064 544 OFFCURVE",
"1056 555 OFFCURVE",
"1039 565 CURVE SMOOTH",
"1025 573 OFFCURVE",
"1011 577 OFFCURVE",
"996 577 CURVE SMOOTH",
"963 577 OFFCURVE",
"924 562 OFFCURVE",
"881 534 CURVE",
"832 561 OFFCURVE",
"784 589 OFFCURVE",
"735 615 CURVE SMOOTH",
"679 644 OFFCURVE",
"624 656 OFFCURVE",
"574 656 CURVE SMOOTH",
"539 656 OFFCURVE",
"503 650 OFFCURVE",
"468 637 CURVE SMOOTH",
"431 624 OFFCURVE",
"401 599 OFFCURVE",
"377 562 CURVE SMOOTH",
"355 527 OFFCURVE",
"344 489 OFFCURVE",
"344 448 CURVE SMOOTH",
"344 402 OFFCURVE",
"358 365 OFFCURVE",
"387 337 CURVE SMOOTH",
"415 308 OFFCURVE",
"452 293 OFFCURVE",
"497 293 CURVE SMOOTH",
"540 293 OFFCURVE",
"579 308 OFFCURVE",
"614 337 CURVE SMOOTH",
"651 367 OFFCURVE",
"669 404 OFFCURVE",
"669 446 CURVE SMOOTH",
"669 476 OFFCURVE",
"658 503 OFFCURVE",
"637 525 CURVE SMOOTH",
"615 546 OFFCURVE",
"589 557 OFFCURVE",
"559 557 CURVE SMOOTH",
"533 557 OFFCURVE",
"511 549 OFFCURVE",
"492 532 CURVE SMOOTH",
"472 515 OFFCURVE",
"462 494 OFFCURVE",
"462 469 CURVE SMOOTH",
"462 448 OFFCURVE",
"471 431 OFFCURVE",
"489 418 CURVE SMOOTH",
"492 416 OFFCURVE",
"495 414 OFFCURVE",
"498 414 CURVE",
"498 414 OFFCURVE",
"499 415 OFFCURVE",
"499 416 CURVE SMOOTH",
"499 419 OFFCURVE",
"495 424 OFFCURVE",
"485 433 CURVE SMOOTH",
"476 441 OFFCURVE",
"471 452 OFFCURVE",
"471 467 CURVE SMOOTH",
"471 489 OFFCURVE",
"480 508 OFFCURVE",
"498 524 CURVE SMOOTH",
"515 539 OFFCURVE",
"535 547 OFFCURVE",
"557 547 CURVE SMOOTH",
"585 547 OFFCURVE",
"608 536 OFFCURVE",
"626 515 CURVE SMOOTH",
"643 495 OFFCURVE",
"652 471 OFFCURVE",
"652 443 CURVE SMOOTH",
"652 404 OFFCURVE",
"636 371 OFFCURVE",
"604 345 CURVE SMOOTH",
"573 321 OFFCURVE",
"538 308 OFFCURVE",
"499 308 CURVE SMOOTH",
"460 308 OFFCURVE",
"428 320 OFFCURVE",
"402 344 CURVE SMOOTH",
"376 368 OFFCURVE",
"363 400 OFFCURVE",
"363 438 CURVE SMOOTH",
"363 475 OFFCURVE",
"375 510 OFFCURVE",
"397 541 CURVE SMOOTH",
"419 573 OFFCURVE",
"447 596 OFFCURVE",
"482 610 CURVE SMOOTH",
"511 622 OFFCURVE",
"543 629 OFFCURVE",
"577 629 CURVE SMOOTH",
"622 629 OFFCURVE",
"672 617 OFFCURVE",
"728 594 CURVE SMOOTH",
"746 587 OFFCURVE",
"793 564 OFFCURVE",
"869 525 CURVE",
"797 475 OFFCURVE",
"727 402 OFFCURVE",
"662 303 CURVE SMOOTH",
"619 238 OFFCURVE",
"590 187 OFFCURVE",
"570 153 CURVE SMOOTH",
"527 81 OFFCURVE",
"492 31 OFFCURVE",
"464 2 CURVE SMOOTH",
"417 -47 OFFCURVE",
"363 -75 OFFCURVE",
"304 -81 CURVE SMOOTH",
"300 -81 OFFCURVE",
"294 -82 OFFCURVE",
"287 -82 CURVE SMOOTH",
"230 -82 OFFCURVE",
"185 -64 OFFCURVE",
"150 -29 CURVE SMOOTH",
"116 6 OFFCURVE",
"99 52 OFFCURVE",
"99 109 CURVE SMOOTH",
"99 158 OFFCURVE",
"114 199 OFFCURVE",
"143 231 CURVE SMOOTH",
"174 263 OFFCURVE",
"214 280 OFFCURVE",
"263 280 CURVE SMOOTH",
"271 280 OFFCURVE",
"278 279 OFFCURVE",
"284 279 CURVE SMOOTH",
"311 276 OFFCURVE",
"332 262 OFFCURVE",
"350 239 CURVE SMOOTH",
"366 217 OFFCURVE",
"374 193 OFFCURVE",
"374 165 CURVE SMOOTH",
"374 129 OFFCURVE",
"364 99 OFFCURVE",
"344 76 CURVE SMOOTH",
"323 53 OFFCURVE",
"295 38 OFFCURVE",
"259 34 CURVE SMOOTH",
"247 32 OFFCURVE",
"241 30 OFFCURVE",
"241 28 CURVE SMOOTH",
"241 25 OFFCURVE",
"245 24 OFFCURVE",
"252 24 CURVE SMOOTH",
"288 24 OFFCURVE",
"321 37 OFFCURVE",
"350 63 CURVE SMOOTH",
"379 90 OFFCURVE",
"394 122 OFFCURVE",
"394 158 CURVE SMOOTH",
"394 190 OFFCURVE",
"383 219 OFFCURVE",
"361 246 CURVE SMOOTH",
"339 274 OFFCURVE",
"312 289 OFFCURVE",
"281 293 CURVE",
"275 293 OFFCURVE",
"268 294 OFFCURVE",
"261 294 CURVE SMOOTH",
"208 294 OFFCURVE",
"165 275 OFFCURVE",
"132 236 CURVE SMOOTH",
"101 200 OFFCURVE",
"85 155 OFFCURVE",
"85 102 CURVE SMOOTH",
"85 42 OFFCURVE",
"105 -7 OFFCURVE",
"146 -44 CURVE SMOOTH",
"185 -79 OFFCURVE",
"235 -97 OFFCURVE",
"296 -97 CURVE SMOOTH"
);
},
{
closed = 1;
nodes = (
"986 489 OFFCURVE",
"973 492 OFFCURVE",
"957 498 CURVE",
"963 505 OFFCURVE",
"970 511 OFFCURVE",
"976 515 CURVE",
"979 515 OFFCURVE",
"980 516 OFFCURVE",
"980 518 CURVE SMOOTH",
"980 521 OFFCURVE",
"978 522 OFFCURVE",
"974 522 CURVE SMOOTH",
"967 522 OFFCURVE",
"955 516 OFFCURVE",
"941 504 CURVE",
"925 511 OFFCURVE",
"908 519 OFFCURVE",
"889 529 CURVE",
"924 552 OFFCURVE",
"954 563 OFFCURVE",
"980 563 CURVE SMOOTH",
"993 563 OFFCURVE",
"1007 559 OFFCURVE",
"1020 552 CURVE SMOOTH",
"1034 543 OFFCURVE",
"1042 532 OFFCURVE",
"1042 520 CURVE SMOOTH",
"1042 500 OFFCURVE",
"1027 489 OFFCURVE",
"996 489 CURVE SMOOTH"
);
}
);
width = 1062;
}
);
note = N;
unicode = 004E;
},
{
glyphname = Eng;
lastChange = "2021-10-29 07:10:18 +0000";
layers = (
{
layerId = "171CD109-D0B0-4A7B-9E5C-4BA88B29FB0C";
paths = (
{
closed = 1;
nodes = (
"249 -374 OFFCURVE",
"345 -330 OFFCURVE",
"399 -255 CURVE SMOOTH",
"449 -187 OFFCURVE",
"489 -90 OFFCURVE",
"536 35 CURVE SMOOTH",
"640 308 OFFCURVE",
"728 629 OFFCURVE",
"914 629 CURVE SMOOTH",
"924 629 OFFCURVE",
"934 628 OFFCURVE",
"944 626 CURVE",
"950 626 OFFCURVE",
"954 627 OFFCURVE",
"954 630 CURVE SMOOTH",
"954 632 OFFCURVE",
"950 635 OFFCURVE",
"941 636 CURVE SMOOTH",
"927 638 OFFCURVE",
"913 640 OFFCURVE",
"900 640 CURVE SMOOTH",
"721 640 OFFCURVE",
"658 417 OFFCURVE",
"524 74 CURVE",
"524 223 OFFCURVE",
"541 533 OFFCURVE",
"624 563 CURVE SMOOTH",
"639 569 OFFCURVE",
"657 570 OFFCURVE",
"654 588 CURVE",
"654 594 OFFCURVE",
"648 598 OFFCURVE",
"642 598 CURVE",
"637 584 OFFCURVE",
"593 578 OFFCURVE",
"533 578 CURVE SMOOTH",
"477 578 OFFCURVE",
"406 583 OFFCURVE",
"339 593 CURVE SMOOTH",
"274 602 OFFCURVE",
"218 606 OFFCURVE",
"172 606 CURVE SMOOTH",
"67 606 OFFCURVE",
"9 582 OFFCURVE",
"-11 528 CURVE SMOOTH",
"-13 523 OFFCURVE",
"-14 517 OFFCURVE",
"-14 510 CURVE SMOOTH",
"-14 483 OFFCURVE",
"4 445 OFFCURVE",
"42 420 CURVE SMOOTH",
"50 415 OFFCURVE",
"64 409 OFFCURVE",
"75 409 CURVE SMOOTH",
"79 409 OFFCURVE",
"83 410 OFFCURVE",
"85 413 CURVE",
"80 413 OFFCURVE",
"68 420 OFFCURVE",
"59 427 CURVE SMOOTH",
"44 440 OFFCURVE",
"34 460 OFFCURVE",
"34 481 CURVE SMOOTH",
"34 488 OFFCURVE",
"35 496 OFFCURVE",
"38 504 CURVE SMOOTH",
"59 561 OFFCURVE",
"141 580 OFFCURVE",
"236 580 CURVE SMOOTH",
"271 580 OFFCURVE",
"308 578 OFFCURVE",
"345 573 CURVE SMOOTH",
"407 566 OFFCURVE",
"495 563 OFFCURVE",
"552 564 CURVE",
"422 537 OFFCURVE",
"346 363 OFFCURVE",
"287 249 CURVE SMOOTH",
"222 123 OFFCURVE",
"139 -34 OFFCURVE",
"18 -34 CURVE SMOOTH",
"-35 -34 OFFCURVE",
"-85 7 OFFCURVE",
"-85 49 CURVE SMOOTH",
"-85 55 OFFCURVE",
"-84 60 OFFCURVE",
"-82 66 CURVE",
"-103 60 OFFCURVE",
"-109 41 OFFCURVE",
"-109 24 CURVE SMOOTH",
"-109 -11 OFFCURVE",
"-72 -50 OFFCURVE",
"18 -50 CURVE SMOOTH",
"174 -50 OFFCURVE",
"250 103 OFFCURVE",
"308 236 CURVE SMOOTH",
"387 417 OFFCURVE",
"484 564 OFFCURVE",
"581 564 CURVE",
"508 504 OFFCURVE",
"482 374 OFFCURVE",
"482 228 CURVE SMOOTH",
"482 154 OFFCURVE",
"488 76 OFFCURVE",
"499 0 CURVE",
"461 -102 OFFCURVE",
"425 -184 OFFCURVE",
"383 -243 CURVE SMOOTH",
"332 -313 OFFCURVE",
"255 -358 OFFCURVE",
"186 -358 CURVE SMOOTH",
"133 -358 OFFCURVE",
"86 -331 OFFCURVE",
"60 -268 CURVE SMOOTH",
"50 -242 OFFCURVE",
"44 -213 OFFCURVE",
"44 -186 CURVE SMOOTH",
"44 -153 OFFCURVE",
"53 -123 OFFCURVE",
"71 -104 CURVE",
"59 -89 OFFCURVE",
"13 -130 OFFCURVE",
"13 -213 CURVE SMOOTH",
"13 -243 OFFCURVE",
"18 -271 OFFCURVE",
"28 -294 CURVE SMOOTH",
"52 -349 OFFCURVE",
"106 -374 OFFCURVE",
"167 -374 CURVE SMOOTH"
);
}
);
width = 654;
}
);
unicode = 014A;
},
{
glyphname = O;
lastChange = "2021-10-29 07:10:48 +0000";
layers = (
{
anchors = (
{
name = bottom;
position = "{259, -41}";
},
{
name = center;
position = "{321, 310}";
},
{
name = ogonek;
position = "{330, -32}";
},
{
name = top;
position = "{485, 596}";
},
{
name = topleft;
position = "{20, 620}";
},
{
name = topright;
position = "{629, 556}";
}
);
layerId = "171CD109-D0B0-4A7B-9E5C-4BA88B29FB0C";
paths = (
{
closed = 1;
nodes = (
"392 -48 OFFCURVE",
"448 -31 OFFCURVE",
"502 3 CURVE SMOOTH",
"552 35 OFFCURVE",
"593 78 OFFCURVE",
"625 132 CURVE SMOOTH",
"652 179 OFFCURVE",
"666 231 OFFCURVE",
"666 291 CURVE SMOOTH",
"666 341 OFFCURVE",
"656 385 OFFCURVE",
"635 421 CURVE",
"667 441 OFFCURVE",
"683 463 OFFCURVE",
"683 489 CURVE SMOOTH",
"683 492 OFFCURVE",
"683 495 OFFCURVE",
"682 497 CURVE",
"675 533 OFFCURVE",
"649 560 OFFCURVE",
"603 577 CURVE SMOOTH",
"569 590 OFFCURVE",
"530 596 OFFCURVE",
"485 596 CURVE SMOOTH",
"350 596 OFFCURVE",
"247 555 OFFCURVE",
"178 474 CURVE",
"139 504 OFFCURVE",
"119 536 OFFCURVE",
"119 569 CURVE SMOOTH",
"119 618 OFFCURVE",
"151 643 OFFCURVE",
"213 643 CURVE SMOOTH",
"243 643 OFFCURVE",
"275 634 OFFCURVE",
"309 616 CURVE SMOOTH",
"312 614 OFFCURVE",
"314 613 OFFCURVE",
"315 613 CURVE SMOOTH",
"316 613 OFFCURVE",
"317 614 OFFCURVE",
"317 615 CURVE SMOOTH",
"317 619 OFFCURVE",
"316 622 OFFCURVE",
"313 623 CURVE",
"276 646 OFFCURVE",
"238 657 OFFCURVE",
"199 657 CURVE SMOOTH",
"133 657 OFFCURVE",
"100 631 OFFCURVE",
"100 578 CURVE SMOOTH",
"100 537 OFFCURVE",
"123 500 OFFCURVE",
"170 465 CURVE",
"113 393 OFFCURVE",
"84 309 OFFCURVE",
"84 212 CURVE SMOOTH",
"84 133 OFFCURVE",
"105 70 OFFCURVE",
"148 24 CURVE SMOOTH",
"192 -24 OFFCURVE",
"253 -48 OFFCURVE",
"332 -48 CURVE SMOOTH"
);
},
{
closed = 1;
nodes = (
"342 -33 OFFCURVE",
"335 -32 OFFCURVE",
"330 -32 CURVE",
"269 -24 OFFCURVE",
"223 1 OFFCURVE",
"191 45 CURVE SMOOTH",
"162 85 OFFCURVE",
"147 136 OFFCURVE",
"147 200 CURVE SMOOTH",
"147 287 OFFCURVE",
"171 365 OFFCURVE",
"220 434 CURVE",
"289 399 OFFCURVE",
"368 381 OFFCURVE",
"457 381 CURVE SMOOTH",
"520 381 OFFCURVE",
"572 391 OFFCURVE",
"614 409 CURVE",
"624 381 OFFCURVE",
"629 347 OFFCURVE",
"629 309 CURVE SMOOTH",
"629 251 OFFCURVE",
"619 202 OFFCURVE",
"599 162 CURVE SMOOTH",
"573 111 OFFCURVE",
"539 67 OFFCURVE",
"497 31 CURVE SMOOTH",
"448 -11 OFFCURVE",
"399 -33 OFFCURVE",
"349 -33 CURVE SMOOTH"
);
},
{
closed = 1;
nodes = (
"358 394 OFFCURVE",
"290 411 OFFCURVE",
"227 443 CURVE",
"296 537 OFFCURVE",
"386 584 OFFCURVE",
"495 584 CURVE SMOOTH",
"605 584 OFFCURVE",
"659 553 OFFCURVE",
"659 493 CURVE SMOOTH",
"659 474 OFFCURVE",
"647 456 OFFCURVE",
"623 440 CURVE",
"597 475 OFFCURVE",
"564 492 OFFCURVE",
"524 492 CURVE SMOOTH",
"507 492 OFFCURVE",
"499 489 OFFCURVE",
"499 483 CURVE SMOOTH",
"499 479 OFFCURVE",
"503 477 OFFCURVE",
"510 477 CURVE SMOOTH",
"512 477 OFFCURVE",
"516 477 OFFCURVE",
"522 478 CURVE SMOOTH",
"527 479 OFFCURVE",
"531 480 OFFCURVE",
"534 480 CURVE SMOOTH",
"564 480 OFFCURVE",
"588 463 OFFCURVE",
"605 429 CURVE",
"559 406 OFFCURVE",
"501 394 OFFCURVE",
"431 394 CURVE SMOOTH"
);
}
);
width = 641;
}
);
note = O;
unicode = 004F;
},
{
glyphname = Oslash;
lastChange = "2021-10-29 07:10:48 +0000";
layers = (
{
anchors = (
{
name = bottom;
position = "{321, 0}";
},
{
name = top;
position = "{525, 620}";
}
);
layerId = "171CD109-D0B0-4A7B-9E5C-4BA88B29FB0C";
paths = (
{
closed = 1;
nodes = (
"82 -86 LINE",
"159 13 LINE",
"201 -27 OFFCURVE",
"259 -48 OFFCURVE",
"332 -48 CURVE SMOOTH",
"392 -48 OFFCURVE",
"448 -31 OFFCURVE",
"502 3 CURVE SMOOTH",
"552 35 OFFCURVE",
"593 78 OFFCURVE",
"625 132 CURVE SMOOTH",
"652 178 OFFCURVE",
"666 231 OFFCURVE",
"666 291 CURVE SMOOTH",
"666 341 OFFCURVE",
"656 385 OFFCURVE",
"635 421 CURVE",
"667 441 OFFCURVE",
"683 463 OFFCURVE",
"683 489 CURVE SMOOTH",
"683 530 OFFCURVE",
"653 561 OFFCURVE",
"594 580 CURVE",
"667 675 LINE",
"635 675 LINE",
"568 587 LINE",
"542 593 OFFCURVE",
"515 596 OFFCURVE",
"485 596 CURVE SMOOTH",
"350 596 OFFCURVE",
"247 555 OFFCURVE",
"178 474 CURVE",
"139 504 OFFCURVE",
"119 536 OFFCURVE",
"119 569 CURVE SMOOTH",
"119 618 OFFCURVE",
"151 643 OFFCURVE",
"213 643 CURVE SMOOTH",
"244 643 OFFCURVE",
"276 634 OFFCURVE",
"309 616 CURVE SMOOTH",
"312 614 OFFCURVE",
"314 613 OFFCURVE",
"315 613 CURVE SMOOTH",
"316 613 OFFCURVE",
"317 614 OFFCURVE",
"317 615 CURVE SMOOTH",
"317 619 OFFCURVE",
"316 622 OFFCURVE",
"313 623 CURVE",
"276 646 OFFCURVE",
"238 657 OFFCURVE",
"199 657 CURVE SMOOTH",
"133 657 OFFCURVE",
"100 631 OFFCURVE",
"100 578 CURVE SMOOTH",
"100 537 OFFCURVE",
"123 500 OFFCURVE",
"170 465 CURVE",
"113 393 OFFCURVE",
"84 309 OFFCURVE",
"84 212 CURVE SMOOTH",
"84 139 OFFCURVE",
"103 79 OFFCURVE",
"141 32 CURVE",
"50 -86 LINE"
);
},
{
closed = 1;
nodes = (
"156 110 OFFCURVE",
"147 152 OFFCURVE",
"147 200 CURVE SMOOTH",
"147 287 OFFCURVE",
"171 365 OFFCURVE",
"220 434 CURVE",
"278 405 OFFCURVE",
"341 388 OFFCURVE",
"410 383 CURVE",
"173 74 LINE"
);
},
{
closed = 1;
nodes = (
"278 -33 OFFCURVE",
"224 -5 OFFCURVE",
"187 50 CURVE",
"441 382 LINE",
"511 380 OFFCURVE",
"569 389 OFFCURVE",
"614 409 CURVE",
"624 381 OFFCURVE",
"629 347 OFFCURVE",
"629 309 CURVE SMOOTH",
"629 251 OFFCURVE",
"619 202 OFFCURVE",
"599 162 CURVE SMOOTH",
"572 111 OFFCURVE",
"538 67 OFFCURVE",
"497 31 CURVE SMOOTH",
"448 -11 OFFCURVE",
"399 -33 OFFCURVE",
"349 -33 CURVE SMOOTH"
);
},
{
closed = 1;
nodes = (
"351 396 OFFCURVE",
"287 412 OFFCURVE",
"227 443 CURVE",
"296 537 OFFCURVE",
"386 584 OFFCURVE",
"495 584 CURVE SMOOTH",
"518 584 OFFCURVE",
"540 582 OFFCURVE",
"561 579 CURVE",
"419 394 LINE"
);
},
{
closed = 1;
nodes = (
"515 478 LINE",
"522 479 OFFCURVE",
"528 480 OFFCURVE",
"534 480 CURVE SMOOTH",
"564 480 OFFCURVE",
"588 463 OFFCURVE",
"605 429 CURVE",
"564 409 OFFCURVE",
"513 397 OFFCURVE",
"451 395 CURVE"
);
},
{
closed = 1;
nodes = (
"598 474 OFFCURVE",
"565 491 OFFCURVE",
"526 492 CURVE",
"588 573 LINE",
"636 559 OFFCURVE",
"659 533 OFFCURVE",
"659 493 CURVE SMOOTH",
"659 474 OFFCURVE",
"647 456 OFFCURVE",
"623 440 CURVE"
);
}
);
width = 641;
}
);
note = Oslash;
unicode = 00D8;
},
{
glyphname = OE;
lastChange = "2021-10-29 07:10:18 +0000";
layers = (
{
layerId = "171CD109-D0B0-4A7B-9E5C-4BA88B29FB0C";
paths = (
{
closed = 1;
nodes = (
"831 -52 OFFCURVE",
"899 -33 OFFCURVE",
"961 6 CURVE SMOOTH",
"1033 50 OFFCURVE",
"1068 107 OFFCURVE",
"1068 177 CURVE SMOOTH",
"1068 208 OFFCURVE",
"1060 232 OFFCURVE",
"1043 251 CURVE SMOOTH",
"1025 270 OFFCURVE",
"1001 280 OFFCURVE",
"971 280 CURVE SMOOTH",
"926 280 OFFCURVE",
"897 264 OFFCURVE",
"885 231 CURVE SMOOTH",
"881 222 OFFCURVE",
"880 215 OFFCURVE",
"880 209 CURVE SMOOTH",
"880 198 OFFCURVE",
"883 193 OFFCURVE",
"888 193 CURVE SMOOTH",
"890 193 OFFCURVE",
"891 198 OFFCURVE",
"891 209 CURVE SMOOTH",
"891 227 OFFCURVE",
"898 241 OFFCURVE",
"913 252 CURVE SMOOTH",
"926 262 OFFCURVE",
"942 268 OFFCURVE",
"961 268 CURVE SMOOTH",
"1008 268 OFFCURVE",
"1031 240 OFFCURVE",
"1031 185 CURVE SMOOTH",
"1031 122 OFFCURVE",
"1003 68 OFFCURVE",
"948 24 CURVE SMOOTH",
"896 -17 OFFCURVE",
"837 -38 OFFCURVE",
"773 -38 CURVE SMOOTH",
"729 -38 OFFCURVE",
"691 -26 OFFCURVE",
"661 -3 CURVE SMOOTH",
"629 20 OFFCURVE",
"609 54 OFFCURVE",
"601 96 CURVE",
"645 155 OFFCURVE",
"667 220 OFFCURVE",
"666 291 CURVE SMOOTH",
"666 300 LINE",
"708 345 OFFCURVE",
"766 374 OFFCURVE",
"840 387 CURVE",
"870 365 OFFCURVE",
"903 353 OFFCURVE",
"941 353 CURVE SMOOTH",
"965 353 OFFCURVE",
"977 360 OFFCURVE",
"977 374 CURVE SMOOTH",
"977 394 OFFCURVE",
"940 404 OFFCURVE",
"866 404 CURVE SMOOTH",
"841 404 LINE",
"831 418 OFFCURVE",
"826 437 OFFCURVE",
"826 459 CURVE SMOOTH",
"826 503 OFFCURVE",
"843 539 OFFCURVE",
"875 568 CURVE SMOOTH",
"906 595 OFFCURVE",
"944 608 OFFCURVE",
"989 608 CURVE SMOOTH",
"1012 608 OFFCURVE",
"1032 603 OFFCURVE",
"1047 591 CURVE SMOOTH",
"1065 579 OFFCURVE",
"1074 561 OFFCURVE",
"1074 539 CURVE SMOOTH",
"1074 520 OFFCURVE",
"1065 503 OFFCURVE",
"1048 490 CURVE SMOOTH",
"1032 478 OFFCURVE",
"1014 472 OFFCURVE",
"994 472 CURVE SMOOTH",
"981 472 OFFCURVE",
"974 478 OFFCURVE",
"974 491 CURVE SMOOTH",
"974 492 OFFCURVE",
"975 495 OFFCURVE",
"976 497 CURVE SMOOTH",
"977 500 OFFCURVE",
"977 502 OFFCURVE",
"977 503 CURVE SMOOTH",
"977 505 OFFCURVE",
"976 506 OFFCURVE",
"974 506 CURVE SMOOTH",
"971 506 OFFCURVE",
"970 505 OFFCURVE",
"970 501 CURVE",
"969 498 OFFCURVE",
"968 495 OFFCURVE",
"968 491 CURVE SMOOTH",
"968 482 OFFCURVE",
"974 474 OFFCURVE",
"985 468 CURVE SMOOTH",
"994 463 OFFCURVE",
"1004 460 OFFCURVE",
"1015 460 CURVE SMOOTH",
"1036 460 OFFCURVE",
"1054 468 OFFCURVE",
"1070 485 CURVE SMOOTH",
"1086 501 OFFCURVE",
"1094 519 OFFCURVE",
"1094 540 CURVE SMOOTH",
"1094 593 OFFCURVE",
"1056 620 OFFCURVE",
"978 620 CURVE SMOOTH",
"931 620 OFFCURVE",
"890 608 OFFCURVE",
"854 584 CURVE SMOOTH",
"813 557 OFFCURVE",
"793 521 OFFCURVE",
"793 476 CURVE SMOOTH",
"793 448 OFFCURVE",
"803 424 OFFCURVE",
"823 402 CURVE",
"764 397 OFFCURVE",
"710 378 OFFCURVE",
"661 347 CURVE",
"656 375 OFFCURVE",
"647 400 OFFCURVE",
"635 421 CURVE",
"667 441 OFFCURVE",
"683 463 OFFCURVE",
"683 489 CURVE SMOOTH",
"683 492 OFFCURVE",
"683 495 OFFCURVE",
"682 497 CURVE",
"675 533 OFFCURVE",
"649 560 OFFCURVE",
"603 577 CURVE SMOOTH",
"569 590 OFFCURVE",
"530 596 OFFCURVE",
"485 596 CURVE SMOOTH",
"350 596 OFFCURVE",
"247 555 OFFCURVE",
"178 474 CURVE",
"139 504 OFFCURVE",
"119 536 OFFCURVE",
"119 569 CURVE SMOOTH",
"119 618 OFFCURVE",
"151 643 OFFCURVE",
"213 643 CURVE SMOOTH",
"243 643 OFFCURVE",
"275 634 OFFCURVE",
"309 616 CURVE SMOOTH",
"312 614 OFFCURVE",
"314 613 OFFCURVE",
"315 613 CURVE SMOOTH",
"316 613 OFFCURVE",
"317 614 OFFCURVE",
"317 615 CURVE SMOOTH",
"317 619 OFFCURVE",
"316 621 OFFCURVE",
"313 623 CURVE SMOOTH",
"277 646 OFFCURVE",
"239 657 OFFCURVE",
"199 657 CURVE SMOOTH",
"133 657 OFFCURVE",
"100 631 OFFCURVE",
"100 579 CURVE SMOOTH",
"100 538 OFFCURVE",
"123 500 OFFCURVE",
"170 465 CURVE",
"113 393 OFFCURVE",
"84 309 OFFCURVE",
"84 212 CURVE SMOOTH",
"84 133 OFFCURVE",
"106 70 OFFCURVE",
"148 24 CURVE SMOOTH",
"192 -24 OFFCURVE",
"253 -48 OFFCURVE",
"332 -48 CURVE SMOOTH",
"417 -48 OFFCURVE",
"493 -15 OFFCURVE",
"560 50 CURVE",
"597 -18 OFFCURVE",
"662 -52 OFFCURVE",
"757 -52 CURVE SMOOTH"
);
},
{
closed = 1;
nodes = (
"342 -33 OFFCURVE",
"335 -32 OFFCURVE",
"330 -32 CURVE",
"269 -24 OFFCURVE",
"223 1 OFFCURVE",
"191 45 CURVE SMOOTH",
"162 85 OFFCURVE",
"147 136 OFFCURVE",
"147 200 CURVE SMOOTH",
"147 287 OFFCURVE",
"171 365 OFFCURVE",
"220 434 CURVE",
"289 399 OFFCURVE",
"368 381 OFFCURVE",
"457 381 CURVE SMOOTH",
"520 381 OFFCURVE",
"572 391 OFFCURVE",
"614 409 CURVE",
"624 381 OFFCURVE",
"629 347 OFFCURVE",
"629 309 CURVE SMOOTH",
"629 251 OFFCURVE",
"619 202 OFFCURVE",
"599 162 CURVE SMOOTH",
"573 111 OFFCURVE",
"539 67 OFFCURVE",
"497 31 CURVE SMOOTH",
"448 -11 OFFCURVE",
"399 -33 OFFCURVE",
"349 -33 CURVE SMOOTH"
);
},
{
closed = 1;
nodes = (
"358 394 OFFCURVE",
"290 411 OFFCURVE",
"227 443 CURVE",
"296 537 OFFCURVE",
"386 584 OFFCURVE",
"495 584 CURVE SMOOTH",
"605 584 OFFCURVE",
"659 553 OFFCURVE",
"659 493 CURVE SMOOTH",
"659 474 OFFCURVE",
"647 456 OFFCURVE",
"623 440 CURVE",
"597 475 OFFCURVE",
"564 492 OFFCURVE",
"524 492 CURVE SMOOTH",
"507 492 OFFCURVE",
"499 489 OFFCURVE",
"499 483 CURVE SMOOTH",
"499 479 OFFCURVE",
"503 477 OFFCURVE",
"510 477 CURVE SMOOTH",
"512 477 OFFCURVE",
"516 477 OFFCURVE",
"522 478 CURVE SMOOTH",
"527 479 OFFCURVE",
"531 480 OFFCURVE",
"534 480 CURVE SMOOTH",
"564 480 OFFCURVE",
"588 463 OFFCURVE",
"605 429 CURVE",
"559 406 OFFCURVE",
"501 394 OFFCURVE",
"431 394 CURVE SMOOTH"
);
},
{
closed = 1;
nodes = (
"899 364 OFFCURVE",
"876 373 OFFCURVE",
"855 389 CURVE",
"874 392 OFFCURVE",
"893 394 OFFCURVE",
"912 394 CURVE SMOOTH",
"942 394 OFFCURVE",
"957 388 OFFCURVE",
"957 377 CURVE SMOOTH",
"957 368 OFFCURVE",
"947 364 OFFCURVE",
"926 364 CURVE SMOOTH"
);
}
);
width = 1021;
}
);
note = OE;
unicode = 0152;
},
{
glyphname = P;
lastChange = "2021-10-29 07:10:18 +0000";
layers = (
{
layerId = "171CD109-D0B0-4A7B-9E5C-4BA88B29FB0C";
paths = (
{
closed = 1;
nodes = (
"149 -56 OFFCURVE",
"165 -54 OFFCURVE",
"180 -49 CURVE SMOOTH",
"304 -12 OFFCURVE",
"397 70 OFFCURVE",
"453 199 CURVE SMOOTH",
"478 256 OFFCURVE",
"492 300 OFFCURVE",
"503 329 CURVE SMOOTH",
"564 483 OFFCURVE",
"630 581 OFFCURVE",
"700 624 CURVE",
"791 588 OFFCURVE",
"836 532 OFFCURVE",
"836 455 CURVE SMOOTH",
"836 390 OFFCURVE",
"803 336 OFFCURVE",
"738 292 CURVE SMOOTH",
"680 254 OFFCURVE",
"617 234 OFFCURVE",
"548 234 CURVE SMOOTH",
"535 234 OFFCURVE",
"523 235 OFFCURVE",
"513 238 CURVE SMOOTH",
"504 240 OFFCURVE",
"499 241 OFFCURVE",
"499 242 CURVE",
"500 242 LINE SMOOTH",
"496 242 OFFCURVE",
"494 240 OFFCURVE",
"494 234 CURVE SMOOTH",
"494 229 OFFCURVE",
"507 225 OFFCURVE",
"534 222 CURVE SMOOTH",
"554 219 OFFCURVE",
"570 218 OFFCURVE",
"583 218 CURVE SMOOTH",
"661 218 OFFCURVE",
"729 237 OFFCURVE",
"786 276 CURVE SMOOTH",
"852 320 OFFCURVE",
"885 380 OFFCURVE",
"885 454 CURVE SMOOTH",
"885 539 OFFCURVE",
"831 600 OFFCURVE",
"724 637 CURVE",
"752 649 OFFCURVE",
"779 655 OFFCURVE",
"805 655 CURVE SMOOTH",
"847 655 OFFCURVE",
"868 643 OFFCURVE",
"868 618 CURVE SMOOTH",
"868 606 OFFCURVE",
"869 600 OFFCURVE",
"872 600 CURVE SMOOTH",
"882 600 OFFCURVE",
"886 608 OFFCURVE",
"886 625 CURVE SMOOTH",
"886 640 OFFCURVE",
"877 652 OFFCURVE",
"857 660 CURVE SMOOTH",
"842 665 OFFCURVE",
"826 668 OFFCURVE",
"808 668 CURVE SMOOTH",
"773 668 OFFCURVE",
"739 660 OFFCURVE",
"705 643 CURVE",
"651 659 OFFCURVE",
"591 667 OFFCURVE",
"527 667 CURVE SMOOTH",
"448 667 OFFCURVE",
"376 655 OFFCURVE",
"312 630 CURVE SMOOTH",
"235 600 OFFCURVE",
"180 554 OFFCURVE",
"150 493 CURVE SMOOTH",
"137 467 OFFCURVE",
"130 439 OFFCURVE",
"130 412 CURVE SMOOTH",
"130 371 OFFCURVE",
"144 338 OFFCURVE",
"172 313 CURVE SMOOTH",
"200 288 OFFCURVE",
"234 275 OFFCURVE",
"275 275 CURVE SMOOTH",
"320 275 OFFCURVE",
"359 290 OFFCURVE",
"392 318 CURVE SMOOTH",
"426 348 OFFCURVE",
"443 385 OFFCURVE",
"443 429 CURVE SMOOTH",
"443 457 OFFCURVE",
"434 481 OFFCURVE",
"416 500 CURVE SMOOTH",
"397 518 OFFCURVE",
"373 528 OFFCURVE",
"345 528 CURVE SMOOTH",
"323 528 OFFCURVE",
"303 520 OFFCURVE",
"285 505 CURVE SMOOTH",
"266 489 OFFCURVE",
"257 470 OFFCURVE",
"257 449 CURVE SMOOTH",
"257 427 OFFCURVE",
"268 416 OFFCURVE",
"290 416 CURVE SMOOTH",
"298 416 OFFCURVE",
"302 420 OFFCURVE",
"302 426 CURVE SMOOTH",
"302 428 OFFCURVE",
"301 429 OFFCURVE",
"299 430 CURVE",
"297 429 OFFCURVE",
"295 428 OFFCURVE",
"294 426 CURVE SMOOTH",
"293 425 OFFCURVE",
"292 424 OFFCURVE",
"291 424 CURVE SMOOTH",
"274 424 OFFCURVE",
"265 432 OFFCURVE",
"265 448 CURVE SMOOTH",
"265 468 OFFCURVE",
"273 484 OFFCURVE",
"289 498 CURVE SMOOTH",
"303 510 OFFCURVE",
"321 516 OFFCURVE",
"341 516 CURVE SMOOTH",
"366 516 OFFCURVE",
"386 507 OFFCURVE",
"401 490 CURVE SMOOTH",
"415 473 OFFCURVE",
"422 452 OFFCURVE",
"422 426 CURVE SMOOTH",
"422 388 OFFCURVE",
"408 355 OFFCURVE",
"379 328 CURVE SMOOTH",
"350 301 OFFCURVE",
"316 287 OFFCURVE",
"278 287 CURVE SMOOTH",
"244 287 OFFCURVE",
"216 298 OFFCURVE",
"194 321 CURVE SMOOTH",
"173 344 OFFCURVE",
"163 372 OFFCURVE",
"163 406 CURVE SMOOTH",
"163 439 OFFCURVE",
"173 472 OFFCURVE",
"192 504 CURVE SMOOTH",
"223 556 OFFCURVE",
"271 595 OFFCURVE",
"335 621 CURVE SMOOTH",
"390 643 OFFCURVE",
"452 654 OFFCURVE",
"521 654 CURVE SMOOTH",
"581 654 OFFCURVE",
"635 646 OFFCURVE",
"683 630 CURVE",
"602 581 OFFCURVE",
"522 474 OFFCURVE",
"443 311 CURVE SMOOTH",
"421 263 OFFCURVE",
"400 215 OFFCURVE",
"377 168 CURVE SMOOTH",
"347 106 OFFCURVE",
"315 59 OFFCURVE",
"284 26 CURVE SMOOTH",
"243 -17 OFFCURVE",
"198 -39 OFFCURVE",
"151 -39 CURVE SMOOTH",
"142 -39 OFFCURVE",
"129 -37 OFFCURVE",
"112 -33 CURVE SMOOTH",
"96 -30 OFFCURVE",
"83 -28 OFFCURVE",
"75 -28 CURVE SMOOTH",
"67 -28 OFFCURVE",
"62 -30 OFFCURVE",
"62 -34 CURVE SMOOTH",
"62 -42 OFFCURVE",
"72 -48 OFFCURVE",
"91 -53 CURVE SMOOTH",
"98 -55 OFFCURVE",
"111 -56 OFFCURVE",
"131 -56 CURVE SMOOTH"
);
}
);
width = 738;
}
);
note = P;
unicode = 0050;
},
{
glyphname = Thorn;
lastChange = "2021-10-29 07:10:18 +0000";
layers = (
{
layerId = "171CD109-D0B0-4A7B-9E5C-4BA88B29FB0C";
paths = (
{
closed = 1;
nodes = (
"-152 -308 OFFCURVE",
"-76 -258 OFFCURVE",
"-4 -157 CURVE SMOOTH",
"13 -135 OFFCURVE",
"41 -82 OFFCURVE",
"80 1 CURVE SMOOTH",
"131 110 OFFCURVE",
"181 310 OFFCURVE",
"274 464 CURVE SMOOTH",
"330 557 OFFCURVE",
"376 619 OFFCURVE",
"413 649 CURVE SMOOTH",
"431 664 OFFCURVE",
"452 673 OFFCURVE",
"474 675 CURVE SMOOTH",
"496 677 LINE",
"511 682 OFFCURVE",
"519 691 OFFCURVE",
"519 704 CURVE SMOOTH",
"519 719 OFFCURVE",
"511 726 OFFCURVE",
"495 726 CURVE SMOOTH",
"421 726 OFFCURVE",
"317 611 OFFCURVE",
"194 375 CURVE SMOOTH",
"113 221 OFFCURVE",
"40 63 OFFCURVE",
"-40 -91 CURVE SMOOTH",
"-62 -134 OFFCURVE",
"-96 -173 OFFCURVE",
"-133 -213 CURVE SMOOTH",
"-182 -266 OFFCURVE",
"-222 -292 OFFCURVE",
"-253 -292 CURVE SMOOTH",
"-279 -292 OFFCURVE",
"-298 -274 OFFCURVE",
"-308 -237 CURVE",
"-310 -236 LINE",
"-316 -239 LINE",
"-317 -241 LINE",
"-313 -259 OFFCURVE",
"-302 -275 OFFCURVE",
"-286 -288 CURVE SMOOTH",
"-270 -301 OFFCURVE",
"-252 -308 OFFCURVE",
"-233 -308 CURVE SMOOTH"
);
},
{
closed = 1;
nodes = (
"153 -2 OFFCURVE",
"133 29 OFFCURVE",
"133 77 CURVE SMOOTH",
"133 158 OFFCURVE",
"191 285 OFFCURVE",
"260 386 CURVE SMOOTH",
"351 520 OFFCURVE",
"451 586 OFFCURVE",
"522 586 CURVE SMOOTH",
"551 586 OFFCURVE",
"579 571 OFFCURVE",
"579 497 CURVE SMOOTH",
"579 283 OFFCURVE",
"409 -2 OFFCURVE",
"203 -2 CURVE SMOOTH"
);
},
{
closed = 1;
nodes = (
"404 -12 OFFCURVE",
"589 203 OFFCURVE",
"625 389 CURVE SMOOTH",
"631 420 OFFCURVE",
"634 447 OFFCURVE",
"634 470 CURVE SMOOTH",
"634 565 OFFCURVE",
"588 596 OFFCURVE",
"526 596 CURVE SMOOTH",
"423 596 OFFCURVE",
"288 475 OFFCURVE",
"193 306 CURVE SMOOTH",
"145 221 OFFCURVE",
"117 142 OFFCURVE",
"117 84 CURVE SMOOTH",
"117 25 OFFCURVE",
"146 -12 OFFCURVE",
"211 -12 CURVE SMOOTH"
);
}
);
width = 584;
}
);
note = Thorn;
unicode = 00DE;
},
{
glyphname = Q;
lastChange = "2021-10-29 07:10:18 +0000";
layers = (
{
layerId = "171CD109-D0B0-4A7B-9E5C-4BA88B29FB0C";
paths = (
{
closed = 1;
nodes = (
"473 -49 OFFCURVE",
"507 -42 OFFCURVE",
"541 -27 CURVE SMOOTH",
"585 -9 OFFCURVE",
"606 14 OFFCURVE",
"606 43 CURVE SMOOTH",
"606 61 OFFCURVE",
"602 70 OFFCURVE",
"593 70 CURVE SMOOTH",
"590 70 OFFCURVE",
"589 67 OFFCURVE",
"589 62 CURVE SMOOTH",
"589 60 OFFCURVE",
"589 57 OFFCURVE",
"590 52 CURVE SMOOTH",
"591 48 OFFCURVE",
"591 44 OFFCURVE",
"591 42 CURVE SMOOTH",
"591 26 OFFCURVE",
"575 14 OFFCURVE",
"542 5 CURVE SMOOTH",
"519 -1 OFFCURVE",
"496 -4 OFFCURVE",
"473 -4 CURVE SMOOTH",
"427 -4 OFFCURVE",
"357 12 OFFCURVE",
"264 42 CURVE",
"326 60 OFFCURVE",
"391 87 OFFCURVE",
"462 125 CURVE SMOOTH",
"541 168 OFFCURVE",
"599 210 OFFCURVE",
"633 251 CURVE SMOOTH",
"693 322 OFFCURVE",
"723 394 OFFCURVE",
"723 468 CURVE SMOOTH",
"723 521 OFFCURVE",
"703 563 OFFCURVE",
"665 592 CURVE SMOOTH",
"631 618 OFFCURVE",
"586 631 OFFCURVE",
"530 631 CURVE SMOOTH",
"471 631 OFFCURVE",
"413 616 OFFCURVE",
"357 587 CURVE SMOOTH",
"303 559 OFFCURVE",
"256 521 OFFCURVE",
"217 473 CURVE SMOOTH",
"157 400 OFFCURVE",
"127 329 OFFCURVE",
"127 260 CURVE SMOOTH",
"127 224 OFFCURVE",
"137 195 OFFCURVE",
"158 172 CURVE SMOOTH",
"180 148 OFFCURVE",
"209 137 OFFCURVE",
"244 137 CURVE SMOOTH",
"279 137 OFFCURVE",
"315 146 OFFCURVE",
"354 166 CURVE SMOOTH",
"396 187 OFFCURVE",
"422 212 OFFCURVE",
"434 242 CURVE SMOOTH",
"435 245 OFFCURVE",
"435 248 OFFCURVE",
"435 251 CURVE SMOOTH",
"435 255 OFFCURVE",
"434 257 OFFCURVE",
"431 257 CURVE SMOOTH",
"428 257 OFFCURVE",
"425 253 OFFCURVE",
"421 243 CURVE SMOOTH",
"411 218 OFFCURVE",
"389 197 OFFCURVE",
"357 179 CURVE SMOOTH",
"327 163 OFFCURVE",
"297 155 OFFCURVE",
"268 155 CURVE SMOOTH",
"235 155 OFFCURVE",
"209 166 OFFCURVE",
"190 188 CURVE SMOOTH",
"173 209 OFFCURVE",
"164 236 OFFCURVE",
"164 270 CURVE SMOOTH",
"164 290 OFFCURVE",
"167 312 OFFCURVE",
"174 333 CURVE SMOOTH",
"185 371 OFFCURVE",
"202 406 OFFCURVE",
"224 438 CURVE SMOOTH",
"258 488 OFFCURVE",
"302 530 OFFCURVE",
"357 563 CURVE SMOOTH",
"415 599 OFFCURVE",
"473 617 OFFCURVE",
"529 617 CURVE SMOOTH",
"616 617 OFFCURVE",
"660 575 OFFCURVE",
"660 489 CURVE SMOOTH",
"660 453 OFFCURVE",
"651 412 OFFCURVE",
"634 368 CURVE SMOOTH",
"619 327 OFFCURVE",
"599 290 OFFCURVE",
"576 257 CURVE SMOOTH",
"528 191 OFFCURVE",
"442 130 OFFCURVE",
"318 74 CURVE SMOOTH",
"294 64 OFFCURVE",
"269 55 OFFCURVE",
"243 49 CURVE",
"188 66 OFFCURVE",
"147 75 OFFCURVE",
"120 75 CURVE SMOOTH",
"108 75 OFFCURVE",
"96 74 OFFCURVE",
"84 70 CURVE SMOOTH",
"66 66 OFFCURVE",
"58 59 OFFCURVE",
"58 50 CURVE SMOOTH",
"58 32 OFFCURVE",
"87 23 OFFCURVE",
"146 23 CURVE SMOOTH",
"171 23 OFFCURVE",
"198 26 OFFCURVE",
"225 32 CURVE",
"280 1 OFFCURVE",
"314 -17 OFFCURVE",
"327 -23 CURVE SMOOTH",
"366 -41 OFFCURVE",
"404 -49 OFFCURVE",
"439 -49 CURVE SMOOTH"
);
},
{
closed = 1;
nodes = (
"111 37 OFFCURVE",
"91 42 OFFCURVE",
"91 51 CURVE SMOOTH",
"91 60 OFFCURVE",
"105 64 OFFCURVE",
"133 64 CURVE SMOOTH",
"155 64 OFFCURVE",
"180 57 OFFCURVE",
"208 42 CURVE",
"189 39 OFFCURVE",
"170 37 OFFCURVE",
"152 37 CURVE SMOOTH"
);
}
);
width = 638;
}
);
note = Q;
unicode = 0051;
},
{
glyphname = R;
lastChange = "2021-10-29 07:10:48 +0000";
layers = (
{
anchors = (
{
name = bottom;
position = "{460, 0}";
},
{
name = top;
position = "{786, 612}";
}
);
layerId = "171CD109-D0B0-4A7B-9E5C-4BA88B29FB0C";
paths = (
{
closed = 1;
nodes = (
"170 -32 OFFCURVE",
"190 -29 OFFCURVE",
"211 -24 CURVE SMOOTH",
"285 -7 OFFCURVE",
"346 32 OFFCURVE",
"395 91 CURVE SMOOTH",
"430 134 OFFCURVE",
"465 198 OFFCURVE",
"501 285 CURVE",
"507 284 OFFCURVE",
"516 283 OFFCURVE",
"526 283 CURVE SMOOTH",
"546 283 LINE",
"551 265 OFFCURVE",
"554 232 OFFCURVE",
"554 185 CURVE SMOOTH",
"555 136 OFFCURVE",
"558 101 OFFCURVE",
"562 79 CURVE SMOOTH",
"570 42 OFFCURVE",
"585 15 OFFCURVE",
"609 -1 CURVE SMOOTH",
"621 -10 OFFCURVE",
"635 -15 OFFCURVE",
"650 -15 CURVE SMOOTH",
"685 -15 OFFCURVE",
"721 6 OFFCURVE",
"759 49 CURVE SMOOTH",
"790 85 OFFCURVE",
"813 123 OFFCURVE",
"826 162 CURVE",
"826 164 LINE",
"821 166 LINE",
"819 165 LINE",
"810 132 OFFCURVE",
"791 98 OFFCURVE",
"762 63 CURVE SMOOTH",
"728 24 OFFCURVE",
"697 4 OFFCURVE",
"667 4 CURVE SMOOTH",
"659 4 OFFCURVE",
"651 6 OFFCURVE",
"643 9 CURVE SMOOTH",
"625 15 OFFCURVE",
"611 45 OFFCURVE",
"604 98 CURVE SMOOTH",
"599 134 OFFCURVE",
"597 170 OFFCURVE",
"593 206 CURVE SMOOTH",
"589 240 OFFCURVE",
"583 267 OFFCURVE",
"576 286 CURVE",
"631 292 OFFCURVE",
"678 307 OFFCURVE",
"719 333 CURVE SMOOTH",
"769 365 OFFCURVE",
"794 405 OFFCURVE",
"794 454 CURVE SMOOTH",
"794 507 OFFCURVE",
"758 546 OFFCURVE",
"687 573 CURVE",
"714 594 OFFCURVE",
"743 607 OFFCURVE",
"774 611 CURVE SMOOTH",
"786 612 OFFCURVE",
"796 613 OFFCURVE",
"802 613 CURVE SMOOTH",
"804 613 OFFCURVE",
"805 614 OFFCURVE",
"805 616 CURVE SMOOTH",
"805 617 OFFCURVE",
"803 618 OFFCURVE",
"797 618 CURVE SMOOTH",
"759 618 OFFCURVE",
"718 604 OFFCURVE",
"674 578 CURVE",
"627 593 OFFCURVE",
"573 601 OFFCURVE",
"512 601 CURVE SMOOTH",
"432 601 OFFCURVE",
"360 589 OFFCURVE",
"296 564 CURVE SMOOTH",
"218 534 OFFCURVE",
"164 488 OFFCURVE",
"134 428 CURVE SMOOTH",
"120 401 OFFCURVE",
"113 374 OFFCURVE",
"113 346 CURVE SMOOTH",
"113 306 OFFCURVE",
"128 273 OFFCURVE",
"156 247 CURVE SMOOTH",
"183 222 OFFCURVE",
"217 210 OFFCURVE",
"259 210 CURVE SMOOTH",
"303 210 OFFCURVE",
"342 224 OFFCURVE",
"375 252 CURVE SMOOTH",
"410 282 OFFCURVE",
"427 319 OFFCURVE",
"427 363 CURVE SMOOTH",
"427 391 OFFCURVE",
"418 415 OFFCURVE",
"399 434 CURVE SMOOTH",
"381 453 OFFCURVE",
"357 462 OFFCURVE",
"329 462 CURVE SMOOTH",
"307 462 OFFCURVE",
"287 454 OFFCURVE",
"269 439 CURVE SMOOTH",
"250 423 OFFCURVE",
"240 404 OFFCURVE",
"240 383 CURVE SMOOTH",
"240 361 OFFCURVE",
"251 351 OFFCURVE",
"274 351 CURVE SMOOTH",
"281 351 OFFCURVE",
"285 354 OFFCURVE",
"285 361 CURVE SMOOTH",
"285 362 OFFCURVE",
"285 363 OFFCURVE",
"283 364 CURVE",
"281 364 OFFCURVE",
"279 362 OFFCURVE",
"278 361 CURVE SMOOTH",
"277 359 OFFCURVE",
"276 358 OFFCURVE",
"275 358 CURVE SMOOTH",
"257 358 OFFCURVE",
"249 366 OFFCURVE",
"249 382 CURVE SMOOTH",
"249 402 OFFCURVE",
"257 419 OFFCURVE",
"272 432 CURVE SMOOTH",
"287 444 OFFCURVE",
"304 450 OFFCURVE",
"324 450 CURVE SMOOTH",
"350 450 OFFCURVE",
"370 442 OFFCURVE",
"385 424 CURVE SMOOTH",
"399 407 OFFCURVE",
"406 386 OFFCURVE",
"406 360 CURVE SMOOTH",
"406 322 OFFCURVE",
"391 290 OFFCURVE",
"362 262 CURVE SMOOTH",
"333 235 OFFCURVE",
"299 221 OFFCURVE",
"261 221 CURVE SMOOTH",
"227 221 OFFCURVE",
"199 233 OFFCURVE",
"178 256 CURVE SMOOTH",
"157 278 OFFCURVE",
"146 306 OFFCURVE",
"146 341 CURVE SMOOTH",
"146 373 OFFCURVE",
"156 406 OFFCURVE",
"175 438 CURVE SMOOTH",
"206 490 OFFCURVE",
"254 529 OFFCURVE",
"319 555 CURVE SMOOTH",
"374 577 OFFCURVE",
"435 589 OFFCURVE",
"504 589 CURVE SMOOTH",
"565 589 OFFCURVE",
"616 581 OFFCURVE",
"656 566 CURVE",
"585 516 OFFCURVE",
"522 434 OFFCURVE",
"466 320 CURVE SMOOTH",
"421 226 OFFCURVE",
"397 178 OFFCURVE",
"397 177 CURVE",
"365 117 OFFCURVE",
"332 72 OFFCURVE",
"299 41 CURVE SMOOTH",
"256 0 OFFCURVE",
"209 -20 OFFCURVE",
"158 -20 CURVE SMOOTH",
"143 -20 OFFCURVE",
"130 -17 OFFCURVE",
"117 -11 CURVE SMOOTH",
"102 -3 OFFCURVE",
"95 7 OFFCURVE",
"95 21 CURVE SMOOTH",
"95 29 OFFCURVE",
"97 36 OFFCURVE",
"103 43 CURVE SMOOTH",
"108 50 OFFCURVE",
"115 54 OFFCURVE",
"122 54 CURVE SMOOTH",
"124 54 OFFCURVE",
"126 54 OFFCURVE",
"129 53 CURVE SMOOTH",
"132 52 OFFCURVE",
"134 51 OFFCURVE",
"136 51 CURVE SMOOTH",
"138 51 OFFCURVE",
"139 53 OFFCURVE",
"139 57 CURVE SMOOTH",
"139 62 OFFCURVE",
"135 64 OFFCURVE",
"126 64 CURVE SMOOTH",
"113 64 OFFCURVE",
"103 59 OFFCURVE",
"94 49 CURVE SMOOTH",
"86 40 OFFCURVE",
"82 28 OFFCURVE",
"82 15 CURVE SMOOTH",
"82 -16 OFFCURVE",
"105 -32 OFFCURVE",
"152 -32 CURVE SMOOTH"
);
},
{
closed = 1;
nodes = (
"520 295 OFFCURVE",
"513 296 OFFCURVE",
"506 296 CURVE",
"512 310 OFFCURVE",
"516 321 OFFCURVE",
"520 328 CURVE",
"529 322 OFFCURVE",
"537 311 OFFCURVE",
"543 296 CURVE",
"534 295 LINE",
"527 295 LINE SMOOTH"
);
},
{
closed = 1;
nodes = (
"561 318 OFFCURVE",
"546 332 OFFCURVE",
"525 340 CURVE",
"572 442 OFFCURVE",
"620 516 OFFCURVE",
"671 560 CURVE",
"724 536 OFFCURVE",
"751 501 OFFCURVE",
"751 455 CURVE SMOOTH",
"751 412 OFFCURVE",
"731 376 OFFCURVE",
"691 346 CURVE SMOOTH",
"657 322 OFFCURVE",
"617 306 OFFCURVE",
"571 298 CURVE"
);
}
);
width = 738;
}
);
note = R;
unicode = 0052;
},
{
glyphname = S;
lastChange = "2021-10-29 07:10:48 +0000";
layers = (
{
anchors = (
{
name = bottom;
position = "{122, -35}";
},
{
name = top;
position = "{567, 618}";
}
);
layerId = "171CD109-D0B0-4A7B-9E5C-4BA88B29FB0C";
paths = (
{
closed = 1;
nodes = (
"275 -103 OFFCURVE",
"283 -99 OFFCURVE",
"283 -92 CURVE SMOOTH",
"283 -88 OFFCURVE",
"281 -86 OFFCURVE",
"277 -86 CURVE SMOOTH",
"275 -86 OFFCURVE",
"271 -87 OFFCURVE",
"266 -89 CURVE SMOOTH",
"260 -91 OFFCURVE",
"257 -92 OFFCURVE",
"254 -92 CURVE SMOOTH",
"252 -92 OFFCURVE",
"248 -91 OFFCURVE",
"241 -88 CURVE SMOOTH",
"214 -79 OFFCURVE",
"194 -64 OFFCURVE",
"180 -41 CURVE",
"191 -42 OFFCURVE",
"203 -43 OFFCURVE",
"214 -43 CURVE SMOOTH",
"304 -43 OFFCURVE",
"384 -16 OFFCURVE",
"455 36 CURVE SMOOTH",
"532 94 OFFCURVE",
"571 166 OFFCURVE",
"571 253 CURVE SMOOTH",
"571 283 OFFCURVE",
"564 322 OFFCURVE",
"550 369 CURVE SMOOTH",
"533 425 OFFCURVE",
"524 463 OFFCURVE",
"521 482 CURVE",
"575 529 OFFCURVE",
"602 566 OFFCURVE",
"602 593 CURVE SMOOTH",
"602 601 OFFCURVE",
"598 610 OFFCURVE",
"590 617 CURVE SMOOTH",
"583 624 OFFCURVE",
"574 628 OFFCURVE",
"565 628 CURVE SMOOTH",
"526 628 OFFCURVE",
"506 586 OFFCURVE",
"506 501 CURVE SMOOTH",
"506 482 LINE",
"449 436 OFFCURVE",
"405 402 OFFCURVE",
"376 380 CURVE",
"345 408 OFFCURVE",
"304 421 OFFCURVE",
"253 421 CURVE SMOOTH",
"180 421 OFFCURVE",
"116 395 OFFCURVE",
"63 342 CURVE SMOOTH",
"10 289 OFFCURVE",
"-17 225 OFFCURVE",
"-17 152 CURVE SMOOTH",
"-17 98 OFFCURVE",
"0 53 OFFCURVE",
"35 19 CURVE SMOOTH",
"68 -12 OFFCURVE",
"112 -32 OFFCURVE",
"167 -40 CURVE",
"182 -66 OFFCURVE",
"207 -85 OFFCURVE",
"243 -97 CURVE",
"249 -100 OFFCURVE",
"255 -101 OFFCURVE",
"260 -103 CURVE"
);
},
{
closed = 1;
nodes = (
"116 -23 OFFCURVE",
"79 -4 OFFCURVE",
"48 29 CURVE SMOOTH",
"17 63 OFFCURVE",
"2 102 OFFCURVE",
"2 146 CURVE SMOOTH",
"2 210 OFFCURVE",
"27 269 OFFCURVE",
"77 323 CURVE SMOOTH",
"128 379 OFFCURVE",
"185 407 OFFCURVE",
"248 407 CURVE SMOOTH",
"293 407 OFFCURVE",
"330 393 OFFCURVE",
"359 366 CURVE",
"273 295 OFFCURVE",
"215 226 OFFCURVE",
"185 159 CURVE",
"172 173 OFFCURVE",
"166 188 OFFCURVE",
"166 205 CURVE SMOOTH",
"166 220 OFFCURVE",
"170 233 OFFCURVE",
"180 247 CURVE",
"179 247 LINE",
"182 248 OFFCURVE",
"183 251 OFFCURVE",
"184 254 CURVE",
"183 255 OFFCURVE",
"182 256 OFFCURVE",
"180 256 CURVE SMOOTH",
"174 256 OFFCURVE",
"169 249 OFFCURVE",
"164 235 CURVE SMOOTH",
"160 224 OFFCURVE",
"158 214 OFFCURVE",
"158 207 CURVE SMOOTH",
"158 185 OFFCURVE",
"166 166 OFFCURVE",
"182 151 CURVE",
"162 103 OFFCURVE",
"152 61 OFFCURVE",
"152 24 CURVE SMOOTH",
"152 6 OFFCURVE",
"155 -11 OFFCURVE",
"161 -25 CURVE"
);
},
{
closed = 1;
nodes = (
"228 133 OFFCURVE",
"210 139 OFFCURVE",
"195 150 CURVE",
"227 218 OFFCURVE",
"284 288 OFFCURVE",
"367 358 CURVE",
"386 336 OFFCURVE",
"396 312 OFFCURVE",
"396 284 CURVE SMOOTH",
"396 248 OFFCURVE",
"380 214 OFFCURVE",
"350 182 CURVE SMOOTH",
"319 149 OFFCURVE",
"285 133 OFFCURVE",
"250 133 CURVE SMOOTH"
);
},
{
closed = 1;
nodes = (
"166 -10 OFFCURVE",
"162 8 OFFCURVE",
"162 28 CURVE SMOOTH",
"162 62 OFFCURVE",
"172 100 OFFCURVE",
"191 143 CURVE",
"207 132 OFFCURVE",
"228 126 OFFCURVE",
"254 126 CURVE SMOOTH",
"299 126 OFFCURVE",
"337 142 OFFCURVE",
"370 174 CURVE SMOOTH",
"402 205 OFFCURVE",
"418 243 OFFCURVE",
"418 288 CURVE SMOOTH",
"418 321 OFFCURVE",
"407 349 OFFCURVE",
"384 372 CURVE",
"439 416 OFFCURVE",
"479 449 OFFCURVE",
"507 470 CURVE",
"512 379 OFFCURVE",
"515 339 OFFCURVE",
"515 349 CURVE SMOOTH",
"515 282 OFFCURVE",
"499 217 OFFCURVE",
"466 153 CURVE SMOOTH",
"457 134 OFFCURVE",
"440 113 OFFCURVE",
"416 90 CURVE SMOOTH",
"382 58 OFFCURVE",
"344 32 OFFCURVE",
"303 11 CURVE SMOOTH",
"256 -13 OFFCURVE",
"213 -25 OFFCURVE",
"172 -25 CURVE"
);
},
{
closed = 1;
nodes = (
"518 504 OFFCURVE",
"518 513 OFFCURVE",
"518 522 CURVE SMOOTH",
"518 586 OFFCURVE",
"534 618 OFFCURVE",
"567 618 CURVE SMOOTH",
"585 618 OFFCURVE",
"593 611 OFFCURVE",
"593 598 CURVE SMOOTH",
"593 573 OFFCURVE",
"569 538 OFFCURVE",
"519 494 CURVE"
);
}
);
width = 570;
}
);
note = S;
unicode = 0053;
},
{
glyphname = Germandbls;
lastChange = "2021-10-29 07:10:18 +0000";
layers = (
{
layerId = "171CD109-D0B0-4A7B-9E5C-4BA88B29FB0C";
paths = (
{
closed = 1;
nodes = (
"-108 -214 OFFCURVE",
"2 -162 OFFCURVE",
"108 -12 CURVE SMOOTH",
"141 35 OFFCURVE",
"239 217 OFFCURVE",
"284 320 CURVE SMOOTH",
"336 440 OFFCURVE",
"397 581 OFFCURVE",
"491 581 CURVE SMOOTH",
"538 581 OFFCURVE",
"558 555 OFFCURVE",
"558 521 CURVE SMOOTH",
"558 465 OFFCURVE",
"506 388 OFFCURVE",
"430 360 CURVE SMOOTH",
"400 349 OFFCURVE",
"386 340 OFFCURVE",
"386 328 CURVE SMOOTH",
"386 322 OFFCURVE",
"425 316 OFFCURVE",
"446 306 CURVE SMOOTH",
"494 284 OFFCURVE",
"515 246 OFFCURVE",
"515 204 CURVE SMOOTH",
"515 110 OFFCURVE",
"412 -3 OFFCURVE",
"273 -3 CURVE SMOOTH",
"215 -3 OFFCURVE",
"199 5 OFFCURVE",
"199 23 CURVE SMOOTH",
"199 70 OFFCURVE",
"273 113 OFFCURVE",
"347 127 CURVE SMOOTH",
"355 128 OFFCURVE",
"359 130 OFFCURVE",
"359 132 CURVE SMOOTH",
"359 135 OFFCURVE",
"356 136 OFFCURVE",
"350 136 CURVE SMOOTH",
"292 136 OFFCURVE",
"157 72 OFFCURVE",
"157 16 CURVE SMOOTH",
"157 -10 OFFCURVE",
"186 -25 OFFCURVE",
"254 -25 CURVE SMOOTH",
"429 -25 OFFCURVE",
"580 102 OFFCURVE",
"580 207 CURVE SMOOTH",
"580 256 OFFCURVE",
"547 300 OFFCURVE",
"470 324 CURVE SMOOTH",
"444 331 OFFCURVE",
"431 338 OFFCURVE",
"431 345 CURVE SMOOTH",
"431 346 OFFCURVE",
"433 347 OFFCURVE",
"438 347 CURVE SMOOTH",
"463 350 OFFCURVE",
"484 356 OFFCURVE",
"501 363 CURVE SMOOTH",
"566 389 OFFCURVE",
"599 446 OFFCURVE",
"599 496 CURVE SMOOTH",
"599 549 OFFCURVE",
"563 596 OFFCURVE",
"491 595 CURVE SMOOTH",
"356 595 OFFCURVE",
"298 459 OFFCURVE",
"232 328 CURVE SMOOTH",
"173 208 OFFCURVE",
"50 -44 OFFCURVE",
"-27 -126 CURVE SMOOTH",
"-74 -176 OFFCURVE",
"-135 -198 OFFCURVE",
"-183 -198 CURVE SMOOTH",
"-227 -198 OFFCURVE",
"-260 -179 OFFCURVE",
"-260 -146 CURVE SMOOTH",
"-260 -132 OFFCURVE",
"-266 -123 OFFCURVE",
"-271 -123 CURVE SMOOTH",
"-275 -123 OFFCURVE",
"-279 -129 OFFCURVE",
"-279 -145 CURVE SMOOTH",
"-279 -184 OFFCURVE",
"-242 -214 OFFCURVE",
"-184 -214 CURVE SMOOTH"
);
}
);
width = 549;
}
);
unicode = 1E9E;
},
{
glyphname = Schwa;
lastChange = "2021-10-29 07:10:18 +0000";
layers = (
{
background = {
components = (
{
name = C;
transform = "{1, 0, 0, 1, 5, 0}";
}
);
};
layerId = "171CD109-D0B0-4A7B-9E5C-4BA88B29FB0C";
paths = (
{
closed = 1;
nodes = (
"306 -52 OFFCURVE",
"398 4 OFFCURVE",
"484 115 CURVE SMOOTH",
"566 221 OFFCURVE",
"606 322 OFFCURVE",
"606 420 CURVE SMOOTH",
"606 555 OFFCURVE",
"562 633 OFFCURVE",
"429 633 CURVE SMOOTH",
"236 633 OFFCURVE",
"157 460 OFFCURVE",
"65 276 CURVE SMOOTH",
"62 270 OFFCURVE",
"60 266 OFFCURVE",
"60 263 CURVE SMOOTH",
"60 259 OFFCURVE",
"62 257 OFFCURVE",
"65 257 CURVE SMOOTH",
"68 257 OFFCURVE",
"72 260 OFFCURVE",
"75 267 CURVE SMOOTH",
"150 424 OFFCURVE",
"243 612 OFFCURVE",
"414 612 CURVE SMOOTH",
"482 612 OFFCURVE",
"534 556 OFFCURVE",
"534 466 CURVE SMOOTH",
"534 423 OFFCURVE",
"530 377 OFFCURVE",
"514 333 CURVE",
"415 333 OFFCURVE",
"296 295 OFFCURVE",
"189 187 CURVE SMOOTH",
"140 137 OFFCURVE",
"110 76 OFFCURVE",
"110 18 CURVE SMOOTH",
"110 -29 OFFCURVE",
"144 -52 OFFCURVE",
"214 -52 CURVE SMOOTH"
);
},
{
closed = 1;
nodes = (
"142 -27 OFFCURVE",
"128 -7 OFFCURVE",
"128 22 CURVE SMOOTH",
"128 64 OFFCURVE",
"158 125 OFFCURVE",
"204 171 CURVE SMOOTH",
"291 258 OFFCURVE",
"381 320 OFFCURVE",
"512 320 CURVE",
"492 259 OFFCURVE",
"459 194 OFFCURVE",
"392 113 CURVE SMOOTH",
"319 20 OFFCURVE",
"226 -27 OFFCURVE",
"175 -27 CURVE SMOOTH"
);
}
);
width = 506;
}
);
unicode = 018F;
},
{
glyphname = T;
lastChange = "2021-10-29 07:10:48 +0000";
layers = (
{
anchors = (
{
name = bottom;
position = "{187, -49}";
},
{
name = center;
position = "{678, 365}";
},
{
name = top;
position = "{819, 561}";
}
);
layerId = "171CD109-D0B0-4A7B-9E5C-4BA88B29FB0C";
paths = (
{
closed = 1;
nodes = (
"210 -56 LINE SMOOTH",
"272 -56 OFFCURVE",
"326 -40 OFFCURVE",
"371 -22 CURVE SMOOTH",
"416 -3 OFFCURVE",
"462 26 OFFCURVE",
"509 67 CURVE SMOOTH",
"576 125 OFFCURVE",
"632 207 OFFCURVE",
"675 311 CURVE SMOOTH",
"716 409 OFFCURVE",
"758 479 OFFCURVE",
"800 522 CURVE",
"835 510 OFFCURVE",
"865 504 OFFCURVE",
"889 504 CURVE SMOOTH",
"932 504 OFFCURVE",
"954 517 OFFCURVE",
"954 541 CURVE SMOOTH",
"954 565 OFFCURVE",
"937 577 OFFCURVE",
"904 577 CURVE SMOOTH",
"870 577 OFFCURVE",
"832 564 OFFCURVE",
"791 537 CURVE",
"699 571 OFFCURVE",
"643 590 OFFCURVE",
"625 596 CURVE SMOOTH",
"561 615 OFFCURVE",
"503 625 OFFCURVE",
"452 625 CURVE SMOOTH",
"383 625 OFFCURVE",
"321 608 OFFCURVE",
"268 573 CURVE SMOOTH",
"240 555 OFFCURVE",
"218 527 OFFCURVE",
"201 490 CURVE SMOOTH",
"185 455 OFFCURVE",
"177 420 OFFCURVE",
"177 385 CURVE SMOOTH",
"177 370 OFFCURVE",
"179 355 OFFCURVE",
"182 341 CURVE",
"129 331 OFFCURVE",
"84 306 OFFCURVE",
"47 265 CURVE SMOOTH",
"9 223 OFFCURVE",
"-10 176 OFFCURVE",
"-10 122 CURVE SMOOTH",
"-10 71 OFFCURVE",
"12 27 OFFCURVE",
"56 -7 CURVE SMOOTH",
"96 -40 OFFCURVE",
"143 -56 OFFCURVE",
"196 -56 CURVE SMOOTH"
);
},
{
closed = 1;
nodes = (
"286 247 OFFCURVE",
"265 256 OFFCURVE",
"247 274 CURVE SMOOTH",
"231 291 OFFCURVE",
"220 311 OFFCURVE",
"214 335 CURVE",
"221 336 OFFCURVE",
"228 337 OFFCURVE",
"234 337 CURVE SMOOTH",
"261 337 OFFCURVE",
"285 329 OFFCURVE",
"306 315 CURVE SMOOTH",
"329 299 OFFCURVE",
"343 279 OFFCURVE",
"350 254 CURVE",
"335 249 OFFCURVE",
"321 247 OFFCURVE",
"309 247 CURVE SMOOTH"
);
},
{
closed = 1;
nodes = (
"158 -41 OFFCURVE",
"115 -29 OFFCURVE",
"83 -7 CURVE SMOOTH",
"47 20 OFFCURVE",
"28 58 OFFCURVE",
"28 109 CURVE SMOOTH",
"28 157 OFFCURVE",
"43 201 OFFCURVE",
"72 242 CURVE SMOOTH",
"102 283 OFFCURVE",
"140 312 OFFCURVE",
"186 328 CURVE",
"194 300 OFFCURVE",
"209 279 OFFCURVE",
"230 262 CURVE SMOOTH",
"252 245 OFFCURVE",
"277 237 OFFCURVE",
"305 237 CURVE SMOOTH",
"320 237 OFFCURVE",
"336 239 OFFCURVE",
"352 244 CURVE",
"352 239 OFFCURVE",
"353 233 OFFCURVE",
"353 227 CURVE SMOOTH",
"353 185 OFFCURVE",
"339 152 OFFCURVE",
"311 127 CURVE SMOOTH",
"286 105 OFFCURVE",
"252 91 OFFCURVE",
"209 86 CURVE SMOOTH",
"202 85 OFFCURVE",
"199 82 OFFCURVE",
"199 78 CURVE SMOOTH",
"199 74 OFFCURVE",
"201 73 OFFCURVE",
"206 73 CURVE SMOOTH",
"248 73 OFFCURVE",
"284 87 OFFCURVE",
"316 116 CURVE SMOOTH",
"349 145 OFFCURVE",
"365 180 OFFCURVE",
"365 221 CURVE SMOOTH",
"365 230 OFFCURVE",
"364 239 OFFCURVE",
"363 248 CURVE",
"429 274 OFFCURVE",
"470 323 OFFCURVE",
"487 394 CURVE SMOOTH",
"488 398 OFFCURVE",
"488 401 OFFCURVE",
"488 402 CURVE SMOOTH",
"488 405 OFFCURVE",
"487 407 OFFCURVE",
"484 407 CURVE SMOOTH",
"481 407 OFFCURVE",
"479 404 OFFCURVE",
"479 399 CURVE SMOOTH",
"479 396 OFFCURVE",
"480 395 OFFCURVE",
"480 395 CURVE",
"474 365 OFFCURVE",
"460 338 OFFCURVE",
"437 312 CURVE SMOOTH",
"415 288 OFFCURVE",
"389 270 OFFCURVE",
"361 258 CURVE",
"344 317 OFFCURVE",
"300 346 OFFCURVE",
"229 346 CURVE SMOOTH",
"223 346 OFFCURVE",
"218 346 OFFCURVE",
"212 345 CURVE",
"211 353 OFFCURVE",
"211 361 OFFCURVE",
"211 370 CURVE SMOOTH",
"211 398 OFFCURVE",
"217 427 OFFCURVE",
"230 456 CURVE SMOOTH",
"244 485 OFFCURVE",
"261 509 OFFCURVE",
"282 528 CURVE SMOOTH",
"332 573 OFFCURVE",
"397 595 OFFCURVE",
"477 595 CURVE SMOOTH",
"546 595 OFFCURVE",
"646 573 OFFCURVE",
"780 529 CURVE",
"757 512 OFFCURVE",
"737 492 OFFCURVE",
"718 470 CURVE SMOOTH",
"678 419 OFFCURVE",
"641 369 OFFCURVE",
"608 318 CURVE SMOOTH",
"570 258 OFFCURVE",
"543 211 OFFCURVE",
"524 181 CURVE SMOOTH",
"485 119 OFFCURVE",
"441 70 OFFCURVE",
"392 31 CURVE SMOOTH",
"332 -17 OFFCURVE",
"271 -41 OFFCURVE",
"211 -41 CURVE SMOOTH"
);
},
{
closed = 1;
nodes = (
"870 512 OFFCURVE",
"843 518 OFFCURVE",
"809 530 CURVE",
"839 558 OFFCURVE",
"870 572 OFFCURVE",
"902 572 CURVE SMOOTH",
"930 572 OFFCURVE",
"944 561 OFFCURVE",
"944 541 CURVE SMOOTH",
"944 522 OFFCURVE",
"926 512 OFFCURVE",
"889 512 CURVE SMOOTH"
);
}
);
width = 659;
}
);
note = T;
unicode = 0054;
},
{
glyphname = U;
lastChange = "2021-10-29 07:10:48 +0000";
layers = (
{
anchors = (
{
name = bottom;
position = "{455, -15}";
},
{
name = ogonek;
position = "{737, -61}";
},
{
name = top;
position = "{746, 620}";
},
{
name = topright;
position = "{955, 559}";
}
);
layerId = "171CD109-D0B0-4A7B-9E5C-4BA88B29FB0C";
paths = (
{
closed = 1;
nodes = (
"720 -80 OFFCURVE",
"738 -74 OFFCURVE",
"758 -62 CURVE SMOOTH",
"773 -54 OFFCURVE",
"780 -48 OFFCURVE",
"780 -45 CURVE SMOOTH",
"780 -43 OFFCURVE",
"777 -41 OFFCURVE",
"772 -41 CURVE",
"772 -41 OFFCURVE",
"767 -45 OFFCURVE",
"757 -51 CURVE SMOOTH",
"746 -58 OFFCURVE",
"737 -61 OFFCURVE",
"729 -61 CURVE SMOOTH",
"704 -61 OFFCURVE",
"691 -33 OFFCURVE",
"691 24 CURVE SMOOTH",
"691 105 OFFCURVE",
"713 198 OFFCURVE",
"757 303 CURVE SMOOTH",
"802 414 OFFCURVE",
"855 493 OFFCURVE",
"914 538 CURVE SMOOTH",
"920 543 OFFCURVE",
"928 545 OFFCURVE",
"938 545 CURVE SMOOTH",
"943 545 OFFCURVE",
"950 544 OFFCURVE",
"959 542 CURVE SMOOTH",
"969 539 OFFCURVE",
"976 538 OFFCURVE",
"980 538 CURVE SMOOTH",
"993 538 OFFCURVE",
"1000 542 OFFCURVE",
"1000 550 CURVE SMOOTH",
"1000 560 OFFCURVE",
"988 564 OFFCURVE",
"964 564 CURVE SMOOTH",
"924 564 OFFCURVE",
"881 542 OFFCURVE",
"839 493 CURVE SMOOTH",
"799 444 OFFCURVE",
"772 404 OFFCURVE",
"753 377 CURVE SMOOTH",
"588 146 OFFCURVE",
"479 20 OFFCURVE",
"427 -3 CURVE SMOOTH",
"410 -11 OFFCURVE",
"393 -15 OFFCURVE",
"375 -15 CURVE SMOOTH",
"332 -15 OFFCURVE",
"310 7 OFFCURVE",
"310 50 CURVE SMOOTH",
"310 64 OFFCURVE",
"313 79 OFFCURVE",
"318 97 CURVE SMOOTH",
"325 122 OFFCURVE",
"344 157 OFFCURVE",
"375 202 CURVE",
"375 203 OFFCURVE",
"400 236 OFFCURVE",
"447 300 CURVE SMOOTH",
"484 349 OFFCURVE",
"511 390 OFFCURVE",
"530 420 CURVE SMOOTH",
"551 454 OFFCURVE",
"561 489 OFFCURVE",
"561 526 CURVE SMOOTH",
"561 583 OFFCURVE",
"538 626 OFFCURVE",
"490 655 CURVE SMOOTH",
"451 680 OFFCURVE",
"401 693 OFFCURVE",
"340 693 CURVE SMOOTH",
"257 693 OFFCURVE",
"182 667 OFFCURVE",
"115 615 CURVE SMOOTH",
"43 559 OFFCURVE",
"7 491 OFFCURVE",
"7 411 CURVE SMOOTH",
"7 369 OFFCURVE",
"18 334 OFFCURVE",
"41 305 CURVE SMOOTH",
"66 273 OFFCURVE",
"99 257 OFFCURVE",
"140 257 CURVE SMOOTH",
"179 257 OFFCURVE",
"214 269 OFFCURVE",
"245 294 CURVE SMOOTH",
"276 317 OFFCURVE",
"297 348 OFFCURVE",
"309 386 CURVE SMOOTH",
"311 391 OFFCURVE",
"312 396 OFFCURVE",
"312 401 CURVE SMOOTH",
"312 408 OFFCURVE",
"311 412 OFFCURVE",
"308 412 CURVE SMOOTH",
"305 412 OFFCURVE",
"299 404 OFFCURVE",
"299 390 CURVE SMOOTH",
"299 389 LINE",
"289 354 OFFCURVE",
"269 325 OFFCURVE",
"239 301 CURVE SMOOTH",
"209 278 OFFCURVE",
"176 266 OFFCURVE",
"139 266 CURVE SMOOTH",
"104 266 OFFCURVE",
"76 281 OFFCURVE",
"56 309 CURVE SMOOTH",
"37 334 OFFCURVE",
"28 365 OFFCURVE",
"28 401 CURVE SMOOTH",
"28 428 OFFCURVE",
"33 454 OFFCURVE",
"44 478 CURVE SMOOTH",
"71 540 OFFCURVE",
"111 589 OFFCURVE",
"164 625 CURVE SMOOTH",
"218 662 OFFCURVE",
"278 681 OFFCURVE",
"345 681 CURVE SMOOTH",
"391 681 OFFCURVE",
"429 672 OFFCURVE",
"458 655 CURVE SMOOTH",
"493 634 OFFCURVE",
"511 602 OFFCURVE",
"511 559 CURVE SMOOTH",
"511 513 OFFCURVE",
"490 451 OFFCURVE",
"447 373 CURVE SMOOTH",
"416 316 OFFCURVE",
"380 259 OFFCURVE",
"337 204 CURVE SMOOTH",
"298 151 OFFCURVE",
"278 101 OFFCURVE",
"278 53 CURVE SMOOTH",
"278 -2 OFFCURVE",
"304 -29 OFFCURVE",
"356 -29 CURVE SMOOTH",
"377 -29 OFFCURVE",
"402 -24 OFFCURVE",
"430 -14 CURVE SMOOTH",
"455 -4 OFFCURVE",
"487 21 OFFCURVE",
"526 63 CURVE SMOOTH",
"542 80 OFFCURVE",
"570 112 OFFCURVE",
"607 160 CURVE SMOOTH",
"664 235 OFFCURVE",
"705 293 OFFCURVE",
"732 331 CURVE SMOOTH",
"767 382 OFFCURVE",
"788 409 OFFCURVE",
"795 415 CURVE",
"691 282 OFFCURVE",
"640 156 OFFCURVE",
"640 38 CURVE SMOOTH",
"640 -41 OFFCURVE",
"661 -80 OFFCURVE",
"705 -80 CURVE SMOOTH"
);
}
);
width = 772;
}
);
note = U;
unicode = 0055;
},
{
glyphname = V;
lastChange = "2021-10-29 07:10:18 +0000";
layers = (
{
layerId = "171CD109-D0B0-4A7B-9E5C-4BA88B29FB0C";
paths = (
{
closed = 1;
nodes = (
"214 -46 OFFCURVE",
"249 -35 OFFCURVE",
"287 -12 CURVE",
"362 -8 OFFCURVE",
"432 19 OFFCURVE",
"495 69 CURVE SMOOTH",
"542 107 OFFCURVE",
"592 164 OFFCURVE",
"644 240 CURVE SMOOTH",
"781 445 LINE SMOOTH",
"835 526 OFFCURVE",
"881 582 OFFCURVE",
"917 614 CURVE SMOOTH",
"944 639 OFFCURVE",
"970 651 OFFCURVE",
"993 651 CURVE SMOOTH",
"1002 651 OFFCURVE",
"1011 649 OFFCURVE",
"1020 644 CURVE SMOOTH",
"1032 639 OFFCURVE",
"1038 632 OFFCURVE",
"1038 625 CURVE SMOOTH",
"1038 621 LINE",
"1037 619 OFFCURVE",
"1037 617 OFFCURVE",
"1037 616 CURVE SMOOTH",
"1037 613 OFFCURVE",
"1039 611 OFFCURVE",
"1041 611 CURVE SMOOTH",
"1047 611 OFFCURVE",
"1049 617 OFFCURVE",
"1049 629 CURVE SMOOTH",
"1049 640 OFFCURVE",
"1041 649 OFFCURVE",
"1025 656 CURVE SMOOTH",
"1011 662 OFFCURVE",
"998 665 OFFCURVE",
"986 665 CURVE SMOOTH",
"954 665 OFFCURVE",
"921 651 OFFCURVE",
"889 622 CURVE SMOOTH",
"857 593 OFFCURVE",
"824 554 OFFCURVE",
"790 505 CURVE SMOOTH",
"775 483 OFFCURVE",
"748 439 OFFCURVE",
"709 374 CURVE SMOOTH",
"677 320 OFFCURVE",
"650 277 OFFCURVE",
"628 245 CURVE SMOOTH",
"584 177 OFFCURVE",
"542 127 OFFCURVE",
"502 92 CURVE SMOOTH",
"452 49 OFFCURVE",
"394 19 OFFCURVE",
"328 2 CURVE SMOOTH",
"320 0 OFFCURVE",
"312 -1 OFFCURVE",
"304 -2 CURVE",
"411 66 OFFCURVE",
"480 142 OFFCURVE",
"513 226 CURVE SMOOTH",
"537 289 OFFCURVE",
"550 346 OFFCURVE",
"550 399 CURVE SMOOTH",
"550 460 OFFCURVE",
"532 510 OFFCURVE",
"498 550 CURVE SMOOTH",
"464 590 OFFCURVE",
"417 615 OFFCURVE",
"357 624 CURVE SMOOTH",
"348 626 OFFCURVE",
"340 626 OFFCURVE",
"331 626 CURVE SMOOTH",
"258 626 OFFCURVE",
"193 599 OFFCURVE",
"135 543 CURVE SMOOTH",
"77 488 OFFCURVE",
"48 423 OFFCURVE",
"48 351 CURVE SMOOTH",
"48 312 OFFCURVE",
"59 278 OFFCURVE",
"81 248 CURVE SMOOTH",
"105 215 OFFCURVE",
"136 199 OFFCURVE",
"174 199 CURVE SMOOTH",
"214 199 OFFCURVE",
"248 214 OFFCURVE",
"275 245 CURVE SMOOTH",
"301 275 OFFCURVE",
"314 310 OFFCURVE",
"314 351 CURVE SMOOTH",
"314 367 OFFCURVE",
"311 374 OFFCURVE",
"304 374 CURVE SMOOTH",
"300 374 OFFCURVE",
"298 372 OFFCURVE",
"298 367 CURVE SMOOTH",
"298 362 OFFCURVE",
"300 357 OFFCURVE",
"303 352 CURVE",
"303 317 OFFCURVE",
"291 285 OFFCURVE",
"265 255 CURVE SMOOTH",
"239 225 OFFCURVE",
"209 210 OFFCURVE",
"174 210 CURVE SMOOTH",
"143 210 OFFCURVE",
"120 224 OFFCURVE",
"104 253 CURVE SMOOTH",
"90 277 OFFCURVE",
"84 305 OFFCURVE",
"84 339 CURVE SMOOTH",
"84 358 OFFCURVE",
"86 377 OFFCURVE",
"91 395 CURVE SMOOTH",
"108 454 OFFCURVE",
"137 504 OFFCURVE",
"178 545 CURVE SMOOTH",
"224 590 OFFCURVE",
"275 613 OFFCURVE",
"333 613 CURVE SMOOTH",
"383 613 OFFCURVE",
"424 593 OFFCURVE",
"454 553 CURVE SMOOTH",
"482 516 OFFCURVE",
"495 472 OFFCURVE",
"495 420 CURVE SMOOTH",
"495 232 OFFCURVE",
"424 92 OFFCURVE",
"281 -2 CURVE",
"268 -2 OFFCURVE",
"248 1 OFFCURVE",
"221 6 CURVE SMOOTH",
"195 11 OFFCURVE",
"175 13 OFFCURVE",
"161 13 CURVE SMOOTH",
"137 13 OFFCURVE",
"126 6 OFFCURVE",
"126 -10 CURVE SMOOTH",
"126 -34 OFFCURVE",
"144 -46 OFFCURVE",
"182 -46 CURVE SMOOTH"
);
},
{
closed = 1;
nodes = (
"169 -36 OFFCURVE",
"158 -30 OFFCURVE",
"158 -18 CURVE SMOOTH",
"158 -7 OFFCURVE",
"163 -2 OFFCURVE",
"173 -2 CURVE SMOOTH",
"176 -2 OFFCURVE",
"188 -4 OFFCURVE",
"210 -8 CURVE SMOOTH",
"228 -11 OFFCURVE",
"246 -13 OFFCURVE",
"263 -13 CURVE",
"237 -29 OFFCURVE",
"212 -36 OFFCURVE",
"191 -36 CURVE SMOOTH"
);
}
);
width = 605;
}
);
note = V;
unicode = 0056;
},
{
glyphname = W;
lastChange = "2021-10-29 07:10:48 +0000";
layers = (
{
anchors = (
{
name = bottom;
position = "{434, 0}";
},
{
name = top;
position = "{870, 546}";
}
);
layerId = "171CD109-D0B0-4A7B-9E5C-4BA88B29FB0C";
paths = (
{
closed = 1;
nodes = (
"177 -46 OFFCURVE",
"223 -28 OFFCURVE",
"275 8 CURVE",
"384 28 OFFCURVE",
"491 116 OFFCURVE",
"597 270 CURVE SMOOTH",
"703 426 OFFCURVE",
"781 503 OFFCURVE",
"830 503 CURVE SMOOTH",
"837 503 OFFCURVE",
"845 502 OFFCURVE",
"852 499 CURVE",
"840 491 LINE SMOOTH",
"814 474 OFFCURVE",
"793 445 OFFCURVE",
"774 410 CURVE SMOOTH",
"762 389 OFFCURVE",
"747 356 OFFCURVE",
"730 311 CURVE SMOOTH",
"712 265 OFFCURVE",
"698 233 OFFCURVE",
"687 213 CURVE SMOOTH",
"649 141 OFFCURVE",
"603 67 OFFCURVE",
"551 -10 CURVE SMOOTH",
"547 -15 OFFCURVE",
"546 -18 OFFCURVE",
"546 -20 CURVE SMOOTH",
"546 -22 OFFCURVE",
"547 -23 OFFCURVE",
"550 -23 CURVE SMOOTH",
"554 -23 OFFCURVE",
"560 -22 OFFCURVE",
"567 -20 CURVE SMOOTH",
"636 1 OFFCURVE",
"695 35 OFFCURVE",
"745 82 CURVE SMOOTH",
"777 113 OFFCURVE",
"821 165 OFFCURVE",
"874 241 CURVE SMOOTH",
"935 330 OFFCURVE",
"979 397 OFFCURVE",
"1009 442 CURVE SMOOTH",
"1067 527 OFFCURVE",
"1113 584 OFFCURVE",
"1147 614 CURVE SMOOTH",
"1181 642 OFFCURVE",
"1208 657 OFFCURVE",
"1231 657 CURVE SMOOTH",
"1239 657 OFFCURVE",
"1247 654 OFFCURVE",
"1255 649 CURVE SMOOTH",
"1264 643 OFFCURVE",
"1269 636 OFFCURVE",
"1269 628 CURVE SMOOTH",
"1269 621 OFFCURVE",
"1271 617 OFFCURVE",
"1274 617 CURVE SMOOTH",
"1277 617 OFFCURVE",
"1279 619 OFFCURVE",
"1279 624 CURVE SMOOTH",
"1279 636 OFFCURVE",
"1272 646 OFFCURVE",
"1259 654 CURVE SMOOTH",
"1248 661 OFFCURVE",
"1236 664 OFFCURVE",
"1223 664 CURVE SMOOTH",
"1196 664 OFFCURVE",
"1167 650 OFFCURVE",
"1136 622 CURVE SMOOTH",
"1089 581 OFFCURVE",
"1038 521 OFFCURVE",
"986 443 CURVE SMOOTH",
"943 377 OFFCURVE",
"902 310 OFFCURVE",
"859 245 CURVE SMOOTH",
"804 162 OFFCURVE",
"745 98 OFFCURVE",
"683 51 CURVE SMOOTH",
"656 32 OFFCURVE",
"630 16 OFFCURVE",
"605 4 CURVE SMOOTH",
"595 -1 OFFCURVE",
"587 -5 OFFCURVE",
"580 -7 CURVE SMOOTH",
"572 -9 LINE",
"568 -11 LINE",
"567 -11 LINE",
"614 33 OFFCURVE",
"648 66 OFFCURVE",
"668 91 CURVE SMOOTH",
"699 127 OFFCURVE",
"724 167 OFFCURVE",
"744 212 CURVE SMOOTH",
"758 244 OFFCURVE",
"771 278 OFFCURVE",
"782 315 CURVE SMOOTH",
"792 348 OFFCURVE",
"800 381 OFFCURVE",
"811 413 CURVE SMOOTH",
"824 456 OFFCURVE",
"844 482 OFFCURVE",
"865 492 CURVE",
"864 492 LINE SMOOTH",
"858 492 OFFCURVE",
"873 494 OFFCURVE",
"873 497 CURVE SMOOTH",
"873 501 OFFCURVE",
"867 505 OFFCURVE",
"855 509 CURVE SMOOTH",
"845 512 OFFCURVE",
"837 513 OFFCURVE",
"832 513 CURVE SMOOTH",
"768 513 OFFCURVE",
"683 432 OFFCURVE",
"576 270 CURVE SMOOTH",
"544 221 OFFCURVE",
"504 174 OFFCURVE",
"456 130 CURVE SMOOTH",
"403 82 OFFCURVE",
"352 49 OFFCURVE",
"304 29 CURVE",
"380 89 OFFCURVE",
"434 155 OFFCURVE",
"467 226 CURVE SMOOTH",
"498 293 OFFCURVE",
"513 352 OFFCURVE",
"513 404 CURVE SMOOTH",
"513 461 OFFCURVE",
"495 508 OFFCURVE",
"457 543 CURVE SMOOTH",
"423 576 OFFCURVE",
"377 597 OFFCURVE",
"318 606 CURVE SMOOTH",
"308 608 OFFCURVE",
"297 608 OFFCURVE",
"286 608 CURVE SMOOTH",
"223 608 OFFCURVE",
"167 589 OFFCURVE",
"119 551 CURVE SMOOTH",
"70 513 OFFCURVE",
"37 463 OFFCURVE",
"21 402 CURVE SMOOTH",
"17 387 OFFCURVE",
"15 371 OFFCURVE",
"15 354 CURVE SMOOTH",
"15 315 OFFCURVE",
"24 280 OFFCURVE",
"43 251 CURVE SMOOTH",
"65 216 OFFCURVE",
"94 199 OFFCURVE",
"131 199 CURVE SMOOTH",
"171 199 OFFCURVE",
"205 214 OFFCURVE",
"232 245 CURVE SMOOTH",
"258 275 OFFCURVE",
"271 310 OFFCURVE",
"271 351 CURVE SMOOTH",
"271 357 OFFCURVE",
"269 361 OFFCURVE",
"264 361 CURVE SMOOTH",
"261 361 OFFCURVE",
"260 358 OFFCURVE",
"260 352 CURVE SMOOTH",
"260 317 OFFCURVE",
"247 285 OFFCURVE",
"222 255 CURVE SMOOTH",
"196 225 OFFCURVE",
"165 210 OFFCURVE",
"131 210 CURVE SMOOTH",
"100 210 OFFCURVE",
"75 225 OFFCURVE",
"57 255 CURVE SMOOTH",
"41 280 OFFCURVE",
"34 309 OFFCURVE",
"34 343 CURVE SMOOTH",
"34 362 OFFCURVE",
"37 380 OFFCURVE",
"43 397 CURVE SMOOTH",
"89 529 OFFCURVE",
"171 594 OFFCURVE",
"287 594 CURVE SMOOTH",
"339 594 OFFCURVE",
"380 578 OFFCURVE",
"409 546 CURVE SMOOTH",
"438 514 OFFCURVE",
"452 472 OFFCURVE",
"452 420 CURVE SMOOTH",
"452 246 OFFCURVE",
"390 112 OFFCURVE",
"266 18 CURVE",
"247 14 OFFCURVE",
"224 13 OFFCURVE",
"196 13 CURVE SMOOTH",
"160 13 LINE SMOOTH",
"120 13 OFFCURVE",
"96 8 OFFCURVE",
"87 -4 CURVE SMOOTH",
"85 -7 OFFCURVE",
"84 -9 OFFCURVE",
"84 -11 CURVE SMOOTH",
"84 -34 OFFCURVE",
"102 -46 OFFCURVE",
"138 -46 CURVE SMOOTH"
);
},
{
closed = 1;
nodes = (
"126 -37 OFFCURVE",
"115 -30 OFFCURVE",
"115 -18 CURVE SMOOTH",
"115 -14 OFFCURVE",
"116 -11 OFFCURVE",
"119 -7 CURVE SMOOTH",
"123 -1 OFFCURVE",
"139 1 OFFCURVE",
"167 1 CURVE SMOOTH",
"204 1 OFFCURVE",
"230 2 OFFCURVE",
"246 4 CURVE",
"207 -23 OFFCURVE",
"174 -37 OFFCURVE",
"148 -37 CURVE SMOOTH"
);
}
);
width = 867;
}
);
note = W;
unicode = 0057;
},
{
glyphname = X;
lastChange = "2021-10-29 07:10:18 +0000";
layers = (
{
layerId = "171CD109-D0B0-4A7B-9E5C-4BA88B29FB0C";
paths = (
{
closed = 1;
nodes = (
"29 -119 OFFCURVE",
"101 -77 OFFCURVE",
"192 8 CURVE SMOOTH",
"287 96 OFFCURVE",
"376 189 OFFCURVE",
"459 288 CURVE",
"464 214 LINE SMOOTH",
"468 155 OFFCURVE",
"473 113 OFFCURVE",
"479 89 CURVE SMOOTH",
"493 38 OFFCURVE",
"518 8 OFFCURVE",
"555 -1 CURVE SMOOTH",
"571 -5 OFFCURVE",
"588 -7 OFFCURVE",
"603 -7 CURVE SMOOTH",
"630 -7 OFFCURVE",
"652 0 OFFCURVE",
"669 15 CURVE",
"671 16 OFFCURVE",
"686 34 OFFCURVE",
"715 67 CURVE",
"716 67 LINE",
"718 76 OFFCURVE",
"720 80 OFFCURVE",
"721 80 CURVE",
"721 79 LINE SMOOTH",
"721 81 OFFCURVE",
"718 82 OFFCURVE",
"713 82 CURVE SMOOTH",
"710 82 OFFCURVE",
"709 81 OFFCURVE",
"709 79 CURVE SMOOTH",
"709 80 LINE",
"674 33 OFFCURVE",
"643 10 OFFCURVE",
"618 10 CURVE SMOOTH",
"569 10 OFFCURVE",
"537 99 OFFCURVE",
"523 276 CURVE SMOOTH",
"520 316 OFFCURVE",
"518 346 OFFCURVE",
"518 364 CURVE",
"516 364 LINE",
"543 389 OFFCURVE",
"564 411 OFFCURVE",
"582 428 CURVE SMOOTH",
"698 546 OFFCURVE",
"783 609 OFFCURVE",
"836 620 CURVE SMOOTH",
"854 624 OFFCURVE",
"863 629 OFFCURVE",
"863 635 CURVE SMOOTH",
"863 640 OFFCURVE",
"856 642 OFFCURVE",
"841 642 CURVE SMOOTH",
"837 642 OFFCURVE",
"831 642 OFFCURVE",
"822 641 CURVE SMOOTH",
"804 639 OFFCURVE",
"771 619 OFFCURVE",
"723 580 CURVE SMOOTH",
"685 550 OFFCURVE",
"655 523 OFFCURVE",
"631 499 CURVE SMOOTH",
"572 439 OFFCURVE",
"534 399 OFFCURVE",
"517 380 CURVE",
"517 428 OFFCURVE",
"507 474 OFFCURVE",
"486 516 CURVE SMOOTH",
"463 563 OFFCURVE",
"432 596 OFFCURVE",
"391 615 CURVE SMOOTH",
"369 626 OFFCURVE",
"344 631 OFFCURVE",
"317 631 CURVE SMOOTH",
"270 631 OFFCURVE",
"231 617 OFFCURVE",
"200 589 CURVE SMOOTH",
"168 559 OFFCURVE",
"151 522 OFFCURVE",
"151 475 CURVE SMOOTH",
"151 442 OFFCURVE",
"161 414 OFFCURVE",
"181 391 CURVE SMOOTH",
"202 367 OFFCURVE",
"228 355 OFFCURVE",
"261 355 CURVE SMOOTH",
"293 355 OFFCURVE",
"321 365 OFFCURVE",
"346 383 CURVE SMOOTH",
"375 404 OFFCURVE",
"389 429 OFFCURVE",
"389 460 CURVE SMOOTH",
"389 477 OFFCURVE",
"383 492 OFFCURVE",
"372 505 CURVE SMOOTH",
"360 519 OFFCURVE",
"346 525 OFFCURVE",
"329 525 CURVE SMOOTH",
"320 525 OFFCURVE",
"311 523 OFFCURVE",
"304 517 CURVE SMOOTH",
"295 511 OFFCURVE",
"291 504 OFFCURVE",
"291 495 CURVE SMOOTH",
"291 487 OFFCURVE",
"293 483 OFFCURVE",
"298 483 CURVE SMOOTH",
"299 483 OFFCURVE",
"300 484 OFFCURVE",
"301 486 CURVE",
"301 488 OFFCURVE",
"300 490 OFFCURVE",
"298 491 CURVE",
"302 508 OFFCURVE",
"312 516 OFFCURVE",
"329 516 CURVE SMOOTH",
"341 516 OFFCURVE",
"351 509 OFFCURVE",
"358 496 CURVE SMOOTH",
"363 485 OFFCURVE",
"366 473 OFFCURVE",
"366 460 CURVE SMOOTH",
"366 436 OFFCURVE",
"356 415 OFFCURVE",
"335 396 CURVE SMOOTH",
"314 377 OFFCURVE",
"292 368 OFFCURVE",
"268 368 CURVE SMOOTH",
"209 368 OFFCURVE",
"180 400 OFFCURVE",
"180 464 CURVE SMOOTH",
"180 501 OFFCURVE",
"192 535 OFFCURVE",
"216 565 CURVE SMOOTH",
"242 597 OFFCURVE",
"273 613 OFFCURVE",
"310 613 CURVE SMOOTH",
"340 613 OFFCURVE",
"367 602 OFFCURVE",
"390 580 CURVE SMOOTH",
"411 561 OFFCURVE",
"427 536 OFFCURVE",
"436 506 CURVE SMOOTH",
"448 464 OFFCURVE",
"455 396 OFFCURVE",
"458 301 CURVE",
"204 37 OFFCURVE",
"44 -95 OFFCURVE",
"-23 -95 CURVE SMOOTH",
"-27 -95 OFFCURVE",
"-34 -94 OFFCURVE",
"-43 -91 CURVE SMOOTH",
"-51 -88 OFFCURVE",
"-58 -86 OFFCURVE",
"-63 -86 CURVE SMOOTH",
"-67 -86 OFFCURVE",
"-70 -88 OFFCURVE",
"-70 -91 CURVE SMOOTH",
"-70 -100 OFFCURVE",
"-64 -107 OFFCURVE",
"-52 -113 CURVE SMOOTH",
"-43 -117 OFFCURVE",
"-34 -119 OFFCURVE",
"-24 -119 CURVE SMOOTH"
);
}
);
width = 721;
}
);
note = X;
unicode = 0058;
},
{
glyphname = Y;
lastChange = "2021-10-29 07:10:48 +0000";
layers = (
{
anchors = (
{
name = bottom;
position = "{740, 82}";
},
{
name = top;
position = "{768, 579}";
},
{
name = topleft;
position = "{20, 620}";
}
);
layerId = "171CD109-D0B0-4A7B-9E5C-4BA88B29FB0C";
paths = (
{
closed = 1;
nodes = (
"371 -318 OFFCURVE",
"423 -301 OFFCURVE",
"475 -268 CURVE SMOOTH",
"524 -237 OFFCURVE",
"564 -200 OFFCURVE",
"594 -156 CURVE SMOOTH",
"619 -120 OFFCURVE",
"645 -57 OFFCURVE",
"673 33 CURVE",
"701 51 OFFCURVE",
"716 62 OFFCURVE",
"721 66 CURVE SMOOTH",
"740 82 OFFCURVE",
"750 97 OFFCURVE",
"750 111 CURVE SMOOTH",
"750 120 OFFCURVE",
"748 124 OFFCURVE",
"743 124 CURVE SMOOTH",
"740 124 OFFCURVE",
"739 123 OFFCURVE",
"739 120 CURVE SMOOTH",
"739 119 OFFCURVE",
"739 118 OFFCURVE",
"740 117 CURVE SMOOTH",
"741 115 OFFCURVE",
"741 115 OFFCURVE",
"741 114 CURVE SMOOTH",
"741 101 OFFCURVE",
"734 87 OFFCURVE",
"718 73 CURVE SMOOTH",
"714 70 OFFCURVE",
"700 60 OFFCURVE",
"677 45 CURVE",
"703 130 OFFCURVE",
"720 182 OFFCURVE",
"727 202 CURVE SMOOTH",
"749 263 OFFCURVE",
"774 311 OFFCURVE",
"801 347 CURVE SMOOTH",
"826 381 OFFCURVE",
"843 403 OFFCURVE",
"854 414 CURVE SMOOTH",
"879 438 OFFCURVE",
"903 451 OFFCURVE",
"926 451 CURVE SMOOTH",
"929 451 OFFCURVE",
"933 450 OFFCURVE",
"939 450 CURVE SMOOTH",
"944 450 OFFCURVE",
"949 449 OFFCURVE",
"951 449 CURVE SMOOTH",
"964 449 OFFCURVE",
"971 453 OFFCURVE",
"971 461 CURVE SMOOTH",
"971 471 OFFCURVE",
"959 476 OFFCURVE",
"935 476 CURVE SMOOTH",
"913 476 OFFCURVE",
"887 468 OFFCURVE",
"859 451 CURVE SMOOTH",
"847 445 OFFCURVE",
"830 430 OFFCURVE",
"806 407 CURVE SMOOTH",
"783 386 OFFCURVE",
"768 369 OFFCURVE",
"759 357 CURVE SMOOTH",
"689 258 OFFCURVE",
"632 184 OFFCURVE",
"586 134 CURVE SMOOTH",
"497 35 OFFCURVE",
"423 -14 OFFCURVE",
"366 -14 CURVE SMOOTH",
"324 -14 OFFCURVE",
"303 7 OFFCURVE",
"303 50 CURVE SMOOTH",
"303 63 OFFCURVE",
"305 77 OFFCURVE",
"309 93 CURVE SMOOTH",
"314 112 OFFCURVE",
"337 146 OFFCURVE",
"378 194 CURVE SMOOTH",
"406 227 OFFCURVE",
"435 258 OFFCURVE",
"463 290 CURVE SMOOTH",
"504 338 OFFCURVE",
"535 380 OFFCURVE",
"556 414 CURVE SMOOTH",
"575 444 OFFCURVE",
"584 479 OFFCURVE",
"584 518 CURVE SMOOTH",
"584 577 OFFCURVE",
"562 622 OFFCURVE",
"519 652 CURVE SMOOTH",
"481 679 OFFCURVE",
"431 693 OFFCURVE",
"369 693 CURVE SMOOTH",
"286 693 OFFCURVE",
"211 667 OFFCURVE",
"144 615 CURVE SMOOTH",
"72 559 OFFCURVE",
"36 491 OFFCURVE",
"36 411 CURVE SMOOTH",
"36 369 OFFCURVE",
"47 334 OFFCURVE",
"70 305 CURVE SMOOTH",
"95 273 OFFCURVE",
"128 257 OFFCURVE",
"169 257 CURVE SMOOTH",
"208 257 OFFCURVE",
"243 270 OFFCURVE",
"274 294 CURVE SMOOTH",
"305 317 OFFCURVE",
"326 348 OFFCURVE",
"338 386 CURVE SMOOTH",
"340 391 OFFCURVE",
"341 396 OFFCURVE",
"341 401 CURVE SMOOTH",
"341 408 OFFCURVE",
"340 412 OFFCURVE",
"337 412 CURVE SMOOTH",
"334 412 OFFCURVE",
"328 404 OFFCURVE",
"328 390 CURVE SMOOTH",
"328 389 LINE",
"318 354 OFFCURVE",
"298 325 OFFCURVE",
"268 301 CURVE SMOOTH",
"238 278 OFFCURVE",
"205 266 OFFCURVE",
"168 266 CURVE SMOOTH",
"133 266 OFFCURVE",
"105 281 OFFCURVE",
"85 309 CURVE SMOOTH",
"66 334 OFFCURVE",
"57 365 OFFCURVE",
"57 401 CURVE SMOOTH",
"57 428 OFFCURVE",
"62 454 OFFCURVE",
"73 478 CURVE SMOOTH",
"100 540 OFFCURVE",
"140 589 OFFCURVE",
"193 625 CURVE SMOOTH",
"247 662 OFFCURVE",
"307 681 OFFCURVE",
"373 681 CURVE SMOOTH",
"420 681 OFFCURVE",
"458 672 OFFCURVE",
"487 655 CURVE SMOOTH",
"522 634 OFFCURVE",
"540 602 OFFCURVE",
"540 559 CURVE SMOOTH",
"540 541 OFFCURVE",
"537 522 OFFCURVE",
"531 501 CURVE SMOOTH",
"521 465 OFFCURVE",
"492 414 OFFCURVE",
"444 349 CURVE SMOOTH",
"408 301 OFFCURVE",
"370 254 OFFCURVE",
"333 206 CURVE SMOOTH",
"294 155 OFFCURVE",
"274 105 OFFCURVE",
"274 58 CURVE SMOOTH",
"274 2 OFFCURVE",
"304 -26 OFFCURVE",
"365 -26 CURVE SMOOTH",
"377 -26 OFFCURVE",
"391 -24 OFFCURVE",
"405 -22 CURVE SMOOTH",
"436 -16 OFFCURVE",
"476 9 OFFCURVE",
"527 53 CURVE SMOOTH",
"567 88 OFFCURVE",
"603 122 OFFCURVE",
"630 158 CURVE SMOOTH",
"669 210 OFFCURVE",
"705 265 OFFCURVE",
"743 317 CURVE SMOOTH",
"797 391 OFFCURVE",
"841 433 OFFCURVE",
"875 445 CURVE",
"869 440 OFFCURVE",
"865 436 OFFCURVE",
"862 434 CURVE SMOOTH",
"813 398 OFFCURVE",
"764 332 OFFCURVE",
"716 237 CURVE SMOOTH",
"703 212 OFFCURVE",
"670 135 OFFCURVE",
"614 6 CURVE",
"580 -13 OFFCURVE",
"537 -36 OFFCURVE",
"485 -61 CURVE SMOOTH",
"406 -100 OFFCURVE",
"366 -120 OFFCURVE",
"363 -121 CURVE",
"308 -151 OFFCURVE",
"272 -176 OFFCURVE",
"255 -198 CURVE SMOOTH",
"241 -216 OFFCURVE",
"234 -236 OFFCURVE",
"234 -257 CURVE SMOOTH",
"234 -297 OFFCURVE",
"263 -318 OFFCURVE",
"322 -318 CURVE SMOOTH"
);
},
{
closed = 1;
nodes = (
"292 -306 OFFCURVE",
"278 -302 OFFCURVE",
"266 -294 CURVE SMOOTH",
"253 -285 OFFCURVE",
"246 -273 OFFCURVE",
"246 -258 CURVE SMOOTH",
"246 -236 OFFCURVE",
"260 -212 OFFCURVE",
"287 -186 CURVE SMOOTH",
"308 -166 OFFCURVE",
"331 -150 OFFCURVE",
"357 -137 CURVE SMOOTH",
"477 -79 OFFCURVE",
"561 -36 OFFCURVE",
"608 -8 CURVE",
"583 -65 OFFCURVE",
"562 -108 OFFCURVE",
"545 -135 CURVE SMOOTH",
"520 -174 OFFCURVE",
"485 -211 OFFCURVE",
"441 -246 CURVE SMOOTH",
"390 -286 OFFCURVE",
"346 -306 OFFCURVE",
"307 -306 CURVE SMOOTH"
);
}
);
width = 743;
}
);
note = Y;
unicode = 0059;
},
{
glyphname = Z;
lastChange = "2021-10-29 07:10:48 +0000";
layers = (
{
anchors = (
{
name = bottom;
position = "{372, 0}";
},
{
name = center;
position = "{372, 310}";
},
{
name = top;
position = "{357, 702}";
}
);
layerId = "171CD109-D0B0-4A7B-9E5C-4BA88B29FB0C";
paths = (
{
closed = 1;
nodes = (
"282 -314 OFFCURVE",
"354 -292 OFFCURVE",
"427 -247 CURVE SMOOTH",
"494 -206 OFFCURVE",
"550 -155 OFFCURVE",
"597 -94 CURVE",
"664 -77 OFFCURVE",
"714 -58 OFFCURVE",
"749 -38 CURVE SMOOTH",
"767 -27 OFFCURVE",
"778 -14 OFFCURVE",
"778 2 CURVE SMOOTH",
"778 3 LINE SMOOTH",
"778 8 OFFCURVE",
"776 11 OFFCURVE",
"772 11 CURVE SMOOTH",
"769 11 OFFCURVE",
"768 10 OFFCURVE",
"768 7 CURVE SMOOTH",
"768 4 LINE",
"769 3 OFFCURVE",
"769 2 OFFCURVE",
"769 1 CURVE SMOOTH",
"769 -11 OFFCURVE",
"761 -22 OFFCURVE",
"746 -31 CURVE SMOOTH",
"715 -49 OFFCURVE",
"669 -65 OFFCURVE",
"607 -79 CURVE",
"646 -24 OFFCURVE",
"665 29 OFFCURVE",
"665 79 CURVE SMOOTH",
"665 118 OFFCURVE",
"654 149 OFFCURVE",
"633 172 CURVE SMOOTH",
"611 197 OFFCURVE",
"580 209 OFFCURVE",
"542 209 CURVE SMOOTH",
"530 209 OFFCURVE",
"518 207 OFFCURVE",
"506 205 CURVE",
"563 301 OFFCURVE",
"591 388 OFFCURVE",
"591 465 CURVE SMOOTH",
"591 575 OFFCURVE",
"556 645 OFFCURVE",
"486 676 CURVE SMOOTH",
"450 691 OFFCURVE",
"412 699 OFFCURVE",
"372 699 CURVE SMOOTH",
"295 699 OFFCURVE",
"222 671 OFFCURVE",
"152 616 CURVE SMOOTH",
"79 558 OFFCURVE",
"42 490 OFFCURVE",
"42 414 CURVE SMOOTH",
"42 373 OFFCURVE",
"55 340 OFFCURVE",
"80 313 CURVE SMOOTH",
"105 286 OFFCURVE",
"138 273 OFFCURVE",
"179 273 CURVE SMOOTH",
"251 273 OFFCURVE",
"304 306 OFFCURVE",
"339 372 CURVE SMOOTH",
"343 380 OFFCURVE",
"345 387 OFFCURVE",
"345 391 CURVE SMOOTH",
"345 396 OFFCURVE",
"344 398 OFFCURVE",
"343 398 CURVE SMOOTH",
"339 398 OFFCURVE",
"334 391 OFFCURVE",
"330 378 CURVE",
"316 348 OFFCURVE",
"296 325 OFFCURVE",
"267 308 CURVE SMOOTH",
"239 291 OFFCURVE",
"209 282 OFFCURVE",
"176 282 CURVE SMOOTH",
"140 282 OFFCURVE",
"112 294 OFFCURVE",
"91 317 CURVE SMOOTH",
"72 339 OFFCURVE",
"62 368 OFFCURVE",
"62 405 CURVE SMOOTH",
"62 442 OFFCURVE",
"73 477 OFFCURVE",
"94 509 CURVE SMOOTH",
"167 621 OFFCURVE",
"253 677 OFFCURVE",
"352 677 CURVE SMOOTH",
"391 677 OFFCURVE",
"426 667 OFFCURVE",
"459 647 CURVE SMOOTH",
"514 614 OFFCURVE",
"541 551 OFFCURVE",
"541 460 CURVE SMOOTH",
"541 422 OFFCURVE",
"536 377 OFFCURVE",
"525 325 CURVE SMOOTH",
"513 266 OFFCURVE",
"499 224 OFFCURVE",
"483 199 CURVE",
"449 189 OFFCURVE",
"414 170 OFFCURVE",
"377 142 CURVE SMOOTH",
"333 109 OFFCURVE",
"310 78 OFFCURVE",
"310 50 CURVE SMOOTH",
"310 37 OFFCURVE",
"316 31 OFFCURVE",
"329 31 CURVE SMOOTH",
"353 31 OFFCURVE",
"383 51 OFFCURVE",
"421 91 CURVE SMOOTH",
"448 119 OFFCURVE",
"471 150 OFFCURVE",
"492 183 CURVE",
"511 191 OFFCURVE",
"529 195 OFFCURVE",
"546 195 CURVE SMOOTH",
"601 195 OFFCURVE",
"628 166 OFFCURVE",
"628 108 CURVE SMOOTH",
"628 44 OFFCURVE",
"601 -23 OFFCURVE",
"548 -91 CURVE",
"517 -97 OFFCURVE",
"475 -103 OFFCURVE",
"420 -109 CURVE SMOOTH",
"343 -119 OFFCURVE",
"294 -126 OFFCURVE",
"273 -130 CURVE SMOOTH",
"208 -143 OFFCURVE",
"164 -160 OFFCURVE",
"139 -182 CURVE SMOOTH",
"114 -204 OFFCURVE",
"102 -228 OFFCURVE",
"102 -253 CURVE SMOOTH",
"102 -294 OFFCURVE",
"139 -314 OFFCURVE",
"212 -314 CURVE SMOOTH"
);
},
{
closed = 1;
nodes = (
"174 -299 OFFCURVE",
"159 -295 OFFCURVE",
"145 -287 CURVE SMOOTH",
"129 -278 OFFCURVE",
"121 -266 OFFCURVE",
"121 -250 CURVE SMOOTH",
"121 -229 OFFCURVE",
"136 -208 OFFCURVE",
"167 -187 CURVE SMOOTH",
"192 -170 OFFCURVE",
"216 -157 OFFCURVE",
"242 -151 CURVE SMOOTH",
"302 -138 OFFCURVE",
"349 -133 OFFCURVE",
"380 -129 CURVE SMOOTH",
"450 -121 OFFCURVE",
"502 -113 OFFCURVE",
"536 -107 CURVE",
"511 -136 OFFCURVE",
"483 -162 OFFCURVE",
"451 -185 CURVE SMOOTH",
"412 -214 OFFCURVE",
"371 -238 OFFCURVE",
"327 -259 CURVE SMOOTH",
"272 -286 OFFCURVE",
"227 -299 OFFCURVE",
"191 -299 CURVE SMOOTH"
);
}
);
width = 743;
}
);
note = Z;
unicode = 005A;
},
{
glyphname = a;
lastChange = "2021-10-29 07:10:48 +0000";
layers = (
{
anchors = (
{
name = bottom;
position = "{159, 0}";
},
{
name = ogonek;
position = "{365, 3}";
},
{
name = top;
position = "{311, 325}";
}
);
layerId = "171CD109-D0B0-4A7B-9E5C-4BA88B29FB0C";
paths = (
{
closed = 1;
nodes = (
"331 -3 OFFCURVE",
"354 9 OFFCURVE",
"378 33 CURVE SMOOTH",
"417 72 OFFCURVE",
"442 117 OFFCURVE",
"466 163 CURVE SMOOTH",
"470 170 OFFCURVE",
"469 173 OFFCURVE",
"466 173 CURVE SMOOTH",
"464 173 OFFCURVE",
"462 172 OFFCURVE",
"460 168 CURVE SMOOTH",
"429 109 OFFCURVE",
"410 82 OFFCURVE",
"378 45 CURVE SMOOTH",
"353 17 OFFCURVE",
"329 6 OFFCURVE",
"313 6 CURVE SMOOTH",
"302 6 OFFCURVE",
"295 11 OFFCURVE",
"295 26 CURVE SMOOTH",
"295 60 OFFCURVE",
"312 110 OFFCURVE",
"346 176 CURVE SMOOTH",
"431 342 LINE",
"429 344 LINE",
"408 328 OFFCURVE",
"391 320 OFFCURVE",
"378 320 CURVE SMOOTH",
"371 320 OFFCURVE",
"367 322 OFFCURVE",
"365 325 CURVE",
"362 325 LINE",
"301 205 LINE",
"308 227 OFFCURVE",
"312 247 OFFCURVE",
"312 266 CURVE SMOOTH",
"312 306 OFFCURVE",
"295 326 OFFCURVE",
"262 326 CURVE SMOOTH",
"225 326 OFFCURVE",
"186 307 OFFCURVE",
"146 270 CURVE SMOOTH",
"109 235 OFFCURVE",
"85 198 OFFCURVE",
"74 159 CURVE SMOOTH",
"68 136 OFFCURVE",
"65 115 OFFCURVE",
"65 94 CURVE SMOOTH",
"65 70 OFFCURVE",
"69 49 OFFCURVE",
"79 31 CURVE SMOOTH",
"90 9 OFFCURVE",
"107 -2 OFFCURVE",
"129 -2 CURVE SMOOTH",
"175 -2 OFFCURVE",
"221 43 OFFCURVE",
"268 133 CURVE",
"262 109 OFFCURVE",
"259 88 OFFCURVE",
"259 69 CURVE SMOOTH",
"259 21 OFFCURVE",
"276 -3 OFFCURVE",
"311 -3 CURVE SMOOTH"
);
},
{
closed = 1;
nodes = (
"117 5 OFFCURVE",
"109 19 OFFCURVE",
"109 48 CURVE SMOOTH",
"109 80 OFFCURVE",
"116 116 OFFCURVE",
"130 156 CURVE SMOOTH",
"140 187 OFFCURVE",
"159 220 OFFCURVE",
"184 255 CURVE SMOOTH",
"216 297 OFFCURVE",
"244 318 OFFCURVE",
"270 318 CURVE SMOOTH",
"294 318 OFFCURVE",
"305 300 OFFCURVE",
"305 264 CURVE SMOOTH",
"305 231 OFFCURVE",
"296 197 OFFCURVE",
"277 163 CURVE SMOOTH",
"218 57 OFFCURVE",
"170 5 OFFCURVE",
"133 5 CURVE SMOOTH"
);
}
);
width = 378;
}
);
note = a;
unicode = 0061;
},
{
glyphname = ae;
lastChange = "2021-10-29 07:10:18 +0000";
layers = (
{
anchors = (
{
name = bottom;
position = "{235, 0}";
},
{
name = top;
position = "{391, 320}";
}
);
layerId = "171CD109-D0B0-4A7B-9E5C-4BA88B29FB0C";
paths = (
{
closed = 1;
nodes = (
"415 -5 OFFCURVE",
"453 13 OFFCURVE",
"488 50 CURVE SMOOTH",
"517 81 OFFCURVE",
"539 118 OFFCURVE",
"556 161 CURVE",
"555 163 LINE",
"551 164 LINE",
"549 163 LINE",
"535 126 OFFCURVE",
"514 91 OFFCURVE",
"486 61 CURVE SMOOTH",
"452 23 OFFCURVE",
"419 4 OFFCURVE",
"385 4 CURVE SMOOTH",
"344 4 OFFCURVE",
"323 27 OFFCURVE",
"323 72 CURVE SMOOTH",
"323 93 OFFCURVE",
"327 113 OFFCURVE",
"335 134 CURVE",
"384 134 OFFCURVE",
"431 156 OFFCURVE",
"476 202 CURVE SMOOTH",
"508 234 OFFCURVE",
"523 264 OFFCURVE",
"523 292 CURVE SMOOTH",
"523 315 OFFCURVE",
"507 327 OFFCURVE",
"473 327 CURVE SMOOTH",
"455 327 OFFCURVE",
"435 321 OFFCURVE",
"414 310 CURVE",
"431 342 LINE",
"429 344 LINE",
"408 328 OFFCURVE",
"391 320 OFFCURVE",
"378 320 CURVE SMOOTH",
"371 320 OFFCURVE",
"367 322 OFFCURVE",
"365 325 CURVE",
"362 325 LINE",
"301 205 LINE",
"308 227 OFFCURVE",
"312 247 OFFCURVE",
"312 266 CURVE SMOOTH",
"312 306 OFFCURVE",
"295 326 OFFCURVE",
"262 326 CURVE SMOOTH",
"225 326 OFFCURVE",
"186 307 OFFCURVE",
"146 270 CURVE SMOOTH",
"109 235 OFFCURVE",
"85 198 OFFCURVE",
"74 159 CURVE SMOOTH",
"68 137 OFFCURVE",
"65 115 OFFCURVE",
"65 94 CURVE SMOOTH",
"65 70 OFFCURVE",
"69 49 OFFCURVE",
"79 31 CURVE SMOOTH",
"90 9 OFFCURVE",
"107 -2 OFFCURVE",
"129 -2 CURVE SMOOTH",
"155 -2 OFFCURVE",
"185 16 OFFCURVE",
"218 52 CURVE SMOOTH",
"244 80 OFFCURVE",
"265 110 OFFCURVE",
"282 142 CURVE",
"281 138 OFFCURVE",
"280 134 OFFCURVE",
"280 129 CURVE SMOOTH",
"280 112 LINE SMOOTH",
"280 104 OFFCURVE",
"279 99 OFFCURVE",
"279 95 CURVE SMOOTH",
"279 28 OFFCURVE",
"311 -5 OFFCURVE",
"376 -5 CURVE SMOOTH"
);
},
{
closed = 1;
nodes = (
"117 5 OFFCURVE",
"109 19 OFFCURVE",
"109 48 CURVE SMOOTH",
"109 80 OFFCURVE",
"116 116 OFFCURVE",
"130 156 CURVE SMOOTH",
"140 187 OFFCURVE",
"159 220 OFFCURVE",
"184 255 CURVE SMOOTH",
"216 297 OFFCURVE",
"244 318 OFFCURVE",
"270 318 CURVE SMOOTH",
"294 318 OFFCURVE",
"305 300 OFFCURVE",
"305 264 CURVE SMOOTH",
"305 231 OFFCURVE",
"296 197 OFFCURVE",
"277 163 CURVE SMOOTH",
"218 57 OFFCURVE",
"170 5 OFFCURVE",
"133 5 CURVE SMOOTH"
);
},
{
closed = 1;
nodes = (
"346 171 OFFCURVE",
"366 206 OFFCURVE",
"399 246 CURVE SMOOTH",
"435 291 OFFCURVE",
"466 314 OFFCURVE",
"491 314 CURVE SMOOTH",
"507 314 OFFCURVE",
"515 308 OFFCURVE",
"515 298 CURVE SMOOTH",
"515 283 OFFCURVE",
"508 265 OFFCURVE",
"495 245 CURVE SMOOTH",
"484 227 OFFCURVE",
"472 212 OFFCURVE",
"459 201 CURVE",
"459 200 LINE",
"414 161 OFFCURVE",
"373 141 OFFCURVE",
"336 141 CURVE"
);
}
);
width = 470;
}
);
note = ae;
unicode = 00E6;
},
{
glyphname = b;
lastChange = "2021-10-29 07:10:18 +0000";
layers = (
{
layerId = "171CD109-D0B0-4A7B-9E5C-4BA88B29FB0C";
paths = (
{
closed = 1;
nodes = (
"193 -7 OFFCURVE",
"242 45 OFFCURVE",
"280 145 CURVE",
"283 113 OFFCURVE",
"297 96 OFFCURVE",
"318 96 CURVE SMOOTH",
"348 96 OFFCURVE",
"368 120 OFFCURVE",
"387 161 CURVE SMOOTH",
"389 165 OFFCURVE",
"386 169 OFFCURVE",
"384 169 CURVE SMOOTH",
"383 169 OFFCURVE",
"382 169 OFFCURVE",
"382 168 CURVE",
"362 128 OFFCURVE",
"343 103 OFFCURVE",
"320 103 CURVE SMOOTH",
"297 103 OFFCURVE",
"289 127 OFFCURVE",
"287 158 CURVE",
"299 183 OFFCURVE",
"304 207 OFFCURVE",
"304 224 CURVE SMOOTH",
"304 240 OFFCURVE",
"298 248 OFFCURVE",
"288 248 CURVE SMOOTH",
"275 248 OFFCURVE",
"270 228 OFFCURVE",
"270 206 CURVE SMOOTH",
"270 186 OFFCURVE",
"274 164 OFFCURVE",
"277 157 CURVE",
"257 107 OFFCURVE",
"208 2 OFFCURVE",
"145 2 CURVE SMOOTH",
"121 2 OFFCURVE",
"108 16 OFFCURVE",
"108 51 CURVE SMOOTH",
"108 95 OFFCURVE",
"129 167 OFFCURVE",
"172 269 CURVE",
"259 321 OFFCURVE",
"330 376 OFFCURVE",
"386 434 CURVE SMOOTH",
"405 453 OFFCURVE",
"422 476 OFFCURVE",
"438 504 CURVE SMOOTH",
"457 537 OFFCURVE",
"467 564 OFFCURVE",
"467 586 CURVE SMOOTH",
"467 613 OFFCURVE",
"453 626 OFFCURVE",
"425 626 CURVE SMOOTH",
"393 626 OFFCURVE",
"354 604 OFFCURVE",
"307 560 CURVE SMOOTH",
"273 529 OFFCURVE",
"243 493 OFFCURVE",
"215 454 CURVE SMOOTH",
"188 416 OFFCURVE",
"163 375 OFFCURVE",
"142 331 CURVE SMOOTH",
"115 276 OFFCURVE",
"93 217 OFFCURVE",
"76 153 CURVE SMOOTH",
"70 133 OFFCURVE",
"68 113 OFFCURVE",
"68 93 CURVE SMOOTH",
"68 27 OFFCURVE",
"94 -7 OFFCURVE",
"141 -7 CURVE SMOOTH"
);
},
{
closed = 1;
nodes = (
"211 353 OFFCURVE",
"245 419 OFFCURVE",
"282 479 CURVE SMOOTH",
"341 573 OFFCURVE",
"388 620 OFFCURVE",
"425 620 CURVE SMOOTH",
"445 620 OFFCURVE",
"456 610 OFFCURVE",
"456 588 CURVE SMOOTH",
"456 541 OFFCURVE",
"429 491 OFFCURVE",
"377 438 CURVE SMOOTH",
"331 392 OFFCURVE",
"265 340 OFFCURVE",
"179 282 CURVE"
);
}
);
width = 299;
}
);
note = b;
unicode = 0062;
},
{
glyphname = c;
lastChange = "2021-10-29 07:10:48 +0000";
layers = (
{
anchors = (
{
name = bottom;
position = "{122, -6}";
},
{
name = top;
position = "{249, 325}";
}
);
layerId = "171CD109-D0B0-4A7B-9E5C-4BA88B29FB0C";
paths = (
{
closed = 1;
nodes = (
"191 -10 OFFCURVE",
"231 12 OFFCURVE",
"257 38 CURVE SMOOTH",
"299 76 OFFCURVE",
"322 118 OFFCURVE",
"345 163 CURVE SMOOTH",
"349 170 OFFCURVE",
"348 173 OFFCURVE",
"345 173 CURVE SMOOTH",
"343 173 OFFCURVE",
"341 172 OFFCURVE",
"339 168 CURVE SMOOTH",
"309 111 OFFCURVE",
"280 72 OFFCURVE",
"257 49 CURVE SMOOTH",
"230 22 OFFCURVE",
"190 0 OFFCURVE",
"155 0 CURVE SMOOTH",
"117 0 OFFCURVE",
"105 28 OFFCURVE",
"105 61 CURVE SMOOTH",
"105 101 OFFCURVE",
"122 149 OFFCURVE",
"135 176 CURVE SMOOTH",
"149 206 OFFCURVE",
"167 235 OFFCURVE",
"189 262 CURVE SMOOTH",
"219 298 OFFCURVE",
"246 316 OFFCURVE",
"271 316 CURVE SMOOTH",
"294 316 OFFCURVE",
"306 304 OFFCURVE",
"306 282 CURVE SMOOTH",
"306 265 OFFCURVE",
"297 250 OFFCURVE",
"279 237 CURVE SMOOTH",
"261 224 OFFCURVE",
"252 213 OFFCURVE",
"252 205 CURVE SMOOTH",
"252 197 OFFCURVE",
"257 193 OFFCURVE",
"267 193 CURVE SMOOTH",
"281 193 OFFCURVE",
"293 203 OFFCURVE",
"304 222 CURVE SMOOTH",
"313 239 OFFCURVE",
"318 255 OFFCURVE",
"318 270 CURVE SMOOTH",
"318 309 OFFCURVE",
"296 329 OFFCURVE",
"253 329 CURVE SMOOTH",
"206 329 OFFCURVE",
"161 300 OFFCURVE",
"118 243 CURVE SMOOTH",
"78 189 OFFCURVE",
"58 132 OFFCURVE",
"58 81 CURVE SMOOTH",
"58 18 OFFCURVE",
"95 -10 OFFCURVE",
"147 -10 CURVE SMOOTH"
);
}
);
width = 257;
}
);
note = c;
unicode = 0063;
},
{
glyphname = d;
lastChange = "2021-10-29 07:10:48 +0000";
layers = (
{
anchors = (
{
name = bottom;
position = "{190, 0}";
},
{
name = center;
position = "{388, 370}";
},
{
name = top;
position = "{472, 541}";
},
{
name = topright;
position = "{550, 539}";
}
);
layerId = "171CD109-D0B0-4A7B-9E5C-4BA88B29FB0C";
paths = (
{
closed = 1;
nodes = (
"172 -5 OFFCURVE",
"219 40 OFFCURVE",
"266 130 CURVE",
"259 105 OFFCURVE",
"255 81 OFFCURVE",
"255 59 CURVE SMOOTH",
"255 14 OFFCURVE",
"280 -3 OFFCURVE",
"313 -3 CURVE SMOOTH",
"333 -3 OFFCURVE",
"356 9 OFFCURVE",
"380 33 CURVE SMOOTH",
"419 72 OFFCURVE",
"444 117 OFFCURVE",
"468 163 CURVE SMOOTH",
"472 170 OFFCURVE",
"471 173 OFFCURVE",
"468 173 CURVE SMOOTH",
"466 173 OFFCURVE",
"464 172 OFFCURVE",
"462 168 CURVE SMOOTH",
"431 109 OFFCURVE",
"412 82 OFFCURVE",
"380 45 CURVE SMOOTH",
"355 17 OFFCURVE",
"331 6 OFFCURVE",
"315 6 CURVE SMOOTH",
"301 6 OFFCURVE",
"293 15 OFFCURVE",
"293 33 CURVE SMOOTH",
"293 70 OFFCURVE",
"321 139 OFFCURVE",
"380 252 CURVE SMOOTH",
"530 539 LINE",
"528 541 LINE",
"508 525 OFFCURVE",
"491 518 OFFCURVE",
"478 518 CURVE SMOOTH",
"471 518 OFFCURVE",
"467 519 OFFCURVE",
"464 522 CURVE",
"462 522 LINE",
"299 202 LINE",
"307 224 OFFCURVE",
"311 245 OFFCURVE",
"311 264 CURVE SMOOTH",
"311 303 OFFCURVE",
"294 322 OFFCURVE",
"261 322 CURVE SMOOTH",
"170 322 OFFCURVE",
"99 229 OFFCURVE",
"72 155 CURVE SMOOTH",
"65 138 OFFCURVE",
"61 114 OFFCURVE",
"61 91 CURVE SMOOTH",
"61 43 OFFCURVE",
"79 -5 OFFCURVE",
"127 -5 CURVE SMOOTH"
);
},
{
closed = 1;
nodes = (
"114 4 OFFCURVE",
"107 24 OFFCURVE",
"107 49 CURVE SMOOTH",
"107 88 OFFCURVE",
"123 140 OFFCURVE",
"127 153 CURVE SMOOTH",
"138 184 OFFCURVE",
"156 217 OFFCURVE",
"182 252 CURVE SMOOTH",
"213 294 OFFCURVE",
"241 311 OFFCURVE",
"267 311 CURVE SMOOTH",
"294 311 OFFCURVE",
"303 291 OFFCURVE",
"303 265 CURVE SMOOTH",
"303 227 OFFCURVE",
"283 175 OFFCURVE",
"275 160 CURVE SMOOTH",
"222 58 OFFCURVE",
"170 4 OFFCURVE",
"134 4 CURVE SMOOTH"
);
}
);
width = 380;
}
);
note = d;
unicode = 0064;
},
{
glyphname = eth;
lastChange = "2021-10-29 07:10:18 +0000";
layers = (
{
layerId = "171CD109-D0B0-4A7B-9E5C-4BA88B29FB0C";
paths = (
{
closed = 1;
nodes = (
"181 -5 OFFCURVE",
"229 23 OFFCURVE",
"270 80 CURVE SMOOTH",
"303 124 OFFCURVE",
"327 176 OFFCURVE",
"343 238 CURVE SMOOTH",
"356 284 OFFCURVE",
"362 330 OFFCURVE",
"362 376 CURVE SMOOTH",
"362 426 OFFCURVE",
"354 469 OFFCURVE",
"340 507 CURVE",
"367 514 OFFCURVE",
"393 518 OFFCURVE",
"420 520 CURVE SMOOTH",
"432 521 OFFCURVE",
"442 521 OFFCURVE",
"448 522 CURVE SMOOTH",
"456 522 OFFCURVE",
"460 525 OFFCURVE",
"460 529 CURVE SMOOTH",
"460 534 OFFCURVE",
"456 536 OFFCURVE",
"448 536 CURVE SMOOTH",
"412 536 OFFCURVE",
"373 532 OFFCURVE",
"333 523 CURVE",
"301 589 OFFCURVE",
"250 621 OFFCURVE",
"180 621 CURVE SMOOTH",
"141 621 OFFCURVE",
"122 615 OFFCURVE",
"122 601 CURVE SMOOTH",
"122 596 OFFCURVE",
"126 594 OFFCURVE",
"133 594 CURVE SMOOTH",
"137 594 OFFCURVE",
"143 595 OFFCURVE",
"151 596 CURVE SMOOTH",
"159 598 OFFCURVE",
"165 598 OFFCURVE",
"169 598 CURVE SMOOTH",
"217 598 OFFCURVE",
"257 570 OFFCURVE",
"288 512 CURVE",
"260 504 OFFCURVE",
"227 492 OFFCURVE",
"188 477 CURVE SMOOTH",
"158 465 LINE SMOOTH",
"150 461 OFFCURVE",
"146 456 OFFCURVE",
"146 450 CURVE SMOOTH",
"146 443 OFFCURVE",
"150 439 OFFCURVE",
"157 439 CURVE SMOOTH",
"160 439 OFFCURVE",
"181 447 OFFCURVE",
"222 464 CURVE SMOOTH",
"267 482 OFFCURVE",
"292 492 OFFCURVE",
"296 493 CURVE",
"316 449 OFFCURVE",
"326 399 OFFCURVE",
"326 344 CURVE SMOOTH",
"326 293 OFFCURVE",
"317 246 OFFCURVE",
"299 202 CURVE",
"307 224 OFFCURVE",
"310 245 OFFCURVE",
"310 264 CURVE SMOOTH",
"310 303 OFFCURVE",
"294 322 OFFCURVE",
"261 322 CURVE SMOOTH",
"223 322 OFFCURVE",
"184 304 OFFCURVE",
"144 266 CURVE SMOOTH",
"107 231 OFFCURVE",
"83 194 OFFCURVE",
"72 155 CURVE SMOOTH",
"66 133 OFFCURVE",
"63 111 OFFCURVE",
"63 90 CURVE SMOOTH",
"63 66 OFFCURVE",
"67 46 OFFCURVE",
"77 28 CURVE SMOOTH",
"88 6 OFFCURVE",
"105 -5 OFFCURVE",
"127 -5 CURVE SMOOTH"
);
},
{
closed = 1;
nodes = (
"115 2 OFFCURVE",
"107 17 OFFCURVE",
"107 48 CURVE SMOOTH",
"107 79 OFFCURVE",
"114 114 OFFCURVE",
"127 153 CURVE SMOOTH",
"138 184 OFFCURVE",
"156 217 OFFCURVE",
"182 252 CURVE SMOOTH",
"213 294 OFFCURVE",
"242 315 OFFCURVE",
"268 315 CURVE SMOOTH",
"292 315 OFFCURVE",
"305 298 OFFCURVE",
"305 262 CURVE SMOOTH",
"305 229 OFFCURVE",
"295 195 OFFCURVE",
"275 160 CURVE SMOOTH",
"216 55 OFFCURVE",
"168 2 OFFCURVE",
"132 2 CURVE SMOOTH"
);
}
);
width = 368;
}
);
note = eth;
unicode = 00F0;
},
{
glyphname = e;
lastChange = "2021-10-29 07:10:48 +0000";
layers = (
{
anchors = (
{
name = bottom;
position = "{140, -5}";
},
{
name = ogonek;
position = "{219, -5}";
},
{
name = top;
position = "{254, 325}";
}
);
layerId = "171CD109-D0B0-4A7B-9E5C-4BA88B29FB0C";
paths = (
{
closed = 1;
nodes = (
"193 -10 OFFCURVE",
"233 12 OFFCURVE",
"259 38 CURVE SMOOTH",
"301 76 OFFCURVE",
"324 118 OFFCURVE",
"347 163 CURVE SMOOTH",
"351 170 OFFCURVE",
"350 173 OFFCURVE",
"347 173 CURVE SMOOTH",
"345 173 OFFCURVE",
"343 172 OFFCURVE",
"341 168 CURVE SMOOTH",
"311 111 OFFCURVE",
"282 72 OFFCURVE",
"259 49 CURVE SMOOTH",
"232 22 OFFCURVE",
"192 0 OFFCURVE",
"157 0 CURVE SMOOTH",
"123 0 OFFCURVE",
"106 27 OFFCURVE",
"106 72 CURVE SMOOTH",
"106 93 OFFCURVE",
"110 113 OFFCURVE",
"118 134 CURVE",
"167 134 OFFCURVE",
"214 156 OFFCURVE",
"259 202 CURVE SMOOTH",
"291 234 OFFCURVE",
"306 264 OFFCURVE",
"306 292 CURVE SMOOTH",
"306 315 OFFCURVE",
"289 327 OFFCURVE",
"255 327 CURVE SMOOTH",
"209 327 OFFCURVE",
"164 299 OFFCURVE",
"122 245 CURVE SMOOTH",
"82 193 OFFCURVE",
"62 143 OFFCURVE",
"62 95 CURVE SMOOTH",
"62 28 OFFCURVE",
"84 -10 OFFCURVE",
"149 -10 CURVE SMOOTH"
);
},
{
closed = 1;
nodes = (
"129 171 OFFCURVE",
"149 206 OFFCURVE",
"182 246 CURVE SMOOTH",
"218 291 OFFCURVE",
"249 314 OFFCURVE",
"274 314 CURVE SMOOTH",
"290 314 OFFCURVE",
"298 308 OFFCURVE",
"298 298 CURVE SMOOTH",
"298 283 OFFCURVE",
"291 265 OFFCURVE",
"278 245 CURVE SMOOTH",
"267 227 OFFCURVE",
"255 212 OFFCURVE",
"242 201 CURVE",
"242 200 LINE",
"197 161 OFFCURVE",
"156 141 OFFCURVE",
"119 141 CURVE"
);
}
);
width = 259;
}
);
note = e;
unicode = 0065;
},
{
glyphname = schwa;
lastChange = "2021-10-29 07:10:18 +0000";
layers = (
{
layerId = "171CD109-D0B0-4A7B-9E5C-4BA88B29FB0C";
paths = (
{
closed = 1;
nodes = (
"211 2 OFFCURVE",
"256 30 OFFCURVE",
"298 84 CURVE SMOOTH",
"338 136 OFFCURVE",
"358 186 OFFCURVE",
"358 234 CURVE SMOOTH",
"358 301 OFFCURVE",
"336 339 OFFCURVE",
"271 339 CURVE SMOOTH",
"176 339 OFFCURVE",
"131 264 OFFCURVE",
"81 166 CURVE SMOOTH",
"77 159 OFFCURVE",
"79 156 OFFCURVE",
"81 156 CURVE SMOOTH",
"83 156 OFFCURVE",
"85 157 OFFCURVE",
"87 161 CURVE SMOOTH",
"127 245 OFFCURVE",
"180 329 OFFCURVE",
"263 329 CURVE SMOOTH",
"297 329 OFFCURVE",
"314 302 OFFCURVE",
"314 257 CURVE SMOOTH",
"314 236 OFFCURVE",
"310 216 OFFCURVE",
"302 195 CURVE",
"253 195 OFFCURVE",
"206 173 OFFCURVE",
"161 127 CURVE SMOOTH",
"129 95 OFFCURVE",
"114 65 OFFCURVE",
"114 37 CURVE SMOOTH",
"114 14 OFFCURVE",
"131 2 OFFCURVE",
"165 2 CURVE SMOOTH"
);
},
{
closed = 1;
nodes = (
"130 15 OFFCURVE",
"122 21 OFFCURVE",
"122 31 CURVE SMOOTH",
"122 46 OFFCURVE",
"129 64 OFFCURVE",
"142 84 CURVE SMOOTH",
"176 139 OFFCURVE",
"245 188 OFFCURVE",
"301 188 CURVE",
"291 158 OFFCURVE",
"271 123 OFFCURVE",
"238 83 CURVE SMOOTH",
"202 38 OFFCURVE",
"171 15 OFFCURVE",
"146 15 CURVE SMOOTH"
);
}
);
width = 341;
}
);
unicode = 0259;
},
{
glyphname = f;
lastChange = "2021-10-29 07:10:18 +0000";
layers = (
{
layerId = "171CD109-D0B0-4A7B-9E5C-4BA88B29FB0C";
paths = (
{
closed = 1;
nodes = (
"147 -309 OFFCURVE",
"196 -183 OFFCURVE",
"196 -84 CURVE SMOOTH",
"196 -40 OFFCURVE",
"186 -2 OFFCURVE",
"170 16 CURVE",
"245 13 OFFCURVE",
"305 64 OFFCURVE",
"355 163 CURVE SMOOTH",
"357 167 OFFCURVE",
"357 169 OFFCURVE",
"357 171 CURVE SMOOTH",
"357 173 OFFCURVE",
"357 174 OFFCURVE",
"355 174 CURVE SMOOTH",
"353 174 OFFCURVE",
"351 171 OFFCURVE",
"348 166 CURVE SMOOTH",
"334 137 OFFCURVE",
"307 93 OFFCURVE",
"277 67 CURVE SMOOTH",
"243 36 OFFCURVE",
"212 21 OFFCURVE",
"163 24 CURVE",
"151 45 OFFCURVE",
"137 55 OFFCURVE",
"122 55 CURVE SMOOTH",
"113 55 OFFCURVE",
"108 51 OFFCURVE",
"108 43 CURVE SMOOTH",
"108 27 OFFCURVE",
"124 18 OFFCURVE",
"157 17 CURVE",
"175 4 OFFCURVE",
"186 -37 OFFCURVE",
"186 -83 CURVE SMOOTH",
"186 -92 OFFCURVE",
"186 -101 OFFCURVE",
"185 -110 CURVE SMOOTH",
"175 -198 OFFCURVE",
"133 -296 OFFCURVE",
"78 -296 CURVE SMOOTH",
"50 -296 OFFCURVE",
"35 -275 OFFCURVE",
"35 -225 CURVE SMOOTH",
"35 -141 OFFCURVE",
"68 -16 OFFCURVE",
"133 150 CURVE",
"132 150 LINE",
"353 354 OFFCURVE",
"463 497 OFFCURVE",
"463 578 CURVE SMOOTH",
"463 607 OFFCURVE",
"448 621 OFFCURVE",
"416 621 CURVE SMOOTH",
"392 621 OFFCURVE",
"366 611 OFFCURVE",
"337 590 CURVE SMOOTH",
"250 528 OFFCURVE",
"167 396 OFFCURVE",
"87 194 CURVE SMOOTH",
"28 42 OFFCURVE",
"-2 -82 OFFCURVE",
"-2 -177 CURVE SMOOTH",
"-2 -228 OFFCURVE",
"12 -303 OFFCURVE",
"72 -306 CURVE SMOOTH"
);
},
{
closed = 1;
nodes = (
"172 257 OFFCURVE",
"210 343 OFFCURVE",
"254 425 CURVE SMOOTH",
"320 550 OFFCURVE",
"377 613 OFFCURVE",
"423 613 CURVE SMOOTH",
"443 613 OFFCURVE",
"453 602 OFFCURVE",
"453 580 CURVE SMOOTH",
"453 500 OFFCURVE",
"349 363 OFFCURVE",
"140 167 CURVE"
);
}
);
width = 266;
}
);
note = f;
unicode = 0066;
},
{
glyphname = g;
lastChange = "2021-10-29 07:36:10 +0000";
layers = (
{
anchors = (
{
name = bottom;
position = "{1, -222}";
},
{
name = top;
position = "{282, 325}";
}
);
layerId = "171CD109-D0B0-4A7B-9E5C-4BA88B29FB0C";
paths = (
{
closed = 1;
nodes = (
"43 -224 OFFCURVE",
"64 -220 OFFCURVE",
"88 -212 CURVE SMOOTH",
"166 -186 OFFCURVE",
"219 -126 OFFCURVE",
"242 -33 CURVE SMOOTH",
"256 23 LINE",
"328 43 OFFCURVE",
"382 107 OFFCURVE",
"409 161 CURVE SMOOTH",
"411 165 OFFCURVE",
"409 169 OFFCURVE",
"407 169 CURVE SMOOTH",
"406 169 OFFCURVE",
"404 168 OFFCURVE",
"403 166 CURVE SMOOTH",
"369 98 OFFCURVE",
"321 51 OFFCURVE",
"258 30 CURVE",
"270 79 OFFCURVE",
"282 128 OFFCURVE",
"295 177 CURVE SMOOTH",
"314 243 OFFCURVE",
"335 286 OFFCURVE",
"357 309 CURVE SMOOTH",
"364 315 OFFCURVE",
"375 320 OFFCURVE",
"391 323 CURVE SMOOTH",
"403 325 OFFCURVE",
"409 329 OFFCURVE",
"409 335 CURVE SMOOTH",
"409 343 OFFCURVE",
"405 347 OFFCURVE",
"396 347 CURVE SMOOTH",
"371 347 OFFCURVE",
"341 309 OFFCURVE",
"307 231 CURVE",
"309 242 OFFCURVE",
"310 253 OFFCURVE",
"310 263 CURVE SMOOTH",
"310 304 OFFCURVE",
"293 324 OFFCURVE",
"258 324 CURVE SMOOTH",
"208 324 OFFCURVE",
"162 296 OFFCURVE",
"119 240 CURVE SMOOTH",
"79 188 OFFCURVE",
"59 135 OFFCURVE",
"59 83 CURVE SMOOTH",
"59 26 OFFCURVE",
"81 -2 OFFCURVE",
"123 -2 CURVE SMOOTH",
"175 -2 OFFCURVE",
"226 47 OFFCURVE",
"276 145 CURVE",
"262 106 OFFCURVE",
"255 83 OFFCURVE",
"253 74 CURVE SMOOTH",
"246 50 OFFCURVE",
"240 32 OFFCURVE",
"236 20 CURVE",
"184 -2 OFFCURVE",
"131 -30 OFFCURVE",
"79 -65 CURVE SMOOTH",
"7 -113 OFFCURVE",
"-29 -154 OFFCURVE",
"-29 -187 CURVE SMOOTH",
"-29 -212 OFFCURVE",
"-11 -224 OFFCURVE",
"25 -224 CURVE SMOOTH"
);
},
{
closed = 1;
nodes = (
"-5 -216 OFFCURVE",
"-20 -207 OFFCURVE",
"-20 -189 CURVE SMOOTH",
"-20 -175 OFFCURVE",
"-12 -159 OFFCURVE",
"4 -142 CURVE SMOOTH",
"58 -83 OFFCURVE",
"135 -32 OFFCURVE",
"233 12 CURVE",
"231 5 OFFCURVE",
"229 -1 OFFCURVE",
"227 -5 CURVE SMOOTH",
"214 -32 OFFCURVE",
"202 -53 OFFCURVE",
"194 -66 CURVE SMOOTH",
"131 -166 OFFCURVE",
"74 -216 OFFCURVE",
"23 -216 CURVE SMOOTH"
);
},
{
closed = 1;
nodes = (
"113 6 OFFCURVE",
"105 18 OFFCURVE",
"105 41 CURVE SMOOTH",
"105 77 OFFCURVE",
"117 121 OFFCURVE",
"139 172 CURVE SMOOTH",
"150 199 OFFCURVE",
"167 227 OFFCURVE",
"189 255 CURVE SMOOTH",
"215 290 OFFCURVE",
"239 310 OFFCURVE",
"259 314 CURVE",
"267 314 LINE SMOOTH",
"290 314 OFFCURVE",
"302 298 OFFCURVE",
"302 266 CURVE SMOOTH",
"302 241 OFFCURVE",
"296 215 OFFCURVE",
"286 187 CURVE SMOOTH",
"271 151 OFFCURVE",
"250 114 OFFCURVE",
"223 78 CURVE SMOOTH",
"188 30 OFFCURVE",
"156 6 OFFCURVE",
"128 6 CURVE SMOOTH"
);
}
);
width = 322;
}
);
note = g;
unicode = 0067;
},
{
glyphname = h;
lastChange = "2021-10-29 07:10:48 +0000";
layers = (
{
anchors = (
{
name = bottom;
position = "{135, 0}";
},
{
name = center;
position = "{231, 433}";
},
{
name = top;
position = "{448, 630}";
}
);
layerId = "171CD109-D0B0-4A7B-9E5C-4BA88B29FB0C";
paths = (
{
closed = 1;
nodes = (
"21 -3 OFFCURVE",
"29 4 OFFCURVE",
"42 4 CURVE SMOOTH",
"47 4 OFFCURVE",
"52 2 OFFCURVE",
"57 -1 CURVE",
"59 0 LINE",
"84 62 OFFCURVE",
"107 112 OFFCURVE",
"128 148 CURVE SMOOTH",
"151 187 OFFCURVE",
"176 222 OFFCURVE",
"204 253 CURVE SMOOTH",
"244 297 OFFCURVE",
"279 320 OFFCURVE",
"309 320 CURVE SMOOTH",
"324 320 OFFCURVE",
"332 314 OFFCURVE",
"332 302 CURVE SMOOTH",
"332 292 OFFCURVE",
"320 272 OFFCURVE",
"297 241 CURVE SMOOTH",
"263 197 OFFCURVE",
"241 166 OFFCURVE",
"231 149 CURVE SMOOTH",
"208 110 OFFCURVE",
"196 75 OFFCURVE",
"196 45 CURVE SMOOTH",
"196 11 OFFCURVE",
"214 -6 OFFCURVE",
"249 -6 CURVE SMOOTH",
"284 -6 OFFCURVE",
"320 6 OFFCURVE",
"358 46 CURVE SMOOTH",
"387 77 OFFCURVE",
"416 126 OFFCURVE",
"436 167 CURVE SMOOTH",
"439 174 OFFCURVE",
"433 176 OFFCURVE",
"429 169 CURVE SMOOTH",
"411 137 OFFCURVE",
"393 98 OFFCURVE",
"352 53 CURVE SMOOTH",
"320 19 OFFCURVE",
"290 6 OFFCURVE",
"267 6 CURVE SMOOTH",
"253 6 OFFCURVE",
"245 15 OFFCURVE",
"245 31 CURVE SMOOTH",
"245 64 OFFCURVE",
"265 108 OFFCURVE",
"304 163 CURVE SMOOTH",
"348 226 OFFCURVE",
"371 270 OFFCURVE",
"371 294 CURVE SMOOTH",
"371 318 OFFCURVE",
"354 330 OFFCURVE",
"321 330 CURVE SMOOTH",
"280 330 OFFCURVE",
"237 304 OFFCURVE",
"191 251 CURVE SMOOTH",
"159 214 OFFCURVE",
"129 169 OFFCURVE",
"101 116 CURVE",
"126 182 OFFCURVE",
"158 251 OFFCURVE",
"200 325 CURVE",
"203 324 OFFCURVE",
"207 325 OFFCURVE",
"213 327 CURVE SMOOTH",
"254 341 OFFCURVE",
"289 357 OFFCURVE",
"319 375 CURVE SMOOTH",
"359 399 OFFCURVE",
"396 430 OFFCURVE",
"430 467 CURVE SMOOTH",
"471 514 OFFCURVE",
"492 556 OFFCURVE",
"492 593 CURVE SMOOTH",
"492 623 OFFCURVE",
"477 639 OFFCURVE",
"445 639 CURVE SMOOTH",
"360 639 OFFCURVE",
"269 549 OFFCURVE",
"173 370 CURVE SMOOTH",
"107 247 OFFCURVE",
"54 119 OFFCURVE",
"14 -15 CURVE",
"16 -16 LINE"
);
},
{
closed = 1;
nodes = (
"240 398 OFFCURVE",
"277 455 OFFCURVE",
"313 506 CURVE SMOOTH",
"373 589 OFFCURVE",
"418 630 OFFCURVE",
"449 630 CURVE SMOOTH",
"472 630 OFFCURVE",
"484 619 OFFCURVE",
"484 595 CURVE SMOOTH",
"484 562 OFFCURVE",
"462 521 OFFCURVE",
"418 473 CURVE SMOOTH",
"382 433 OFFCURVE",
"346 402 OFFCURVE",
"310 378 CURVE SMOOTH",
"276 356 OFFCURVE",
"244 341 OFFCURVE",
"213 335 CURVE SMOOTH",
"209 334 OFFCURVE",
"207 334 OFFCURVE",
"205 334 CURVE"
);
}
);
width = 346;
}
);
note = h;
unicode = 0068;
},
{
glyphname = i;
lastChange = "2021-10-29 07:10:18 +0000";
layers = (
{
anchors = (
{
name = bottom;
position = "{96, 0}";
}
);
layerId = "171CD109-D0B0-4A7B-9E5C-4BA88B29FB0C";
paths = (
{
closed = 1;
nodes = (
"140 -10 OFFCURVE",
"160 -1 OFFCURVE",
"177 11 CURVE SMOOTH",
"226 45 OFFCURVE",
"255 111 OFFCURVE",
"282 167 CURVE SMOOTH",
"285 174 OFFCURVE",
"279 177 OFFCURVE",
"275 170 CURVE SMOOTH",
"253 131 OFFCURVE",
"225 60 OFFCURVE",
"172 19 CURVE SMOOTH",
"158 9 OFFCURVE",
"139 0 OFFCURVE",
"121 0 CURVE SMOOTH",
"104 0 OFFCURVE",
"88 8 OFFCURVE",
"88 32 CURVE SMOOTH",
"88 58 OFFCURVE",
"105 105 OFFCURVE",
"141 174 CURVE SMOOTH",
"226 339 LINE",
"224 341 LINE",
"204 326 OFFCURVE",
"187 318 OFFCURVE",
"174 318 CURVE SMOOTH",
"168 318 OFFCURVE",
"164 319 OFFCURVE",
"162 322 CURVE",
"159 322 LINE",
"84 175 LINE SMOOTH",
"63 135 OFFCURVE",
"53 98 OFFCURVE",
"53 63 CURVE SMOOTH",
"53 16 OFFCURVE",
"75 -10 OFFCURVE",
"119 -10 CURVE SMOOTH"
);
},
{
closed = 1;
nodes = (
"258 380 OFFCURVE",
"268 392 OFFCURVE",
"268 414 CURVE SMOOTH",
"268 434 OFFCURVE",
"257 445 OFFCURVE",
"236 445 CURVE SMOOTH",
"215 445 OFFCURVE",
"205 433 OFFCURVE",
"205 411 CURVE SMOOTH",
"205 391 OFFCURVE",
"216 380 OFFCURVE",
"237 380 CURVE SMOOTH"
);
}
);
width = 192;
}
);
note = i;
unicode = 0069;
},
{
glyphname = idotless;
lastChange = "2021-10-29 07:10:48 +0000";
layers = (
{
anchors = (
{
name = bottom;
position = "{112, -7}";
},
{
name = ogonek;
position = "{173, -4}";
},
{
name = top;
position = "{192, 325}";
}
);
layerId = "171CD109-D0B0-4A7B-9E5C-4BA88B29FB0C";
paths = (
{
closed = 1;
nodes = (
"181 -8 OFFCURVE",
"233 49 OFFCURVE",
"280 163 CURVE",
"280 164 LINE",
"276 166 LINE",
"274 166 LINE",
"228 54 OFFCURVE",
"179 -2 OFFCURVE",
"126 -2 CURVE SMOOTH",
"101 -2 OFFCURVE",
"88 10 OFFCURVE",
"88 32 CURVE SMOOTH",
"88 58 OFFCURVE",
"105 105 OFFCURVE",
"141 174 CURVE SMOOTH",
"226 339 LINE",
"224 341 LINE",
"204 326 OFFCURVE",
"187 318 OFFCURVE",
"174 318 CURVE SMOOTH",
"168 318 OFFCURVE",
"164 319 OFFCURVE",
"162 322 CURVE",
"159 322 LINE",
"84 175 LINE SMOOTH",
"63 135 OFFCURVE",
"53 98 OFFCURVE",
"53 63 CURVE SMOOTH",
"53 16 OFFCURVE",
"76 -8 OFFCURVE",
"123 -8 CURVE SMOOTH"
);
}
);
width = 192;
}
);
unicode = 0131;
},
{
glyphname = j;
lastChange = "2021-10-29 07:10:18 +0000";
layers = (
{
layerId = "171CD109-D0B0-4A7B-9E5C-4BA88B29FB0C";
paths = (
{
closed = 1;
nodes = (
"-189 -268 OFFCURVE",
"-170 -265 OFFCURVE",
"-151 -260 CURVE SMOOTH",
"-115 -250 OFFCURVE",
"-78 -228 OFFCURVE",
"-42 -194 CURVE SMOOTH",
"-7 -161 OFFCURVE",
"18 -126 OFFCURVE",
"32 -90 CURVE SMOOTH",
"41 -68 OFFCURVE",
"49 -51 OFFCURVE",
"54 -40 CURVE",
"149 1 OFFCURVE",
"218 69 OFFCURVE",
"262 161 CURVE SMOOTH",
"264 166 OFFCURVE",
"263 169 OFFCURVE",
"260 169 CURVE SMOOTH",
"259 169 OFFCURVE",
"257 168 OFFCURVE",
"255 164 CURVE SMOOTH",
"212 76 OFFCURVE",
"148 13 OFFCURVE",
"59 -27 CURVE",
"218 333 LINE",
"216 335 LINE",
"194 326 OFFCURVE",
"176 321 OFFCURVE",
"161 321 CURVE SMOOTH",
"158 321 OFFCURVE",
"155 321 OFFCURVE",
"153 322 CURVE",
"151 321 LINE",
"91 167 OFFCURVE",
"40 43 OFFCURVE",
"-2 -50 CURVE",
"-96 -82 OFFCURVE",
"-161 -112 OFFCURVE",
"-196 -141 CURVE SMOOTH",
"-243 -179 OFFCURVE",
"-266 -209 OFFCURVE",
"-266 -233 CURVE SMOOTH",
"-266 -256 OFFCURVE",
"-246 -268 OFFCURVE",
"-207 -268 CURVE SMOOTH"
);
},
{
closed = 1;
nodes = (
"-244 -259 OFFCURVE",
"-256 -251 OFFCURVE",
"-256 -236 CURVE SMOOTH",
"-256 -208 OFFCURVE",
"-227 -176 OFFCURVE",
"-170 -140 CURVE SMOOTH",
"-121 -109 OFFCURVE",
"-67 -83 OFFCURVE",
"-8 -63 CURVE",
"-21 -92 OFFCURVE",
"-32 -114 OFFCURVE",
"-41 -130 CURVE SMOOTH",
"-59 -162 OFFCURVE",
"-84 -191 OFFCURVE",
"-117 -216 CURVE SMOOTH",
"-153 -244 OFFCURVE",
"-188 -259 OFFCURVE",
"-220 -259 CURVE SMOOTH"
);
},
{
closed = 1;
nodes = (
"228 389 OFFCURVE",
"237 393 OFFCURVE",
"245 401 CURVE SMOOTH",
"253 409 OFFCURVE",
"257 418 OFFCURVE",
"257 429 CURVE SMOOTH",
"257 448 OFFCURVE",
"246 458 OFFCURVE",
"224 458 CURVE SMOOTH",
"213 458 OFFCURVE",
"204 454 OFFCURVE",
"196 446 CURVE SMOOTH",
"188 439 OFFCURVE",
"184 429 OFFCURVE",
"184 418 CURVE SMOOTH",
"184 399 OFFCURVE",
"195 389 OFFCURVE",
"217 389 CURVE SMOOTH"
);
}
);
width = 174;
}
);
note = j;
unicode = 006A;
},
{
glyphname = jdotless;
lastChange = "2021-10-29 07:10:48 +0000";
layers = (
{
anchors = (
{
name = bottom;
position = "{87, -255}";
},
{
name = top;
position = "{186, 325}";
}
);
layerId = "171CD109-D0B0-4A7B-9E5C-4BA88B29FB0C";
paths = (
{
closed = 1;
nodes = (
"-189 -268 OFFCURVE",
"-170 -265 OFFCURVE",
"-151 -260 CURVE SMOOTH",
"-115 -250 OFFCURVE",
"-78 -228 OFFCURVE",
"-42 -194 CURVE SMOOTH",
"-7 -161 OFFCURVE",
"18 -126 OFFCURVE",
"32 -90 CURVE SMOOTH",
"41 -68 OFFCURVE",
"49 -51 OFFCURVE",
"54 -40 CURVE",
"149 1 OFFCURVE",
"218 69 OFFCURVE",
"262 161 CURVE SMOOTH",
"264 166 OFFCURVE",
"263 169 OFFCURVE",
"260 169 CURVE SMOOTH",
"259 169 OFFCURVE",
"257 168 OFFCURVE",
"255 164 CURVE SMOOTH",
"212 76 OFFCURVE",
"148 13 OFFCURVE",
"59 -27 CURVE",
"218 333 LINE",
"216 335 LINE",
"194 326 OFFCURVE",
"176 321 OFFCURVE",
"161 321 CURVE SMOOTH",
"158 321 OFFCURVE",
"155 321 OFFCURVE",
"153 322 CURVE",
"151 321 LINE",
"91 167 OFFCURVE",
"40 43 OFFCURVE",
"-2 -50 CURVE",
"-96 -82 OFFCURVE",
"-161 -112 OFFCURVE",
"-196 -141 CURVE SMOOTH",
"-243 -179 OFFCURVE",
"-266 -209 OFFCURVE",
"-266 -233 CURVE SMOOTH",
"-266 -256 OFFCURVE",
"-246 -268 OFFCURVE",
"-207 -268 CURVE SMOOTH"
);
},
{
closed = 1;
nodes = (
"-244 -259 OFFCURVE",
"-256 -251 OFFCURVE",
"-256 -236 CURVE SMOOTH",
"-256 -208 OFFCURVE",
"-227 -176 OFFCURVE",
"-170 -140 CURVE SMOOTH",
"-121 -109 OFFCURVE",
"-67 -83 OFFCURVE",
"-8 -63 CURVE",
"-21 -92 OFFCURVE",
"-32 -114 OFFCURVE",
"-41 -130 CURVE SMOOTH",
"-59 -162 OFFCURVE",
"-84 -191 OFFCURVE",
"-117 -216 CURVE SMOOTH",
"-153 -244 OFFCURVE",
"-188 -259 OFFCURVE",
"-220 -259 CURVE SMOOTH"
);
}
);
width = 174;
}
);
unicode = 0237;
},
{
glyphname = k;
lastChange = "2021-10-29 07:10:18 +0000";
layers = (
{
anchors = (
{
name = bottom;
position = "{106, 0}";
},
{
name = top;
position = "{157, 615}";
}
);
layerId = "171CD109-D0B0-4A7B-9E5C-4BA88B29FB0C";
paths = (
{
closed = 1;
nodes = (
"6 -8 OFFCURVE",
"8 -6 OFFCURVE",
"13 -2 CURVE SMOOTH",
"17 2 OFFCURVE",
"22 4 OFFCURVE",
"29 4 CURVE SMOOTH",
"33 4 OFFCURVE",
"37 2 OFFCURVE",
"42 -2 CURVE",
"43 -2 OFFCURVE",
"44 -1 OFFCURVE",
"44 -1 CURVE",
"57 23 OFFCURVE",
"67 43 OFFCURVE",
"75 56 CURVE SMOOTH",
"106 113 OFFCURVE",
"134 158 OFFCURVE",
"159 191 CURVE SMOOTH",
"181 221 OFFCURVE",
"206 248 OFFCURVE",
"234 275 CURVE SMOOTH",
"272 311 OFFCURVE",
"303 330 OFFCURVE",
"325 330 CURVE SMOOTH",
"334 330 OFFCURVE",
"339 326 OFFCURVE",
"339 318 CURVE SMOOTH",
"339 305 OFFCURVE",
"331 289 OFFCURVE",
"316 270 CURVE SMOOTH",
"300 251 OFFCURVE",
"279 234 OFFCURVE",
"253 221 CURVE SMOOTH",
"226 206 OFFCURVE",
"200 199 OFFCURVE",
"176 198 CURVE SMOOTH",
"172 198 OFFCURVE",
"170 197 OFFCURVE",
"170 194 CURVE SMOOTH",
"170 192 OFFCURVE",
"171 191 OFFCURVE",
"174 191 CURVE SMOOTH",
"192 191 OFFCURVE",
"201 183 OFFCURVE",
"201 167 CURVE SMOOTH",
"201 155 OFFCURVE",
"197 135 OFFCURVE",
"189 108 CURVE SMOOTH",
"181 81 OFFCURVE",
"177 61 OFFCURVE",
"177 47 CURVE SMOOTH",
"177 13 OFFCURVE",
"199 -5 OFFCURVE",
"243 -5 CURVE SMOOTH",
"272 -5 OFFCURVE",
"304 16 OFFCURVE",
"337 58 CURVE SMOOTH",
"361 88 OFFCURVE",
"381 123 OFFCURVE",
"400 161 CURVE SMOOTH",
"406 173 OFFCURVE",
"396 169 OFFCURVE",
"393 164 CURVE SMOOTH",
"373 126 OFFCURVE",
"356 97 OFFCURVE",
"334 69 CURVE SMOOTH",
"303 26 OFFCURVE",
"274 5 OFFCURVE",
"250 5 CURVE SMOOTH",
"234 5 OFFCURVE",
"226 14 OFFCURVE",
"226 33 CURVE SMOOTH",
"226 45 OFFCURVE",
"229 63 OFFCURVE",
"234 88 CURVE SMOOTH",
"240 112 OFFCURVE",
"243 131 OFFCURVE",
"243 143 CURVE SMOOTH",
"243 154 OFFCURVE",
"240 163 OFFCURVE",
"237 173 CURVE SMOOTH",
"232 184 OFFCURVE",
"226 191 OFFCURVE",
"218 191 CURVE SMOOTH",
"216 191 LINE",
"248 199 OFFCURVE",
"269 206 OFFCURVE",
"281 211 CURVE SMOOTH",
"338 234 OFFCURVE",
"367 265 OFFCURVE",
"367 303 CURVE SMOOTH",
"367 326 OFFCURVE",
"355 338 OFFCURVE",
"330 338 CURVE SMOOTH",
"262 338 OFFCURVE",
"181 257 OFFCURVE",
"86 96 CURVE",
"121 169 OFFCURVE",
"161 243 OFFCURVE",
"205 319 CURVE",
"208 319 OFFCURVE",
"210 319 OFFCURVE",
"212 320 CURVE",
"225 323 OFFCURVE",
"244 330 OFFCURVE",
"268 341 CURVE SMOOTH",
"351 379 OFFCURVE",
"417 431 OFFCURVE",
"464 497 CURVE SMOOTH",
"489 531 OFFCURVE",
"501 561 OFFCURVE",
"501 588 CURVE SMOOTH",
"501 614 OFFCURVE",
"485 627 OFFCURVE",
"455 627 CURVE SMOOTH",
"329 627 OFFCURVE",
"179 417 OFFCURVE",
"5 -3 CURVE",
"4 -4 OFFCURVE",
"3 -8 OFFCURVE",
"5 -8 CURVE SMOOTH"
);
},
{
closed = 1;
nodes = (
"260 409 OFFCURVE",
"296 466 OFFCURVE",
"321 499 CURVE SMOOTH",
"379 577 OFFCURVE",
"427 616 OFFCURVE",
"465 616 CURVE SMOOTH",
"482 616 OFFCURVE",
"490 608 OFFCURVE",
"490 592 CURVE SMOOTH",
"490 545 OFFCURVE",
"446 485 OFFCURVE",
"357 411 CURVE SMOOTH",
"304 366 OFFCURVE",
"256 339 OFFCURVE",
"213 328 CURVE",
"211 328 LINE"
);
}
);
width = 313;
}
);
note = k;
unicode = 006B;
},
{
glyphname = kgreenlandic;
lastChange = "2021-10-29 07:10:18 +0000";
layers = (
{
layerId = "171CD109-D0B0-4A7B-9E5C-4BA88B29FB0C";
paths = (
{
closed = 1;
nodes = (
"-3 -8 OFFCURVE",
"-1 -6 OFFCURVE",
"4 -2 CURVE SMOOTH",
"8 2 OFFCURVE",
"13 4 OFFCURVE",
"20 4 CURVE SMOOTH",
"24 4 OFFCURVE",
"28 2 OFFCURVE",
"33 -2 CURVE",
"34 -2 OFFCURVE",
"35 -1 OFFCURVE",
"35 -1 CURVE",
"105 139 OFFCURVE",
"161 192 OFFCURVE",
"267 303 CURVE",
"231 231 OFFCURVE",
"195 140 OFFCURVE",
"195 75 CURVE SMOOTH",
"195 28 OFFCURVE",
"215 -5 OFFCURVE",
"269 -5 CURVE SMOOTH",
"298 -5 OFFCURVE",
"330 16 OFFCURVE",
"363 58 CURVE SMOOTH",
"387 88 OFFCURVE",
"407 123 OFFCURVE",
"426 161 CURVE SMOOTH",
"432 173 OFFCURVE",
"422 169 OFFCURVE",
"419 164 CURVE SMOOTH",
"399 126 OFFCURVE",
"382 97 OFFCURVE",
"360 69 CURVE SMOOTH",
"329 26 OFFCURVE",
"300 5 OFFCURVE",
"276 5 CURVE SMOOTH",
"255 5 OFFCURVE",
"247 34 OFFCURVE",
"247 75 CURVE SMOOTH",
"247 153 OFFCURVE",
"275 276 OFFCURVE",
"298 338 CURVE",
"309 349 LINE SMOOTH",
"328 368 OFFCURVE",
"400 427 OFFCURVE",
"446 427 CURVE SMOOTH",
"458 427 OFFCURVE",
"469 423 OFFCURVE",
"476 414 CURVE",
"486 420 OFFCURVE",
"491 429 OFFCURVE",
"491 438 CURVE SMOOTH",
"491 451 OFFCURVE",
"480 463 OFFCURVE",
"461 463 CURVE SMOOTH",
"391 463 OFFCURVE",
"317 369 OFFCURVE",
"268 320 CURVE SMOOTH",
"220 269 OFFCURVE",
"162 208 OFFCURVE",
"128 166 CURVE",
"205 306 OFFCURVE",
"274 415 OFFCURVE",
"365 505 CURVE",
"212 505 LINE",
"208 498 LINE",
"220 498 OFFCURVE",
"238 497 OFFCURVE",
"246 495 CURVE SMOOTH",
"259 493 OFFCURVE",
"264 488 OFFCURVE",
"264 479 CURVE SMOOTH",
"264 463 OFFCURVE",
"244 436 OFFCURVE",
"224 405 CURVE SMOOTH",
"202 371 OFFCURVE",
"102 207 OFFCURVE",
"33 72 CURVE SMOOTH",
"5 17 OFFCURVE",
"1 9 OFFCURVE",
"-4 -3 CURVE",
"-5 -4 OFFCURVE",
"-6 -8 OFFCURVE",
"-4 -8 CURVE SMOOTH"
);
}
);
width = 339;
}
);
unicode = 0138;
},
{
glyphname = l;
lastChange = "2021-10-29 07:10:48 +0000";
layers = (
{
anchors = (
{
name = bottom;
position = "{136, -4}";
},
{
name = center;
position = "{110, 308}";
},
{
name = top;
position = "{378, 615}";
},
{
name = topright;
position = "{418, 615}";
}
);
layerId = "171CD109-D0B0-4A7B-9E5C-4BA88B29FB0C";
paths = (
{
closed = 1;
nodes = (
"169 -8 OFFCURVE",
"188 -1 OFFCURVE",
"205 11 CURVE SMOOTH",
"254 45 OFFCURVE",
"283 111 OFFCURVE",
"310 167 CURVE SMOOTH",
"313 174 OFFCURVE",
"307 177 OFFCURVE",
"303 170 CURVE SMOOTH",
"281 131 OFFCURVE",
"252 59 OFFCURVE",
"199 18 CURVE SMOOTH",
"185 8 OFFCURVE",
"167 0 OFFCURVE",
"149 0 CURVE SMOOTH",
"121 0 OFFCURVE",
"108 22 OFFCURVE",
"108 65 CURVE SMOOTH",
"108 91 OFFCURVE",
"114 125 OFFCURVE",
"125 166 CURVE",
"241 271 OFFCURVE",
"324 387 OFFCURVE",
"375 514 CURVE SMOOTH",
"390 552 OFFCURVE",
"398 580 OFFCURVE",
"398 600 CURVE SMOOTH",
"398 614 OFFCURVE",
"391 621 OFFCURVE",
"376 621 CURVE SMOOTH",
"341 621 OFFCURVE",
"298 590 OFFCURVE",
"248 528 CURVE SMOOTH",
"213 486 OFFCURVE",
"183 440 OFFCURVE",
"155 390 CURVE SMOOTH",
"132 348 OFFCURVE",
"112 300 OFFCURVE",
"95 248 CURVE SMOOTH",
"76 190 OFFCURVE",
"67 140 OFFCURVE",
"67 99 CURVE SMOOTH",
"67 28 OFFCURVE",
"95 -8 OFFCURVE",
"148 -8 CURVE SMOOTH"
);
},
{
closed = 1;
nodes = (
"145 233 OFFCURVE",
"170 296 OFFCURVE",
"202 367 CURVE SMOOTH",
"215 395 OFFCURVE",
"230 424 OFFCURVE",
"247 454 CURVE SMOOTH",
"310 560 OFFCURVE",
"354 613 OFFCURVE",
"379 613 CURVE SMOOTH",
"386 613 OFFCURVE",
"390 608 OFFCURVE",
"390 596 CURVE SMOOTH",
"390 565 OFFCURVE",
"367 510 OFFCURVE",
"320 430 CURVE SMOOTH",
"285 370 OFFCURVE",
"250 318 OFFCURVE",
"217 275 CURVE SMOOTH",
"184 232 OFFCURVE",
"155 199 OFFCURVE",
"128 176 CURVE"
);
}
);
width = 220;
}
);
note = l;
unicode = 006C;
},
{
glyphname = lslash;
lastChange = "2021-10-29 07:10:48 +0000";
layers = (
{
anchors = (
{
name = bottom;
position = "{136, -4}";
},
{
name = center;
position = "{110, 308}";
},
{
name = top;
position = "{378, 615}";
},
{
name = topright;
position = "{418, 615}";
}
);
layerId = "171CD109-D0B0-4A7B-9E5C-4BA88B29FB0C";
paths = (
{
closed = 1;
nodes = (
"169 -8 OFFCURVE",
"188 -1 OFFCURVE",
"205 11 CURVE SMOOTH",
"254 45 OFFCURVE",
"283 111 OFFCURVE",
"310 167 CURVE SMOOTH",
"313 174 OFFCURVE",
"307 177 OFFCURVE",
"303 170 CURVE SMOOTH",
"281 131 OFFCURVE",
"252 59 OFFCURVE",
"199 18 CURVE SMOOTH",
"185 8 OFFCURVE",
"167 0 OFFCURVE",
"149 0 CURVE SMOOTH",
"121 0 OFFCURVE",
"108 22 OFFCURVE",
"108 65 CURVE SMOOTH",
"108 91 OFFCURVE",
"114 125 OFFCURVE",
"125 166 CURVE",
"241 271 OFFCURVE",
"324 387 OFFCURVE",
"375 514 CURVE SMOOTH",
"390 552 OFFCURVE",
"398 580 OFFCURVE",
"398 600 CURVE SMOOTH",
"398 614 OFFCURVE",
"391 621 OFFCURVE",
"376 621 CURVE SMOOTH",
"341 621 OFFCURVE",
"298 590 OFFCURVE",
"248 528 CURVE SMOOTH",
"213 486 OFFCURVE",
"183 440 OFFCURVE",
"155 390 CURVE SMOOTH",
"132 348 OFFCURVE",
"112 300 OFFCURVE",
"95 248 CURVE SMOOTH",
"76 190 OFFCURVE",
"67 140 OFFCURVE",
"67 99 CURVE SMOOTH",
"67 28 OFFCURVE",
"95 -8 OFFCURVE",
"148 -8 CURVE SMOOTH"
);
},
{
closed = 1;
nodes = (
"200 170 LINE SMOOTH",
"208 171 OFFCURVE",
"211 177 OFFCURVE",
"210 181 CURVE SMOOTH",
"209 183 OFFCURVE",
"208 183 OFFCURVE",
"208 183 CURVE",
"21 158 LINE SMOOTH",
"14 157 OFFCURVE",
"8 150 OFFCURVE",
"9 146 CURVE SMOOTH",
"9 145 OFFCURVE",
"10 144 OFFCURVE",
"12 144 CURVE SMOOTH"
);
},
{
closed = 1;
nodes = (
"145 233 OFFCURVE",
"170 296 OFFCURVE",
"202 367 CURVE SMOOTH",
"215 395 OFFCURVE",
"230 424 OFFCURVE",
"247 454 CURVE SMOOTH",
"310 560 OFFCURVE",
"354 613 OFFCURVE",
"379 613 CURVE SMOOTH",
"386 613 OFFCURVE",
"390 608 OFFCURVE",
"390 596 CURVE SMOOTH",
"390 565 OFFCURVE",
"367 510 OFFCURVE",
"320 430 CURVE SMOOTH",
"285 370 OFFCURVE",
"250 318 OFFCURVE",
"217 275 CURVE SMOOTH",
"184 232 OFFCURVE",
"155 199 OFFCURVE",
"128 176 CURVE"
);
}
);
width = 220;
}
);
unicode = 0142;
},
{
glyphname = m;
lastChange = "2021-10-29 07:10:18 +0000";
layers = (
{
layerId = "171CD109-D0B0-4A7B-9E5C-4BA88B29FB0C";
paths = (
{
closed = 1;
nodes = (
"-15 -24 OFFCURVE",
"-11 -20 OFFCURVE",
"-4 -11 CURVE SMOOTH",
"3 -3 OFFCURVE",
"12 2 OFFCURVE",
"24 2 CURVE SMOOTH",
"31 2 OFFCURVE",
"39 0 OFFCURVE",
"47 -3 CURVE",
"49 -2 LINE",
"78 60 OFFCURVE",
"110 119 OFFCURVE",
"146 177 CURVE SMOOTH",
"201 267 OFFCURVE",
"242 311 OFFCURVE",
"269 311 CURVE SMOOTH",
"276 311 OFFCURVE",
"280 306 OFFCURVE",
"280 296 CURVE SMOOTH",
"280 272 OFFCURVE",
"258 220 OFFCURVE",
"216 140 CURVE SMOOTH",
"207 124 OFFCURVE",
"178 72 OFFCURVE",
"127 -16 CURVE",
"130 -18 LINE",
"134 -4 OFFCURVE",
"146 3 OFFCURVE",
"166 3 CURVE SMOOTH",
"173 3 OFFCURVE",
"181 1 OFFCURVE",
"190 -1 CURVE",
"192 -1 LINE",
"222 62 OFFCURVE",
"253 120 OFFCURVE",
"286 173 CURVE SMOOTH",
"339 260 OFFCURVE",
"380 304 OFFCURVE",
"408 304 CURVE SMOOTH",
"418 304 OFFCURVE",
"423 298 OFFCURVE",
"423 287 CURVE SMOOTH",
"423 269 OFFCURVE",
"405 231 OFFCURVE",
"370 173 CURVE SMOOTH",
"350 141 OFFCURVE",
"338 114 OFFCURVE",
"330 90 CURVE SMOOTH",
"325 74 OFFCURVE",
"322 59 OFFCURVE",
"322 46 CURVE SMOOTH",
"322 12 OFFCURVE",
"341 -10 OFFCURVE",
"388 -10 CURVE SMOOTH",
"410 -10 OFFCURVE",
"432 -1 OFFCURVE",
"449 11 CURVE SMOOTH",
"498 45 OFFCURVE",
"527 111 OFFCURVE",
"554 167 CURVE SMOOTH",
"557 174 OFFCURVE",
"551 177 OFFCURVE",
"547 170 CURVE SMOOTH",
"525 131 OFFCURVE",
"496 59 OFFCURVE",
"443 18 CURVE SMOOTH",
"429 8 OFFCURVE",
"411 0 OFFCURVE",
"393 0 CURVE SMOOTH",
"367 0 OFFCURVE",
"358 12 OFFCURVE",
"358 30 CURVE SMOOTH",
"358 49 OFFCURVE",
"368 73 OFFCURVE",
"379 95 CURVE SMOOTH",
"412 156 OFFCURVE",
"469 221 OFFCURVE",
"469 283 CURVE SMOOTH",
"469 311 OFFCURVE",
"455 325 OFFCURVE",
"426 325 CURVE SMOOTH",
"404 325 OFFCURVE",
"379 310 OFFCURVE",
"351 280 CURVE SMOOTH",
"341 270 OFFCURVE",
"323 245 OFFCURVE",
"295 207 CURVE",
"312 245 OFFCURVE",
"320 273 OFFCURVE",
"320 292 CURVE SMOOTH",
"320 316 OFFCURVE",
"308 327 OFFCURVE",
"283 327 CURVE SMOOTH",
"247 327 OFFCURVE",
"201 284 OFFCURVE",
"146 197 CURVE",
"184 271 OFFCURVE",
"209 317 OFFCURVE",
"219 336 CURVE",
"220 336 LINE",
"221 338 LINE",
"219 336 LINE SMOOTH",
"202 323 OFFCURVE",
"186 317 OFFCURVE",
"173 317 CURVE SMOOTH",
"166 317 OFFCURVE",
"161 319 OFFCURVE",
"157 322 CURVE",
"155 322 LINE",
"128 263 OFFCURVE",
"108 219 OFFCURVE",
"93 190 CURVE SMOOTH",
"56 115 OFFCURVE",
"20 44 OFFCURVE",
"-18 -22 CURVE",
"-16 -24 LINE"
);
}
);
width = 464;
}
);
note = m;
unicode = 006D;
},
{
glyphname = n;
lastChange = "2021-10-29 07:10:48 +0000";
layers = (
{
anchors = (
{
name = bottom;
position = "{105, 0}";
},
{
name = top;
position = "{292, 325}";
}
);
layerId = "171CD109-D0B0-4A7B-9E5C-4BA88B29FB0C";
paths = (
{
closed = 1;
nodes = (
"1 -32 OFFCURVE",
"6 -26 OFFCURVE",
"12 -14 CURVE SMOOTH",
"18 -3 OFFCURVE",
"25 2 OFFCURVE",
"34 2 CURVE SMOOTH",
"40 2 OFFCURVE",
"47 0 OFFCURVE",
"55 -4 CURVE",
"57 -3 LINE",
"77 43 OFFCURVE",
"95 82 OFFCURVE",
"112 111 CURVE SMOOTH",
"184 241 OFFCURVE",
"235 310 OFFCURVE",
"264 310 CURVE SMOOTH",
"270 310 LINE SMOOTH",
"283 310 OFFCURVE",
"289 305 OFFCURVE",
"289 293 CURVE SMOOTH",
"289 279 OFFCURVE",
"272 243 OFFCURVE",
"238 187 CURVE SMOOTH",
"204 131 OFFCURVE",
"188 86 OFFCURVE",
"188 51 CURVE SMOOTH",
"188 10 OFFCURVE",
"213 -10 OFFCURVE",
"251 -10 CURVE SMOOTH",
"273 -10 OFFCURVE",
"295 -1 OFFCURVE",
"312 11 CURVE SMOOTH",
"361 45 OFFCURVE",
"390 111 OFFCURVE",
"417 167 CURVE SMOOTH",
"420 174 OFFCURVE",
"414 177 OFFCURVE",
"410 170 CURVE SMOOTH",
"388 131 OFFCURVE",
"359 59 OFFCURVE",
"306 18 CURVE SMOOTH",
"292 8 OFFCURVE",
"270 -1 OFFCURVE",
"252 -1 CURVE SMOOTH",
"233 -1 OFFCURVE",
"218 8 OFFCURVE",
"218 26 CURVE SMOOTH",
"218 51 OFFCURVE",
"237 93 OFFCURVE",
"275 157 CURVE SMOOTH",
"313 221 OFFCURVE",
"332 267 OFFCURVE",
"332 295 CURVE SMOOTH",
"332 305 OFFCURVE",
"328 314 OFFCURVE",
"320 321 CURVE SMOOTH",
"313 327 OFFCURVE",
"303 331 OFFCURVE",
"293 331 CURVE SMOOTH",
"248 331 OFFCURVE",
"187 263 OFFCURVE",
"111 126 CURVE",
"113 131 OFFCURVE",
"129 171 OFFCURVE",
"161 247 CURVE SMOOTH",
"190 316 OFFCURVE",
"205 352 OFFCURVE",
"205 354 CURVE SMOOTH",
"205 355 LINE",
"190 326 OFFCURVE",
"174 312 OFFCURVE",
"158 312 CURVE SMOOTH",
"152 312 OFFCURVE",
"147 315 OFFCURVE",
"141 320 CURVE",
"139 320 LINE",
"118 260 OFFCURVE",
"101 214 OFFCURVE",
"89 184 CURVE SMOOTH",
"51 92 OFFCURVE",
"20 20 OFFCURVE",
"-4 -32 CURVE",
"-3 -34 LINE"
);
}
);
width = 326;
}
);
note = n;
unicode = 006E;
},
{
glyphname = eng;
lastChange = "2021-10-29 07:10:18 +0000";
layers = (
{
layerId = "171CD109-D0B0-4A7B-9E5C-4BA88B29FB0C";
paths = (
{
closed = 1;
nodes = (
"9 -236 OFFCURVE",
"65 -198 OFFCURVE",
"132 -105 CURVE SMOOTH",
"200 -8 OFFCURVE",
"334 230 OFFCURVE",
"332 297 CURVE SMOOTH",
"332 305 OFFCURVE",
"328 314 OFFCURVE",
"320 321 CURVE SMOOTH",
"313 327 OFFCURVE",
"303 331 OFFCURVE",
"293 331 CURVE SMOOTH",
"248 331 OFFCURVE",
"187 263 OFFCURVE",
"111 126 CURVE",
"113 131 OFFCURVE",
"129 171 OFFCURVE",
"161 247 CURVE SMOOTH",
"190 316 OFFCURVE",
"205 352 OFFCURVE",
"205 354 CURVE SMOOTH",
"205 355 LINE",
"190 326 OFFCURVE",
"174 312 OFFCURVE",
"158 312 CURVE SMOOTH",
"152 312 OFFCURVE",
"147 315 OFFCURVE",
"141 320 CURVE",
"139 320 LINE",
"118 260 OFFCURVE",
"101 214 OFFCURVE",
"89 184 CURVE SMOOTH",
"51 92 OFFCURVE",
"20 20 OFFCURVE",
"-4 -32 CURVE",
"-3 -34 LINE",
"1 -32 OFFCURVE",
"6 -26 OFFCURVE",
"12 -14 CURVE SMOOTH",
"18 -3 OFFCURVE",
"25 2 OFFCURVE",
"34 2 CURVE SMOOTH",
"40 2 OFFCURVE",
"47 0 OFFCURVE",
"55 -4 CURVE",
"57 -3 LINE",
"77 43 OFFCURVE",
"95 82 OFFCURVE",
"112 111 CURVE SMOOTH",
"184 241 OFFCURVE",
"235 310 OFFCURVE",
"264 310 CURVE SMOOTH",
"270 310 LINE SMOOTH",
"283 310 OFFCURVE",
"289 305 OFFCURVE",
"289 292 CURVE SMOOTH",
"290 273 OFFCURVE",
"179 42 OFFCURVE",
"138 -34 CURVE SMOOTH",
"127 -55 OFFCURVE",
"116 -75 OFFCURVE",
"104 -95 CURVE SMOOTH",
"60 -168 OFFCURVE",
"14 -221 OFFCURVE",
"-59 -221 CURVE SMOOTH",
"-90 -221 OFFCURVE",
"-115 -205 OFFCURVE",
"-130 -178 CURVE SMOOTH",
"-138 -163 OFFCURVE",
"-141 -141 OFFCURVE",
"-141 -123 CURVE SMOOTH",
"-141 -108 OFFCURVE",
"-139 -95 OFFCURVE",
"-134 -88 CURVE",
"-143 -80 OFFCURVE",
"-176 -108 OFFCURVE",
"-176 -151 CURVE SMOOTH",
"-176 -212 OFFCURVE",
"-108 -236 OFFCURVE",
"-64 -236 CURVE SMOOTH"
);
}
);
width = 326;
}
);
unicode = 014B;
},
{
glyphname = o;
lastChange = "2021-10-29 07:10:48 +0000";
layers = (
{
anchors = (
{
name = bottom;
position = "{162, 0}";
},
{
name = center;
position = "{162, 163}";
},
{
name = ogonek;
position = "{214, -4}";
},
{
name = top;
position = "{263, 325}";
},
{
name = topright;
position = "{281, 312}";
}
);
layerId = "171CD109-D0B0-4A7B-9E5C-4BA88B29FB0C";
paths = (
{
closed = 1;
nodes = (
"184 -9 OFFCURVE",
"208 1 OFFCURVE",
"231 21 CURVE SMOOTH",
"251 37 OFFCURVE",
"267 58 OFFCURVE",
"280 82 CURVE",
"287 75 OFFCURVE",
"297 71 OFFCURVE",
"311 71 CURVE SMOOTH",
"352 71 OFFCURVE",
"382 102 OFFCURVE",
"410 161 CURVE SMOOTH",
"413 166 OFFCURVE",
"411 170 OFFCURVE",
"408 170 CURVE SMOOTH",
"407 170 OFFCURVE",
"405 169 OFFCURVE",
"404 166 CURVE",
"370 100 OFFCURVE",
"349 79 OFFCURVE",
"310 79 CURVE SMOOTH",
"301 79 OFFCURVE",
"293 81 OFFCURVE",
"286 86 CURVE",
"284 89 LINE",
"299 106 OFFCURVE",
"311 129 OFFCURVE",
"321 158 CURVE SMOOTH",
"330 186 OFFCURVE",
"335 211 OFFCURVE",
"335 235 CURVE SMOOTH",
"335 262 OFFCURVE",
"328 284 OFFCURVE",
"315 301 CURVE SMOOTH",
"301 319 OFFCURVE",
"281 328 OFFCURVE",
"255 328 CURVE SMOOTH",
"204 328 OFFCURVE",
"160 304 OFFCURVE",
"123 254 CURVE SMOOTH",
"90 209 OFFCURVE",
"73 160 OFFCURVE",
"73 107 CURVE SMOOTH",
"73 77 OFFCURVE",
"80 50 OFFCURVE",
"94 29 CURVE SMOOTH",
"110 3 OFFCURVE",
"132 -9 OFFCURVE",
"161 -9 CURVE SMOOTH"
);
},
{
closed = 1;
nodes = (
"135 -1 OFFCURVE",
"119 29 OFFCURVE",
"119 88 CURVE SMOOTH",
"119 110 OFFCURVE",
"122 132 OFFCURVE",
"128 153 CURVE SMOOTH",
"138 190 OFFCURVE",
"154 224 OFFCURVE",
"178 256 CURVE SMOOTH",
"207 295 OFFCURVE",
"237 314 OFFCURVE",
"269 314 CURVE SMOOTH",
"307 314 OFFCURVE",
"326 284 OFFCURVE",
"326 224 CURVE",
"325 224 OFFCURVE",
"322 224 OFFCURVE",
"317 225 CURVE",
"308 225 LINE SMOOTH",
"294 225 OFFCURVE",
"282 217 OFFCURVE",
"272 201 CURVE SMOOTH",
"263 187 OFFCURVE",
"259 172 OFFCURVE",
"258 157 CURVE SMOOTH",
"257 149 OFFCURVE",
"257 144 OFFCURVE",
"257 143 CURVE SMOOTH",
"257 125 OFFCURVE",
"263 106 OFFCURVE",
"275 86 CURVE",
"273 84 OFFCURVE",
"272 82 OFFCURVE",
"272 80 CURVE",
"238 26 OFFCURVE",
"204 -1 OFFCURVE",
"168 -1 CURVE SMOOTH"
);
}
);
width = 323;
}
);
note = o;
unicode = 006F;
},
{
glyphname = oslash;
lastChange = "2021-10-29 07:10:48 +0000";
layers = (
{
anchors = (
{
name = top;
position = "{272, 336}";
}
);
layerId = "171CD109-D0B0-4A7B-9E5C-4BA88B29FB0C";
paths = (
{
closed = 1;
nodes = (
"94 -81 LINE",
"134 -5 LINE",
"143 -8 OFFCURVE",
"152 -9 OFFCURVE",
"161 -9 CURVE SMOOTH",
"184 -9 OFFCURVE",
"208 1 OFFCURVE",
"231 21 CURVE SMOOTH",
"251 37 OFFCURVE",
"267 58 OFFCURVE",
"280 82 CURVE",
"287 75 OFFCURVE",
"297 71 OFFCURVE",
"311 71 CURVE SMOOTH",
"352 71 OFFCURVE",
"384 101 OFFCURVE",
"410 161 CURVE",
"409 163 LINE",
"403 163 LINE",
"380 107 OFFCURVE",
"349 79 OFFCURVE",
"310 79 CURVE SMOOTH",
"301 79 OFFCURVE",
"293 81 OFFCURVE",
"286 86 CURVE",
"284 89 LINE",
"299 106 OFFCURVE",
"311 129 OFFCURVE",
"321 158 CURVE SMOOTH",
"330 186 OFFCURVE",
"335 211 OFFCURVE",
"335 235 CURVE SMOOTH",
"335 270 OFFCURVE",
"325 295 OFFCURVE",
"304 312 CURVE",
"349 396 LINE",
"328 397 LINE",
"288 322 LINE",
"277 326 OFFCURVE",
"266 328 OFFCURVE",
"255 328 CURVE SMOOTH",
"204 328 OFFCURVE",
"160 304 OFFCURVE",
"123 254 CURVE SMOOTH",
"90 209 OFFCURVE",
"73 160 OFFCURVE",
"73 107 CURVE SMOOTH",
"73 58 OFFCURVE",
"88 23 OFFCURVE",
"119 3 CURVE",
"74 -81 LINE"
);
},
{
closed = 1;
nodes = (
"122 41 OFFCURVE",
"119 62 OFFCURVE",
"119 88 CURVE SMOOTH",
"119 109 OFFCURVE",
"122 131 OFFCURVE",
"128 153 CURVE SMOOTH",
"138 190 OFFCURVE",
"154 224 OFFCURVE",
"177 256 CURVE SMOOTH",
"206 295 OFFCURVE",
"237 315 OFFCURVE",
"268 315 CURVE SMOOTH",
"274 315 OFFCURVE",
"278 314 OFFCURVE",
"283 313 CURVE",
"130 25 LINE"
);
},
{
closed = 1;
nodes = (
"156 -1 OFFCURVE",
"147 2 OFFCURVE",
"141 8 CURVE",
"300 305 LINE",
"318 292 OFFCURVE",
"326 265 OFFCURVE",
"326 224 CURVE",
"317 224 LINE",
"313 225 OFFCURVE",
"310 225 OFFCURVE",
"308 225 CURVE SMOOTH",
"294 225 OFFCURVE",
"282 217 OFFCURVE",
"272 201 CURVE SMOOTH",
"263 187 OFFCURVE",
"259 172 OFFCURVE",
"258 157 CURVE SMOOTH",
"257 149 OFFCURVE",
"257 144 OFFCURVE",
"257 143 CURVE SMOOTH",
"257 125 OFFCURVE",
"263 106 OFFCURVE",
"275 86 CURVE",
"273 84 OFFCURVE",
"272 82 OFFCURVE",
"272 80 CURVE",
"238 26 OFFCURVE",
"204 -1 OFFCURVE",
"168 -1 CURVE SMOOTH"
);
}
);
width = 323;
}
);
note = oslash;
unicode = 00F8;
},
{
glyphname = oe;
lastChange = "2021-10-29 07:10:18 +0000";
layers = (
{
layerId = "171CD109-D0B0-4A7B-9E5C-4BA88B29FB0C";
paths = (
{
closed = 1;
nodes = (
"197 -9 OFFCURVE",
"231 12 OFFCURVE",
"263 55 CURVE",
"276 15 OFFCURVE",
"306 -5 OFFCURVE",
"354 -5 CURVE SMOOTH",
"393 -5 OFFCURVE",
"431 13 OFFCURVE",
"466 50 CURVE SMOOTH",
"495 81 OFFCURVE",
"517 118 OFFCURVE",
"534 161 CURVE",
"533 163 LINE",
"529 164 LINE",
"527 163 LINE",
"513 126 OFFCURVE",
"492 91 OFFCURVE",
"464 61 CURVE SMOOTH",
"431 23 OFFCURVE",
"397 4 OFFCURVE",
"363 4 CURVE SMOOTH",
"322 4 OFFCURVE",
"301 27 OFFCURVE",
"301 72 CURVE SMOOTH",
"301 93 OFFCURVE",
"305 113 OFFCURVE",
"313 134 CURVE",
"362 134 OFFCURVE",
"409 156 OFFCURVE",
"454 202 CURVE SMOOTH",
"486 234 OFFCURVE",
"502 264 OFFCURVE",
"502 292 CURVE SMOOTH",
"502 315 OFFCURVE",
"485 327 OFFCURVE",
"451 327 CURVE SMOOTH",
"412 327 OFFCURVE",
"372 305 OFFCURVE",
"332 262 CURVE",
"323 306 OFFCURVE",
"298 328 OFFCURVE",
"255 328 CURVE SMOOTH",
"204 328 OFFCURVE",
"160 304 OFFCURVE",
"123 254 CURVE SMOOTH",
"90 209 OFFCURVE",
"73 160 OFFCURVE",
"73 107 CURVE SMOOTH",
"73 77 OFFCURVE",
"80 50 OFFCURVE",
"94 29 CURVE SMOOTH",
"110 3 OFFCURVE",
"132 -9 OFFCURVE",
"161 -9 CURVE SMOOTH"
);
},
{
closed = 1;
nodes = (
"135 -1 OFFCURVE",
"119 29 OFFCURVE",
"119 88 CURVE SMOOTH",
"119 110 OFFCURVE",
"122 131 OFFCURVE",
"128 153 CURVE SMOOTH",
"138 190 OFFCURVE",
"154 224 OFFCURVE",
"178 256 CURVE SMOOTH",
"207 295 OFFCURVE",
"237 314 OFFCURVE",
"269 314 CURVE SMOOTH",
"301 314 OFFCURVE",
"320 294 OFFCURVE",
"325 254 CURVE",
"280 202 OFFCURVE",
"257 149 OFFCURVE",
"257 95 CURVE SMOOTH",
"257 84 OFFCURVE",
"258 73 OFFCURVE",
"261 63 CURVE",
"230 21 OFFCURVE",
"199 -1 OFFCURVE",
"168 -1 CURVE SMOOTH"
);
},
{
closed = 1;
nodes = (
"318 149 OFFCURVE",
"320 154 OFFCURVE",
"321 158 CURVE",
"333 186 OFFCURVE",
"353 218 OFFCURVE",
"382 252 CURVE SMOOTH",
"417 293 OFFCURVE",
"446 314 OFFCURVE",
"469 314 CURVE SMOOTH",
"485 314 OFFCURVE",
"493 308 OFFCURVE",
"493 298 CURVE SMOOTH",
"493 283 OFFCURVE",
"486 266 OFFCURVE",
"473 245 CURVE SMOOTH",
"462 226 OFFCURVE",
"450 212 OFFCURVE",
"437 201 CURVE",
"437 200 LINE",
"393 161 OFFCURVE",
"352 142 OFFCURVE",
"315 141 CURVE"
);
}
);
width = 448;
}
);
note = oe;
unicode = 0153;
},
